<?xml version="1.0" encoding="utf-8"?>
<!-- Generator: Adobe Illustrator 15.1.0, SVG Export Plug-In . SVG Version: 6.00 Build 0)  -->
<!DOCTYPE svg PUBLIC "-//W3C//DTD SVG 1.1//EN" "http://www.w3.org/Graphics/SVG/1.1/DTD/svg11.dtd">
<svg version="1.1" id="Ebene_1" xmlns="http://www.w3.org/2000/svg" xmlns:xlink="http://www.w3.org/1999/xlink" x="0px" y="0px"
	 width="482px" height="247px" viewBox="0 0 482 247" enable-background="new 0 0 482 247" xml:space="preserve">
<polygon fill="#EDD331" points="1,1 480.055,1 480.055,244.779 1,244.779 "/>
<polygon points="18.008,1 32.181,1 32.181,185.252 18.008,185.252 "/>
<polygon points="52.023,71.866 66.197,71.866 66.197,185.252 52.023,185.252 "/>
<polygon points="40.686,182.418 66.197,182.418 66.197,185.252 40.686,185.252 "/>
<polygon points="40.686,71.867 66.197,71.867 66.197,74.701 40.686,74.701 "/>
<polygon points="86.039,71.866 100.213,71.866 100.213,185.252 86.039,185.252 "/>
<polygon points="120.055,71.866 134.229,71.866 134.229,100.213 120.055,100.213 "/>
<polygon points="108.717,71.867 134.229,71.867 134.229,74.701 108.717,74.701 "/>
<polygon points="182.418,71.866 196.59,71.866 196.59,185.252 182.418,185.252 "/>
<polygon points="148.401,71.866 162.574,71.866 162.574,185.252 148.401,185.252 "/>
<polygon points="148.401,182.418 173.913,182.418 173.913,185.252 148.401,185.252 "/>
<polygon points="171.078,71.867 196.59,71.867 196.59,74.701 171.078,74.701 "/>
<polygon points="239.619,120.056 264.621,120.056 264.621,122.891 236.353,122.891 237.072,121.647 "/>
<polygon points="216.432,71.867 230.605,71.867 230.605,185.252 216.432,185.252 "/>
<polygon points="250.448,120.056 264.621,120.056 264.621,185.252 250.448,185.252 "/>
<polygon points="237.072,121.647 263.71,71.867 266.824,71.867 239.619,122.891 "/>
<polygon points="318.48,71.866 332.652,71.866 332.652,185.252 318.48,185.252 "/>
<polygon points="284.465,120.055 298.639,120.055 298.639,185.252 284.465,185.252 "/>
<polygon points="284.465,120.055 309.977,120.055 309.977,122.891 284.465,122.891 "/>
<polygon points="284.465,182.418 309.977,182.418 309.977,185.252 284.465,185.252 "/>
<polygon points="284.465,71.866 298.639,71.866 298.639,100.213 284.465,100.213 "/>
<polygon points="284.465,71.867 309.977,71.867 309.977,74.701 284.465,74.701 "/>
<polygon points="352.496,71.866 366.669,71.866 366.669,185.252 352.496,185.252 "/>
<polygon points="386.512,71.866 400.686,71.866 400.686,100.213 386.512,100.213 "/>
<polygon points="375.174,71.867 400.686,71.867 400.686,74.701 375.174,74.701 "/>
<polygon points="448.874,1 463.047,1 463.047,185.252 448.874,185.252 "/>
<polygon points="414.857,71.866 429.031,71.866 429.031,185.252 414.857,185.252 "/>
<polygon points="414.857,182.418 440.37,182.418 440.37,185.252 414.857,185.252 "/>
<polygon points="414.857,71.867 440.37,71.867 440.37,74.701 414.857,74.701 "/>
<polygon points="86.039,205.094 88.874,205.094 88.874,224.938 86.039,224.938 "/>
<polygon points="86.039,205.094 122.89,205.094 122.89,207.93 86.039,207.93 "/>
<polygon points="86.039,213.598 122.89,213.598 122.89,216.434 86.039,216.434 "/>
<polygon points="120.055,205.094 122.89,205.094 122.89,224.938 120.055,224.938 "/>
<polygon points="154.07,205.094 156.905,205.094 156.905,224.938 154.07,224.938 "/>
<polygon points="154.07,205.094 190.922,205.094 190.922,207.93 154.07,207.93 "/>
<polygon points="154.07,213.598 190.922,213.598 190.922,216.434 154.07,216.434 "/>
<polygon points="188.086,205.094 190.922,205.094 190.922,216.434 188.086,216.434 "/>
<polygon points="176.51,215.984 178.549,214.016 188.395,224.938 186.355,224.938 "/>
<polygon points="176.51,215.984 178.549,214.016 190.075,224.938 186.355,224.938 "/>
<polygon points="222.103,205.094 224.938,205.094 224.938,224.938 222.103,224.938 "/>
<polygon points="222.103,205.094 258.953,205.094 258.953,207.93 222.103,207.93 "/>
<polygon points="222.103,213.598 258.953,213.598 258.953,216.434 222.103,216.434 "/>
<polygon points="324.148,205.094 326.984,205.094 326.984,224.938 324.148,224.938 "/>
<polygon points="290.134,222.104 326.984,222.104 326.984,224.938 290.134,224.938 "/>
<polygon points="290.134,205.094 292.969,205.094 292.969,224.938 290.134,224.938 "/>
<polygon points="358.165,205.094 361,205.094 361,224.938 358.165,224.938 "/>
<polygon points="358.165,205.094 361,205.094 376.591,213.598 392.182,205.094 395.016,205.094 395.016,207.93 392.182,207.93 
	376.591,216.434 361,207.93 358.165,207.93 "/>
<polygon points="392.182,205.094 395.016,205.094 395.016,224.938 392.182,224.938 "/>
<polygon points="426.197,205.094 429.031,205.094 429.031,216.434 426.197,216.434 "/>
<polygon points="426.197,205.094 463.047,205.094 463.047,207.93 426.197,207.93 "/>
<polygon points="426.197,213.598 463.047,213.598 463.047,216.434 426.197,216.434 "/>
<polygon points="460.213,213.598 463.047,213.598 463.047,224.938 460.213,224.938 "/>
<polygon points="426.197,222.104 463.047,222.104 463.047,224.938 426.197,224.938 "/>
<polygon points="18.008,205.094 20.842,205.094 20.842,224.938 18.008,224.938 "/>
<polygon points="18.008,205.094 54.858,205.094 54.858,207.93 18.008,207.93 "/>
<polygon points="18.008,213.598 54.858,213.598 54.858,216.434 18.008,216.434 "/>
<polygon points="52.023,205.094 54.858,205.094 54.858,216.434 52.023,216.434 "/>
</svg>
