<?xml version="1.0" encoding="utf-8"?>
<!-- Generator: Adobe Illustrator 15.1.0, SVG Export Plug-In . SVG Version: 6.00 Build 0)  -->
<!DOCTYPE svg PUBLIC "-//W3C//DTD SVG 1.1//EN" "http://www.w3.org/Graphics/SVG/1.1/DTD/svg11.dtd">
<svg version="1.1" id="Ebene_1" xmlns="http://www.w3.org/2000/svg" xmlns:xlink="http://www.w3.org/1999/xlink" x="0px" y="0px"
	 width="400px" height="450px" viewBox="0 0 400 450" enable-background="new 0 0 400 450" xml:space="preserve">
<polygon fill="#38563C" stroke="#EEEEEE" stroke-width="0.4378" stroke-miterlimit="3.8637" points="397.789,414.919 
	397.789,447.827 9.952,447.827 9.952,414.919 "/>
<path fill="#FFFFFF" d="M22.026,440.057h2.187v-7.341h2.062c1.986,0.075,2.916,0.956,3.419,3.294
	c0.453,2.111,0.83,3.569,1.106,4.047h2.262c-0.327-0.652-0.729-2.288-1.282-4.649c-0.427-1.76-1.207-2.967-2.489-3.42v-0.075
	c1.76-0.604,3.193-2.086,3.193-4.299c0-1.332-0.502-2.488-1.332-3.219c-1.056-0.954-2.589-1.407-4.928-1.407
	c-1.483,0-3.092,0.15-4.198,0.378V440.057L22.026,440.057z M24.213,424.898c0.377-0.102,1.106-0.201,2.162-0.201
	c2.312,0,3.896,0.955,3.896,3.143c0,1.937-1.483,3.218-3.821,3.218h-2.237V424.898L24.213,424.898z"/>
<polygon fill="#FFFFFF" points="59.613,430.303 53.052,430.303 53.052,424.949 60.015,424.949 60.015,423.113 50.839,423.113 
	50.839,440.057 60.392,440.057 60.392,438.222 53.052,438.222 53.052,432.113 59.613,432.113 "/>
<polygon fill="#FFFFFF" points="78.514,423.113 78.514,440.057 80.726,440.057 80.726,423.113 "/>
<path fill="#FFFFFF" d="M101.856,440.057v-7.239c0-2.815-0.025-4.853-0.151-6.989l0.076-0.024c0.83,1.835,1.961,3.771,3.143,5.656
	l5.38,8.598h2.212v-16.943h-2.062v7.114c0,2.614,0.05,4.677,0.252,6.938l-0.076,0.025c-0.779-1.762-1.785-3.521-3.017-5.507
	l-5.405-8.572h-2.413v16.943H101.856L101.856,440.057z"/>
<polygon fill="#FFFFFF" points="140.427,430.303 133.865,430.303 133.865,424.949 140.829,424.949 140.829,423.113 131.653,423.113 
	131.653,440.057 141.206,440.057 141.206,438.222 133.865,438.222 133.865,432.113 140.427,432.113 "/>
<path fill="#FFFFFF" d="M159.353,440.057h2.187v-7.341h2.062c1.985,0.075,2.916,0.956,3.418,3.294
	c0.453,2.111,0.83,3.569,1.106,4.047h2.263c-0.327-0.652-0.729-2.288-1.282-4.649c-0.428-1.76-1.207-2.967-2.489-3.42v-0.075
	c1.76-0.604,3.192-2.086,3.192-4.299c0-1.332-0.502-2.488-1.332-3.219c-1.056-0.954-2.589-1.407-4.927-1.407
	c-1.483,0-3.092,0.15-4.199,0.378L159.353,440.057L159.353,440.057z M161.54,424.898c0.377-0.102,1.106-0.201,2.162-0.201
	c2.313,0,3.897,0.955,3.897,3.143c0,1.937-1.483,3.218-3.821,3.218h-2.238V424.898L161.54,424.898z"/>
<path fill="#FFFFFF" d="M218.382,440.057h2.162l-1.056-16.943h-2.791l-3.017,8.194c-0.754,2.139-1.357,3.998-1.81,5.707h-0.051
	c-0.452-1.76-1.006-3.62-1.709-5.707l-2.892-8.194h-2.79l-1.182,16.943h2.087l0.452-7.266c0.15-2.562,0.276-5.38,0.327-7.491h0.05
	c0.478,2.011,1.131,4.173,1.936,6.586l2.766,8.07h1.659l2.992-8.221c0.854-2.338,1.533-4.476,2.136-6.437h0.051
	c0,2.086,0.151,4.952,0.276,7.315L218.382,440.057L218.382,440.057z"/>
<polygon fill="#FFFFFF" points="239.254,423.113 239.254,440.057 241.467,440.057 241.467,423.113 "/>
<path fill="#FFFFFF" d="M259.681,439.228c0.904,0.604,2.689,1.106,4.324,1.106c3.996,0,5.907-2.288,5.907-4.903
	c0-2.487-1.433-3.846-4.299-4.978c-2.338-0.904-3.369-1.686-3.369-3.269c0-1.156,0.88-2.539,3.193-2.539
	c1.533,0,2.665,0.479,3.192,0.805l0.604-1.785c-0.729-0.427-2.012-0.829-3.721-0.829c-3.294,0-5.48,1.961-5.48,4.601
	c0,2.363,1.71,3.821,4.475,4.827c2.288,0.854,3.193,1.785,3.193,3.345c0,1.733-1.308,2.891-3.545,2.891
	c-1.509,0-2.916-0.479-3.896-1.106L259.681,439.228L259.681,439.228z"/>
<path fill="#FFFFFF" d="M299.623,437.769c-0.88,0.429-2.237,0.704-3.596,0.704c-4.097,0-6.485-2.64-6.485-6.812
	c0-4.45,2.64-6.989,6.611-6.989c1.408,0,2.59,0.302,3.395,0.704l0.554-1.785c-0.578-0.301-1.937-0.754-4.022-0.754
	c-5.255,0-8.85,3.57-8.85,8.899c0,5.581,3.57,8.599,8.347,8.599c2.062,0,3.695-0.403,4.475-0.805L299.623,437.769L299.623,437.769z"
	/>
<polygon fill="#FFFFFF" points="318.111,423.113 318.111,440.057 320.324,440.057 320.324,432.113 328.52,432.113 328.52,440.057 
	330.73,440.057 330.73,423.113 328.52,423.113 328.52,430.203 320.324,430.203 320.324,423.113 "/>
<path fill="#FFFFFF" d="M349.861,440.057h2.188v-6.461l1.634-1.859l5.558,8.32h2.589l-6.611-9.754l6.135-7.189h-2.715l-5.18,6.359
	c-0.428,0.555-0.88,1.156-1.333,1.812h-0.075v-8.171h-2.188v16.943H349.861z"/>
<polygon fill="#FFFFFF" points="387.557,430.303 380.995,430.303 380.995,424.949 387.959,424.949 387.959,423.113 378.783,423.113 
	378.783,440.057 388.336,440.057 388.336,438.222 380.995,438.222 380.995,432.113 387.557,432.113 "/>
<path fill="#38563C" d="M84.891,86.698c6.109-0.886,7.789,0.375,11.034,4.206c2.552,3.012,4.623,8.433,6.815,14.172
	c1.599,4.184,3.251,8.51,5.355,12.763c5.074,10.257,15.385,29.624,15.489,29.818c0.573,1.077,1.677,1.69,2.817,1.69
	c0.505,0,1.019-0.121,1.496-0.375c1.555-0.828,2.144-2.759,1.315-4.313c-0.103-0.194-10.37-19.477-15.401-29.648
	c-1.97-3.983-3.568-8.166-5.114-12.211c-2.393-6.262-4.652-12.176-7.907-16.019c-4.421-5.219-8.236-7.64-16.816-6.396
	c-3.214,0.466-12.242,2.145-21.799,3.919c-12.091,2.247-25.795,4.793-29.754,5.264c-6.328,0.749-8.108-2.066-10.953-7.534
	c-0.759-1.458-1.543-2.967-2.499-4.413c-2.369-3.586-5.277-4.618-7.401-5.372c-2.215-0.786-2.741-0.972-3.112-3.643
	c-1.199-8.624,15.688-12.8,29.258-16.155c6.563-1.624,12.763-3.156,16.995-5.142c13.233-6.209,23.645-11.355,23.749-11.407
	c1.027-0.508,1.703-1.531,1.77-2.675c0.242-4.131,2.092-15.612,7.675-19.073c7.825-4.853,30.639-9.327,38.452-5.028
	c4.611,2.537,5.5,7.163,6.529,12.52c0.649,3.382,1.321,6.88,3.052,9.944c4.801,8.5,10.48,15.756,18.989,24.264
	c9.188,9.188,20.564,20.455,20.678,20.567c1.252,1.24,3.271,1.23,4.51-0.022c1.239-1.251,1.229-3.271-0.022-4.51
	c-0.113-0.112-11.479-11.368-20.656-20.545c-8.077-8.077-13.444-14.923-17.945-22.891c-1.217-2.155-1.764-4.999-2.342-8.01
	c-1.106-5.758-2.482-12.924-9.717-16.905C118.447-2.501,93.06,3.454,84.54,8.736c-7.895,4.894-9.992,17.318-10.521,22.244
	c-3.408,1.671-11.878,5.799-22.02,10.558c-3.663,1.719-9.566,3.179-15.817,4.724c-16.054,3.97-36.034,8.911-34.044,23.225
	c0.905,6.508,4.6,7.819,7.298,8.776c1.753,0.622,3.02,1.071,4.212,2.876c0.772,1.169,1.447,2.467,2.163,3.841
	c2.685,5.161,6.357,12.225,17.364,10.924c4.166-0.495,17.384-2.951,30.167-5.327C72.834,88.812,81.801,87.146,84.891,86.698z"/>
<path fill="#38563C" d="M211.303,92.759c2.067,0.295,50.803,7.232,66.297,7.232h78.156c1.762,0,3.189-1.428,3.189-3.189
	c0-1.761-1.428-3.189-3.189-3.189H277.6c-15.043,0-64.893-7.097-65.395-7.168c-1.744-0.25-3.359,0.962-3.608,2.706
	C208.348,90.895,209.56,92.51,211.303,92.759z"/>
<path fill="#38563C" d="M144.855,174.378c10.043-5.7,45.94-27.359,53.434-49.74c5.308-15.853,5.671-29.481,1.023-38.375
	c-2.37-4.533-5.949-7.61-10.352-8.898c-3.295-0.965-9.424-2.754-46.835,58.875c-19.05,31.382-41.404,71.617-55.625,100.118
	c-26.549,53.208-52.459,149.791-52.717,150.759c-0.454,1.702,0.557,3.449,2.259,3.902c0.276,0.073,0.552,0.108,0.824,0.108
	c1.409,0,2.699-0.94,3.079-2.367c0.257-0.964,26.003-96.928,52.262-149.556c13.568-27.193,35.091-66.037,53.558-96.66
	c31.448-52.149,40.229-58.227,41.81-58.933c2.548,0.868,4.594,2.75,6.085,5.603c3.782,7.237,3.265,19.409-1.418,33.396
	c-7.746,23.133-52.497,47.316-52.948,47.558c-1.458,0.78-2.077,2.546-1.427,4.066c0.205,0.479,20.527,48.083,22.422,60.88
	c1.536,10.371,1.26,104.483,0.899,152.8c-0.013,1.761,1.404,3.199,3.165,3.212c0.008,0.001,0.016,0.001,0.024,0.001
	c1.75-0.001,3.175-1.413,3.188-3.166c0.042-5.724,1.023-140.336-0.968-153.78C164.832,222.258,149.255,184.801,144.855,174.378z"/>
<path fill="#38563C" d="M258.87,243.049c-0.963-3.32-1.738-6.406-2.423-9.13c-3.544-14.105-5.771-22.968-25.207-24.825
	c0,0-5.107-0.387-9.42-0.387c-4.234,0-9.49,0.387-9.49,0.387c-19.436,1.857-21.664,10.719-25.207,24.825
	c-0.684,2.723-1.459,5.81-2.423,9.13c-6.306,21.734-10.185,139.772-10.347,144.787c-0.057,1.76,1.324,3.233,3.084,3.29
	c1.746,0.046,3.233-1.324,3.291-3.085c0.039-1.22,4.013-122.243,10.097-143.215c0.996-3.432,1.786-6.578,2.483-9.354
	c3.764-14.981,4.9-19.502,23.389-20.283c0.876-0.037,1.678-0.07,2.435-0.102l2.563-0.075l2.797,0.062l-0.025,0.014
	c0.748,0.031,1.54,0.064,2.405,0.101c18.49,0.781,19.626,5.302,23.39,20.284c0.697,2.775,1.487,5.921,2.483,9.353
	c6.084,20.971,10.058,141.995,10.097,143.215c0.056,1.726,1.472,3.087,3.186,3.087c0.035,0,0.07-0.001,0.104-0.002
	c1.761-0.057,3.142-1.53,3.085-3.29C269.055,382.822,265.176,264.784,258.87,243.049z"/>
<path fill="#38563C" d="M360.77,243.049c-0.963-3.32-1.738-6.406-2.424-9.13c-3.544-14.105-5.771-22.968-25.207-24.825
	c0,0-5.106-0.387-9.42-0.387c-4.234,0-9.49,0.387-9.49,0.387c-19.436,1.857-21.664,10.719-25.207,24.825
	c-0.684,2.723-1.459,5.81-2.423,9.13c-6.306,21.734-10.185,139.772-10.347,144.787c-0.057,1.76,1.324,3.233,3.084,3.29
	c1.746,0.046,3.233-1.324,3.291-3.085c0.039-1.22,4.012-122.243,10.097-143.215c0.995-3.432,1.786-6.578,2.483-9.354
	c3.764-14.981,4.9-19.502,23.389-20.283c0.877-0.037,1.678-0.07,2.436-0.102l2.562-0.075l2.797,0.062l-0.024,0.014
	c0.747,0.031,1.54,0.064,2.405,0.101c18.489,0.781,19.625,5.302,23.39,20.284c0.696,2.775,1.487,5.921,2.483,9.353
	c6.084,20.971,10.058,141.995,10.097,143.215c0.056,1.726,1.472,3.087,3.187,3.087c0.034,0,0.069-0.001,0.104-0.002
	c1.761-0.057,3.142-1.53,3.085-3.29C370.953,382.822,367.074,264.784,360.77,243.049z"/>
</svg>
