<?xml version="1.0" encoding="utf-8"?>
<!-- Generator: Adobe Illustrator 15.1.0, SVG Export Plug-In . SVG Version: 6.00 Build 0)  -->
<!DOCTYPE svg PUBLIC "-//W3C//DTD SVG 1.1//EN" "http://www.w3.org/Graphics/SVG/1.1/DTD/svg11.dtd">
<svg version="1.1" id="Ebene_1" xmlns="http://www.w3.org/2000/svg" xmlns:xlink="http://www.w3.org/1999/xlink" x="0px" y="0px"
	 width="317px" height="471px" viewBox="0 0 317 471" enable-background="new 0 0 317 471" xml:space="preserve">
<path fill="#1A206A" d="M290.339,20.925h1.033c4.651,0,5.972,0.805,6.374,3.962l0.4,3.158c0.402,3.273,1.78,4.651,4.709,4.651
	c1.494,0,2.067-0.115,3.389-0.574l-0.287-0.861c-0.919,0.229-1.32,0.345-1.723,0.345c-0.861,0-1.264-0.632-1.437-2.412l-0.229-2.411
	c-0.401-4.249-1.551-5.513-5.396-6.316c4.135-0.746,6.087-2.526,6.087-5.455c0-3.503-2.929-5.513-7.925-5.513h-12.689v0.919h3.445
	V31.49h-3.445v0.977h11.369V31.49h-3.675V20.925L290.339,20.925z M290.339,10.417h0.861c3.616,0,4.708,0.173,5.856,0.977
	c1.09,0.746,1.779,2.297,1.779,3.904c0,3.273-2.354,4.767-7.465,4.767h-1.033L290.339,10.417L290.339,10.417z M294.473,1
	c-10.967,0-19.924,8.958-19.924,19.925c0,11.024,8.898,19.982,19.924,19.982s19.926-8.958,19.926-19.982
	C314.398,9.901,305.498,1,294.473,1L294.473,1z M294.473,1.861c10.451,0,18.949,8.556,18.949,19.063
	c0,10.565-8.498,19.121-18.949,19.121c-10.449,0-18.947-8.556-18.947-19.121C275.523,10.417,284.021,1.861,294.473,1.861
	L294.473,1.861z"/>
<polygon fill="#1A206A" points="65.253,86.669 28.463,86.669 46.692,27.576 "/>
<polygon fill="#1A206A" points="144.154,280.962 176.396,383.924 188.615,345.864 167.591,280.962 "/>
<polygon fill="#1A206A" points="3.375,129.535 10.635,129.536 51.228,1.026 3.375,1.026 "/>
<polygon fill="#1A206A" points="213.941,411.269 258.616,411.269 258.617,280.963 251.322,280.962 "/>
<polygon fill="#1A206A" points="171.551,411.269 209.708,411.269 191.02,352.475 "/>
<polygon fill="#1A206A" points="99.973,140.771 123.409,140.771 144.433,205.672 132.214,243.73 "/>
<path fill="#1A206A" d="M4.458,460.661c3.445,4.959,9.255,7.907,16.471,7.907c5.839,0,10.381-1.854,16.128-6.675v-1.232h-7.538
	c-0.337,3.935-3.513,6.331-8.59,6.331c-4.83,0-8.067-2.015-9.904-6.331H4.458L4.458,460.661z M63.938,460.661v5.126h-7.137v1.576
	h21.783v-1.576h-7.138v-5.126H63.938L63.938,460.661z M84.382,460.661c0.791,5.032,2.958,6.979,7.642,6.979
	c2.317,0,3.986-0.277,5.932-1.111l-0.556-1.392c-1.298,0.463-2.132,0.648-2.966,0.648c-1.483,0-1.483-0.093-2.039-4.449
	l-0.081-0.677L84.382,460.661L84.382,460.661z M117.402,460.661c3.473,4.779,8.77,7.907,14.552,7.907
	c6.028,0,11.494-3.126,15.018-7.906l-5.949-0.001c-1.734,4.233-4.683,6.331-8.884,6.331c-4.201,0-7.15-2.098-8.884-6.326
	L117.402,460.661L117.402,460.661z M172.617,460.661c0.32,1.396,0.861,2.305,1.729,3.365c2.78,3.243,7.139,4.635,14.274,4.635
	c7.97,0,12.571-2.487,14.387-8.004l-1.39,0.004c-0.303,0.765-0.702,1.452-1.227,2.16c-2.132,2.779-5.654,4.264-10.195,4.264
	c-3.985,0-6.766-1.02-8.619-3.151c-0.876-0.928-1.352-1.769-1.602-3.271L172.617,460.661L172.617,460.661z M232.188,460.661v5.126
	h-7.137v1.576h22.34v-1.576h-7.693v-5.126H232.188L232.188,460.661z"/>
<path fill="#1A206A" d="M11.024,460.661c-1.266-2.977-1.868-7.044-1.868-12.3c0-12.144,3.893-18.354,11.401-18.354
	c7.045,0,11.864,4.728,12.977,12.698h1.576v-13.069h-1.576l-0.371,2.132c-0.927,0.371-1.298,0.187-1.668,0
	c-4.264-2.503-6.952-3.337-10.845-3.337C9.62,428.433,1,437.424,1,448.825c0,4.612,1.238,8.642,3.458,11.836H11.024L11.024,460.661z
	 M37.057,460.661v-5.533h7.137v-1.576H22.411v1.576h7.138v4.82c0,0.242-0.01,0.479-0.03,0.711L37.057,460.661L37.057,460.661z
	 M71.446,460.661v-12.578h2.317c7.693,0,9.362,1.02,9.918,6.396l0.556,5.099c0.042,0.375,0.09,0.734,0.144,1.081l7.932,0.003
	l-0.383-3.216c-0.834-7.045-2.595-8.991-9.455-10.012c7.138-0.834,10.567-3.708,10.567-8.806c0-5.933-4.913-9.548-13.162-9.548H56.8
	v1.576h7.137v30.003L71.446,460.661L71.446,460.661z M123.255,460.661c-1.25-3.045-1.868-7.204-1.868-12.485
	c0-12.234,3.708-18.815,10.752-18.815s10.752,6.581,10.752,18.815c0,5.281-0.618,9.44-1.868,12.49l5.949-0.005
	c2.544-3.452,4.076-7.769,4.076-12.394c0-11.029-8.806-20.483-19.001-20.483c-9.733,0-18.816,9.731-18.816,20.021
	c0,4.797,1.577,9.289,4.171,12.858L123.255,460.661L123.255,460.661z M179.977,460.661c-0.199-1.201-0.254-2.826-0.254-5.255
	v-24.749h7.139v-1.576h-21.783v1.576h7.138v24.378c0,2.626,0.106,4.333,0.402,5.624L179.977,460.661L179.977,460.661z
	 M203.008,460.661c0.612-1.865,0.907-4.072,0.907-6.646V440.39v-4.077c0-4.449,1.298-5.747,5.84-5.747l1.112-1.575h-16.129v1.575
	c4.357,0,6.117,0.557,6.859,1.854c0.648,1.021,0.834,0.557,0.834,8.064v13.719c0,3.033-0.207,4.909-0.813,6.456L203.008,460.661
	L203.008,460.661z M239.697,460.661v-10.816c2.502,0.463,3.984,0.648,6.303,0.648c9.27,0,15.665-4.356,15.665-10.566
	c0-6.952-6.211-10.846-17.241-10.846h-19.371v1.576h7.137v30.003L239.697,460.661L239.697,460.661z M239.697,430.657h2.316
	c8.342,0,11.864,2.873,11.864,9.731c0,5.654-3.151,8.62-9.177,8.62c-1.762,0-3.059-0.185-5.006-0.741v-17.61H239.697z
	 M71.446,430.657h2.132c5.562,0,7.322,0.371,8.991,1.669c1.761,1.297,2.781,3.8,2.781,6.488c0,5.469-3.429,7.692-11.586,7.692
	h-2.317L71.446,430.657L71.446,430.657z"/>
<path fill="#1A206A" d="M230.891,277.355l27.728,0.002L258.616,1.026H57.207l40.02,128.51h13.822v3.605H61.972v-3.605h16.712
	L66.351,90.274h-39.09l-12.019,39.262h15.825v3.605H3.375v278.126h163.871l-41.12-130.307h-10.617v-3.605h81.81v3.605h-11.885
	l33.027,101.359l28.653-101.359h-16.226v-3.605H230.891z M216.956,140.771h-9.815l-37.867,132.006h-3.205l-19.23-60.494
	l-20.031,60.494h-3.205L81.944,140.771H71.328v-3.605h81.809v3.605h-11.885l33.027,101.358l28.654-101.358h-16.226v-3.605h30.247
	L216.956,140.771L216.956,140.771z"/>
</svg>
