<?xml version="1.0" encoding="utf-8"?>
<!-- Generator: Adobe Illustrator 16.0.0, SVG Export Plug-In . SVG Version: 6.00 Build 0)  -->
<!DOCTYPE svg PUBLIC "-//W3C//DTD SVG 1.1//EN" "http://www.w3.org/Graphics/SVG/1.1/DTD/svg11.dtd">
<svg version="1.1" id="Ebene_1" xmlns="http://www.w3.org/2000/svg" xmlns:xlink="http://www.w3.org/1999/xlink" x="0px" y="0px"
	 width="717.165px" height="181.417px" viewBox="0 0 717.165 181.417" enable-background="new 0 0 717.165 181.417"
	 xml:space="preserve">
<rect x="3.638" y="138.827" fill="#B2352B" width="697.323" height="25.513"/>
<g>
	<defs>
		<rect id="SVGID_1_" x="3.638" y="3.809" width="708.314" height="174.542"/>
	</defs>
	<clipPath id="SVGID_2_">
		<use xlink:href="#SVGID_1_"  overflow="visible"/>
	</clipPath>
	<path clip-path="url(#SVGID_2_)" fill="#FFFFFF" d="M681.479,159.73c-0.024-1.08-0.072-6.383-0.072-8.83
		c0-1.872,0.24-6.623,0.384-8.039c-0.264,0.072-0.504,0.117-0.767,0.117c-0.264,0-0.551-0.045-0.814-0.117
		c0.192,3.695,0.192,8.375,0.192,12.67c-2.93-2.952-8.234-8.735-12.146-12.981h-0.383c0.072,1.079,0.072,3.406,0.072,6.431
		c0,3.167-0.312,9.31-0.504,10.438c0.312-0.071,0.6-0.116,0.887-0.116s0.574,0.045,0.838,0.116c-0.12-0.96-0.216-6.022-0.216-8.087
		c0-2.543,0.048-3.982,0.072-4.871c4.104,4.368,8.474,8.976,12.12,13.271H681.479z M653.457,153.179
		c0,2.064-0.096,4.153-0.192,6.238c1.463-0.071,2.901-0.116,4.365-0.116s2.904,0.045,4.32,0.116
		c-0.048-0.215-0.069-0.479-0.069-0.693c0-0.216,0.021-0.527,0.069-0.743c-1.512,0.288-4.344,0.312-6.48,0.312
		c-0.023-0.6-0.048-1.776-0.048-3.602c0-2.305,0-2.905,0.024-3.481c1.151,0,4.176,0.049,5.832,0.217
		c-0.048-0.24-0.069-0.479-0.069-0.719s0.021-0.503,0.069-0.742c-1.416,0.119-3,0.239-5.832,0.239c0-0.6-0.024-1.921-0.024-3.17
		c0-1.176,0.072-2.017,0.097-3.049c3.119,0,4.296,0.168,6.312,0.312c-0.048-0.24-0.069-0.48-0.069-0.72
		c0-0.238,0.021-0.479,0.069-0.718c-1.416,0.072-2.832,0.117-4.272,0.117c-1.439,0-2.854-0.045-4.293-0.117
		c0.097,2.037,0.192,4.126,0.192,6.191V153.179z M644.342,149.917c-1.68,0.024-3.337,0.072-5.017,0.072
		c-1.682,0-3.337-0.048-5.019-0.072v-0.84c0-2.063,0.097-4.151,0.192-6.216c-0.408,0.072-0.791,0.117-1.174,0.117
		c-0.384,0-0.768-0.045-1.175-0.117c0.096,2.064,0.191,4.152,0.191,6.216v4.125c0,2.064-0.096,4.152-0.191,6.216
		c0.407-0.071,0.791-0.116,1.175-0.116c0.383,0,0.766,0.045,1.174,0.116c-0.096-2.063-0.192-4.151-0.192-6.216v-2.16
		c1.682-0.023,3.337-0.048,5.019-0.048c1.68,0,3.337,0.024,5.017,0.048v2.16c0,2.064-0.096,4.152-0.191,6.216
		c0.407-0.071,0.791-0.116,1.175-0.116c0.383,0,0.766,0.045,1.174,0.116c-0.096-2.063-0.192-4.151-0.192-6.216v-4.125
		c0-2.063,0.097-4.151,0.192-6.216c-0.408,0.072-0.791,0.117-1.174,0.117c-0.384,0-0.768-0.045-1.175-0.117
		c0.096,2.064,0.191,4.152,0.191,6.216V149.917z M626.598,156.949l-0.096-0.096c-0.912,0.696-2.592,1.992-4.872,1.992
		c-3.768,0-6.647-2.376-6.647-7.706c0-5.329,2.88-7.705,6.647-7.705c2.257,0,3.889,1.392,4.561,2.136l0.144-0.048
		c0.096-0.504,0.264-1.44,0.504-1.872c-1.296-0.599-3.144-1.101-5.208-1.101c-5.304,0-8.997,3.141-8.997,8.59
		c0,5.45,3.693,8.591,8.757,8.591c2.4,0,4.393-0.885,4.992-1.365L626.598,156.949z M605.537,150.661c0,3.024,0,7.944-5.258,7.944
		c-5.354,0-5.354-4.248-5.354-7.512c0-3.553,0.145-6.816,0.288-8.232c-0.312,0.072-0.695,0.117-1.031,0.117
		c-0.384,0-0.862-0.045-1.245-0.117c0.048,1.392,0.143,3.576,0.143,6.216c0,1.2-0.119,2.305-0.119,3.792
		c0,4.656,2.109,6.861,6.862,6.861c4.32,0,6.791-2.661,6.839-6.909c0.048-3.504,0.24-7.728,0.432-9.96
		c-0.216,0.072-0.479,0.117-0.72,0.117c-0.335,0-0.67-0.045-0.98-0.117C605.537,143.796,605.537,146.101,605.537,150.661
		 M575.729,159.417c0.407-0.071,0.791-0.116,1.174-0.116c0.384,0,0.767,0.045,1.175,0.116c-0.096-2.063-0.192-4.151-0.192-6.216
		v-2.088c0-0.072,0.049-0.144,0.12-0.144c0.072,0,0.145,0.048,0.288,0.191c1.032,1.032,4.656,5.448,6.937,8.256
		c0.432-0.071,0.888-0.116,1.319-0.116c0.48,0,0.96,0.045,1.44,0.116c-2.712-3.071-5.376-6.168-7.944-9.071
		c1.729-1.991,5.473-5.542,7.68-7.485c-0.384,0.072-0.768,0.117-1.151,0.117c-0.336,0-0.672-0.045-0.984-0.117
		c-2.256,2.567-4.992,5.566-7.224,7.509c-0.192,0.17-0.24,0.22-0.336,0.22s-0.145-0.05-0.145-0.194v-1.32
		c0-2.063,0.097-4.15,0.192-6.214c-0.408,0.072-0.791,0.117-1.175,0.117c-0.383,0-0.767-0.045-1.174-0.117
		c0.096,2.063,0.191,4.15,0.191,6.214v4.127C575.921,155.266,575.825,157.354,575.729,159.417 M548.438,155.244
		c0-1.992,1.059-3.096,2.808-4.151c1.442,1.991,2.931,3.863,4.513,5.784c-1.102,1.104-2.183,1.729-3.792,1.729
		C549.904,158.605,548.438,156.973,548.438,155.244 M549.233,146.771c0,1.2,0.671,2.424,1.604,3.744
		c-2.472,1.033-4.365,3.049-4.365,5.161c0,2.665,2.11,4.054,4.581,4.054c2.282,0,3.771-0.935,5.185-2.349
		c0.696,0.812,1.248,1.604,1.512,2.036c0.432-0.048,0.937-0.116,1.368-0.116c0.504,0,1.032,0.068,1.536,0.116l-3.072-3.456
		c1.296-1.535,2.256-2.928,3.24-4.464c-0.36-0.239-0.72-0.552-0.912-0.96c-0.769,1.681-1.704,3.168-2.856,4.752
		c-1.391-1.56-2.78-3.384-4.222-5.231c1.417-0.84,3.286-2.376,3.286-4.2c0-1.752-1.341-2.685-3.19-2.685
		C550.766,143.173,549.233,144.753,549.233,146.771 M554.873,145.833c0,1.226-0.816,2.713-2.45,3.722
		c-0.863-1.08-1.513-2.521-1.513-3.456c0-1.273,0.793-2.257,2.042-2.257C554.129,143.842,554.873,144.682,554.873,145.833
		 M523.649,153.179c0,2.064-0.097,4.153-0.192,6.238c1.462-0.071,2.901-0.116,4.365-0.116s2.903,0.045,4.319,0.116
		c-0.048-0.215-0.068-0.479-0.068-0.693c0-0.216,0.021-0.527,0.068-0.743c-1.512,0.288-4.344,0.312-6.479,0.312
		c-0.024-0.6-0.048-1.776-0.048-3.602c0-2.305,0-2.905,0.023-3.481c1.152,0,4.177,0.049,5.832,0.217
		c-0.048-0.24-0.068-0.479-0.068-0.719s0.021-0.503,0.068-0.742c-1.416,0.119-3,0.239-5.832,0.239c0-0.6-0.023-1.921-0.023-3.17
		c0-1.176,0.072-2.017,0.096-3.049c3.12,0,4.296,0.168,6.312,0.312c-0.049-0.24-0.069-0.48-0.069-0.72
		c0-0.238,0.021-0.479,0.069-0.718c-1.416,0.072-2.832,0.117-4.272,0.117s-2.854-0.045-4.293-0.117
		c0.096,2.037,0.192,4.126,0.192,6.191V153.179z M509.472,153.179c0,2.064-0.096,4.153-0.191,6.238
		c1.462-0.071,2.9-0.116,4.365-0.116c1.464,0,2.903,0.045,4.319,0.116c-0.048-0.215-0.068-0.479-0.068-0.693
		c0-0.216,0.021-0.527,0.068-0.743c-1.512,0.288-4.344,0.312-6.479,0.312c-0.024-0.6-0.048-1.776-0.048-3.602
		c0-2.305,0-2.905,0.023-3.481c1.152,0,4.176,0.049,5.832,0.217c-0.048-0.24-0.069-0.479-0.069-0.719s0.021-0.503,0.069-0.742
		c-1.416,0.119-3,0.239-5.832,0.239c0-0.6-0.023-1.921-0.023-3.17c0-1.176,0.071-2.017,0.096-3.049c3.12,0,4.296,0.168,6.312,0.312
		c-0.048-0.24-0.068-0.48-0.068-0.72c0-0.238,0.021-0.479,0.068-0.718c-1.416,0.072-2.832,0.117-4.271,0.117
		c-1.44,0-2.854-0.045-4.293-0.117c0.096,2.037,0.191,4.126,0.191,6.191V153.179z M495.204,153.202c0,2.064-0.096,4.152-0.192,6.216
		c0.408-0.071,0.791-0.116,1.176-0.116c0.383,0,0.767,0.045,1.174,0.116c-0.097-2.063-0.192-4.151-0.192-6.216v-2.04
		c2.064,0,4.584,0.024,6.192,0.192c-0.048-0.24-0.093-0.479-0.093-0.718c0-0.24,0.045-0.479,0.093-0.72
		c-1.992,0.192-4.128,0.24-6.192,0.24c0-1.008-0.023-1.921-0.023-3.024c0-1.01,0.023-2.018,0.048-3.146
		c1.56,0,4.968,0.144,6.695,0.312c-0.048-0.24-0.068-0.48-0.068-0.72c0-0.238,0.021-0.479,0.068-0.718
		c-1.728,0.072-3.144,0.117-4.584,0.117c-1.439,0-2.854-0.045-4.293-0.117c0.097,2.061,0.192,4.15,0.192,6.215V153.202z
		 M480.937,153.202c0,2.064-0.097,4.152-0.192,6.216c0.408-0.071,0.791-0.116,1.175-0.116c0.383,0,0.768,0.045,1.174,0.116
		c-0.096-2.063-0.191-4.151-0.191-6.216v-2.04c2.063,0,4.584,0.024,6.191,0.192c-0.048-0.24-0.093-0.479-0.093-0.718
		c0-0.24,0.045-0.479,0.093-0.72c-1.992,0.192-4.128,0.24-6.191,0.24c0-1.008-0.024-1.921-0.024-3.024
		c0-1.01,0.024-2.018,0.048-3.146c1.561,0,4.969,0.144,6.696,0.312c-0.048-0.24-0.069-0.48-0.069-0.72
		c0-0.238,0.021-0.479,0.069-0.718c-1.728,0.072-3.144,0.117-4.584,0.117s-2.854-0.045-4.293-0.117
		c0.096,2.061,0.192,4.15,0.192,6.215V153.202z M470.286,151.885c-0.888,0.023-1.8,0.048-2.688,0.048
		c-0.839,0-1.751-0.048-2.591-0.048l2.615-6.097L470.286,151.885z M467.958,142.549c-2.447,5.663-4.943,11.253-7.51,16.868
		c0.312-0.071,0.6-0.116,0.888-0.116s0.576,0.045,0.887,0.116c0.408-1.512,1.32-3.96,2.328-6.432
		c0.984-0.024,1.944-0.048,2.928-0.048c1.056,0,2.111,0.023,3.144,0.048c0.864,2.136,2.015,4.776,2.471,6.432
		c0.433-0.071,0.84-0.116,1.272-0.116c0.432,0,0.84,0.045,1.271,0.116c-1.271-2.567-4.871-11.301-7.223-16.868H467.958z
		 M444.104,159.417c0.407-0.071,0.791-0.116,1.174-0.116c0.384,0,0.767,0.045,1.175,0.116c-0.096-2.063-0.192-4.151-0.192-6.216
		v-2.088c0-0.072,0.049-0.144,0.12-0.144c0.072,0,0.145,0.048,0.288,0.191c1.032,1.032,4.656,5.448,6.937,8.256
		c0.432-0.071,0.888-0.116,1.319-0.116c0.48,0,0.96,0.045,1.44,0.116c-2.712-3.071-5.376-6.168-7.944-9.071
		c1.729-1.991,5.473-5.542,7.68-7.485c-0.384,0.072-0.768,0.117-1.151,0.117c-0.336,0-0.672-0.045-0.984-0.117
		c-2.256,2.567-4.992,5.566-7.224,7.509c-0.192,0.17-0.24,0.22-0.336,0.22s-0.145-0.05-0.145-0.194v-1.32
		c0-2.063,0.097-4.15,0.192-6.214c-0.408,0.072-0.791,0.117-1.175,0.117c-0.383,0-0.767-0.045-1.174-0.117
		c0.096,2.063,0.191,4.15,0.191,6.214v4.127C444.296,155.266,444.2,157.354,444.104,159.417"/>
	<path clip-path="url(#SVGID_2_)" d="M74.576,97.949c-3.122,4.681-6.151,8.581-9.09,11.7c-2.942,3.122-5.822,5.611-8.64,7.471
		c-2.821,1.861-5.58,3.181-8.28,3.96c-2.7,0.781-5.372,1.17-8.01,1.17c-7.681,0-13.5-1.828-17.46-5.49
		c-3.96-3.659-5.94-7.948-5.94-12.87c0-2.278,0.419-4.469,1.26-6.57c0.838-2.098,2.008-3.96,3.51-5.58
		c1.499-1.619,3.268-2.907,5.31-3.869c2.039-0.959,4.258-1.44,6.66-1.44c2.759,0,5.009,0.481,6.75,1.44
		c1.738,0.962,3.088,2.132,4.05,3.51c0.959,1.381,1.558,2.911,1.8,4.59c0.239,1.682,0.239,3.24,0,4.68
		c0.478,0.481,0.9,0.721,1.26,0.721c2.16-3.119,4.528-5.248,7.11-6.391c2.579-1.139,4.59-1.71,6.03-1.71c1.8,0,3.78,0.36,5.94,1.08
		S71.575,96.27,74.576,97.949 M186.085,120.359c-0.301-0.419-0.751-0.148-1.35,0.811c-1.201,1.921-2.52,3.811-3.96,5.67
		c-1.44,1.858-3.15,3.538-5.13,5.04c-1.98,1.499-4.32,2.7-7.02,3.6c-2.7,0.9-5.912,1.351-9.63,1.351c-4.081,0-8.581-0.9-13.5-2.7
		c-4.922-1.8-9.962-4.081-15.12-6.84c-5.161-2.76-10.322-5.851-15.48-9.271c-5.161-3.42-10.021-6.688-14.58-9.81
		c-4.562-3.119-8.702-5.94-12.42-8.46c-3.721-2.521-6.722-4.32-9-5.4c2.278-3.479,4.95-7.529,8.01-12.15
		c3.06-4.617,6.148-9.27,9.27-13.949c3.119-4.681,6.179-9.091,9.18-13.23c2.998-4.14,5.639-7.47,7.92-9.99
		c3.119-3.357,5.878-6.058,8.28-8.1c2.399-2.039,4.559-3.628,6.48-4.77c1.918-1.14,3.69-1.891,5.31-2.25
		c1.62-0.36,3.209-0.54,4.77-0.54c2.998,0,5.518,0.512,7.56,1.529c2.039,1.021,3.69,2.34,4.95,3.96s2.16,3.482,2.7,5.58
		c0.54,2.102,0.81,4.23,0.81,6.391c0,5.16-1.08,10.11-3.24,14.85c-2.16,4.742-5.102,8.91-8.82,12.51
		c-3.721,3.601-8.01,6.57-12.87,8.91s-9.99,3.752-15.39,4.23c0.239,0.359,0.689,0.72,1.35,1.079c0.658,0.36,1.229,0.603,1.71,0.721
		c3.119-0.118,6.989-1.378,11.61-3.78c4.618-2.399,9.329-5.698,14.13-9.9c2.16-1.8,4.379-3.96,6.66-6.479
		c2.278-2.521,4.348-5.22,6.21-8.1c1.859-2.881,3.389-5.851,4.59-8.91c1.198-3.061,1.8-6.089,1.8-9.09c0-5.04-1.502-9.06-4.5-12.061
		c-3.001-2.998-7.2-4.5-12.6-4.5c-3.721,0-7.262,0.571-10.62,1.71c-3.361,1.143-6.48,2.551-9.36,4.23
		c-2.88,1.682-5.49,3.45-7.83,5.31c-2.34,1.862-4.23,3.572-5.67,5.13c-3.96,3.96-7.56,8.162-10.8,12.601
		c-3.24,4.44-6.21,8.909-8.91,13.409c-2.7,4.5-5.22,8.883-7.56,13.141c-2.34,4.261-4.531,8.189-6.57,11.79
		c-2.762-1.44-5.31-2.368-7.65-2.79c-2.34-0.419-4.05-0.63-5.13-0.63c-2.281,0-4.41,0.422-6.39,1.26
		c-1.98,0.841-3.811,1.921-5.49,3.24c-0.36,0.241-0.602,0.332-0.72,0.27c-0.121-0.059-0.242-0.509-0.36-1.35
		c-0.242-2.759-1.44-5.221-3.6-7.38c-2.16-2.16-5.22-3.24-9.18-3.24c-3.721,0-7.141,0.72-10.26,2.16
		c-3.122,1.439-5.822,3.36-8.1,5.76c-2.281,2.402-4.081,5.161-5.4,8.28c-1.322,3.122-1.98,6.361-1.98,9.72
		c0,3.6,0.72,6.57,2.16,8.91s3.24,4.202,5.4,5.58c2.16,1.381,4.5,2.371,7.02,2.97s4.86,0.9,7.02,0.9
		c4.919,0,9.329-0.779,13.23-2.341c3.898-1.558,7.498-3.689,10.8-6.39c3.299-2.7,6.328-5.788,9.09-9.27
		c2.759-3.479,5.4-7.079,7.92-10.801c2.278,1.08,5.158,3.001,8.64,5.761c3.479,2.762,7.349,5.85,11.61,9.27
		c4.258,3.42,8.789,6.992,13.59,10.71c4.798,3.718,9.63,7.11,14.49,10.17c4.86,3.061,9.689,5.58,14.49,7.561
		c4.798,1.979,9.298,2.97,13.5,2.97c3.718,0,7.349-0.782,10.89-2.34c3.538-1.562,6.809-3.51,9.81-5.851
		c2.998-2.34,5.67-4.922,8.01-7.739c2.34-2.818,4.168-5.429,5.49-7.83C186.474,121.051,186.383,120.781,186.085,120.359"/>
	<path clip-path="url(#SVGID_2_)" d="M217.314,97.41c-0.242,1.682-1.111,4.08-2.61,7.199c-1.502,3.122-3.33,6.21-5.49,9.271
		c-2.16,3.06-4.441,5.731-6.84,8.01c-2.402,2.281-4.621,3.42-6.66,3.42c-1.08,0-1.772-0.36-2.07-1.08
		c-0.301-0.72-0.45-1.499-0.45-2.34c-0.121-2.759,0.45-5.67,1.71-8.729c1.26-3.061,2.669-5.909,4.23-8.551
		c1.198-2.039,2.52-4.019,3.96-5.939c1.44-1.918,2.88-3.628,4.32-5.13c1.44-1.499,2.88-2.7,4.32-3.601
		c1.44-0.899,2.818-1.35,4.14-1.35c0.478,0,0.72,0.301,0.72,0.899c0,1.322,0.059,2.7,0.18,4.141
		C216.893,95.069,217.073,96.33,217.314,97.41 M246.925,95.069c-0.54-0.238-0.931-0.059-1.17,0.54c-1.682,2.402-3.78,4.621-6.3,6.66
		c-2.52,2.042-5.341,3.061-8.46,3.061c-3.122,0-5.31-1.08-6.57-3.24c-1.26-2.16-1.89-4.919-1.89-8.28c0-2.398,0.208-4.618,0.63-6.66
		c0.419-2.039,1.049-3.718,1.89-5.04c0.239-0.478,0.18-0.81-0.18-0.989c-0.36-0.181-0.72-0.149-1.08,0.09
		c-0.481,0.242-1.021,0.422-1.62,0.54c-0.602,0.121-1.201,0.241-1.8,0.359c-1.201,0.242-2.042,0.99-2.52,2.25
		c-0.481,1.261-0.841,2.371-1.08,3.33c-3.721,0.36-7.2,1.502-10.44,3.42c-3.24,1.921-6.12,4.262-8.64,7.021
		c-1.201,1.201-2.492,2.762-3.87,4.68c-1.381,1.921-2.672,3.96-3.87,6.12c-1.201,2.16-2.191,4.382-2.97,6.66
		c-0.782,2.281-1.17,4.5-1.17,6.66c0,3.842,2.16,5.76,6.48,5.76c1.44,0,3.24-0.481,5.4-1.44c2.52-1.318,4.888-2.998,7.11-5.04
		c2.219-2.039,4.23-4.289,6.03-6.75c1.8-2.458,3.358-4.919,4.68-7.38c1.319-2.458,2.399-4.648,3.24-6.569
		c1.198,2.042,2.79,3.571,4.77,4.59c1.98,1.021,3.988,1.529,6.03,1.529c3.718,0,7.048-1.107,9.99-3.329
		c2.939-2.22,5.428-4.708,7.47-7.471C247.493,95.671,247.465,95.311,246.925,95.069"/>
	<path clip-path="url(#SVGID_2_)" d="M281.755,91.109c-2.402,3.843-4.832,7.771-7.29,11.79c-2.461,4.022-5.071,7.771-7.83,11.25
		c-1.561,1.921-3.392,3.662-5.49,5.221c-2.101,1.561-4.171,2.852-6.21,3.869c-2.042,1.021-3.991,1.801-5.85,2.341
		c-1.862,0.54-3.33,0.81-4.41,0.81c-2.88,0-4.32-1.62-4.32-4.86c0-2.398,0.54-4.978,1.62-7.739c1.08-2.76,2.368-5.49,3.87-8.19
		c1.499-2.7,3.119-5.31,4.86-7.83c1.738-2.52,3.268-4.739,4.59-6.66H281.755z M311.725,90.209c0.059-0.479-0.391-0.721-1.35-0.721
		c-2.762,0.121-6.002,0.211-9.72,0.271c-3.721,0.062-7.622,0.09-11.7,0.09c5.158-7.799,9.298-13.77,12.42-17.91
		c3.119-4.14,4.68-6.508,4.68-7.109c0-0.839-1.021-1.261-3.06-1.261c-1.322,0-2.52,0.36-3.6,1.08c-1.08,0.721-1.98,1.62-2.7,2.7
		c-0.962,1.44-2.011,3.091-3.15,4.95c-1.142,1.862-2.34,3.811-3.6,5.85c-1.26,2.042-2.492,4.05-3.69,6.03
		c-1.201,1.98-2.34,3.87-3.42,5.67h-26.46c3.358-5.04,6.809-10.198,10.35-15.479c3.538-5.279,7.47-11.099,11.79-17.46
		c0.239-0.479,0.36-0.839,0.36-1.08c0-0.479-0.301-0.721-0.9-0.721c-1.44,0-2.88,0.302-4.32,0.9c-1.44,0.602-2.582,1.502-3.42,2.7
		c-3.122,4.562-6.452,9.57-9.99,15.029c-3.541,5.463-7.051,10.772-10.53,15.931c-2.16,0-4.292-0.06-6.39-0.181
		c-2.101-0.117-4.23-0.18-6.39-0.18c-0.962,0-1.35,0.301-1.17,0.9c0.18,0.602,0.748,0.899,1.71,0.899h11.34
		c-4.202,6.362-7.861,12.122-10.98,17.28c-3.122,5.161-4.68,9.72-4.68,13.68c0,2.763,0.748,4.621,2.25,5.58
		c1.499,0.959,3.448,1.44,5.85,1.44c3.358,0,6.688-0.811,9.99-2.431c3.299-1.619,6.629-3.51,9.99-5.67c0.72-0.478,1.26-0.478,1.62,0
		c0.36,0.481,0.419,1.021,0.18,1.62c-0.841,2.042-1.561,3.991-2.16,5.851c-0.602,1.858-0.9,3.987-0.9,6.39
		c0,5.878,3.178,8.82,9.54,8.82c2.399,0,4.86-0.332,7.38-0.99c2.52-0.661,5.04-1.53,7.56-2.61s4.978-2.25,7.38-3.51
		c2.399-1.26,4.559-2.43,6.48-3.51c0.959-0.603,1.17-1.08,0.63-1.44c-0.54-0.359-0.99-0.359-1.35,0c-1.561,1.08-3.361,2.16-5.4,3.24
		c-2.042,1.08-4.171,2.098-6.39,3.06c-2.222,0.96-4.441,1.738-6.66,2.341c-2.222,0.599-4.292,0.899-6.21,0.899
		c-4.202,0-6.3-1.861-6.3-5.58c0-2.52,0.81-5.76,2.43-9.72c1.62-3.96,3.538-8.069,5.76-12.33c2.219-4.258,4.559-8.397,7.02-12.42
		c2.458-4.019,4.469-7.349,6.03-9.99c4.32,0,8.398-0.027,12.24-0.09c3.839-0.059,7.259-0.09,10.26-0.09
		C311.213,90.929,311.663,90.69,311.725,90.209"/>
	<path clip-path="url(#SVGID_2_)" d="M311.995,112.709c0.599-2.16,1.468-4.379,2.61-6.66c1.139-2.278,2.458-4.438,3.96-6.48
		c1.499-2.039,3.088-3.87,4.77-5.489c1.679-1.62,3.358-2.971,5.04-4.051c1.679-0.959,2.97-1.35,3.87-1.17
		c0.9,0.181,1.35,0.872,1.35,2.07c0,0.962-0.54,2.371-1.62,4.229c-1.08,1.862-2.582,3.812-4.5,5.851
		c-1.921,2.042-4.202,4.112-6.84,6.21C317.994,109.32,315.114,111.151,311.995,112.709 M354.115,106.409
		c-0.121-0.478-0.422-0.419-0.9,0.181c-5.4,6.601-10.921,11.34-16.56,14.22c-5.642,2.88-10.682,4.32-15.12,4.32
		c-3.482,0-6.061-0.779-7.74-2.34c-1.682-1.559-2.521-3.3-2.521-5.221v-1.62c0-0.599,0.118-1.197,0.36-1.8
		c2.278-0.959,4.888-2.398,7.83-4.319c2.939-1.918,5.76-4.02,8.46-6.301c2.7-2.277,4.978-4.59,6.84-6.93
		c1.859-2.34,2.79-4.469,2.79-6.39c0-0.721-0.27-1.409-0.81-2.07c-0.54-0.658-1.471-0.99-2.79-0.99c-0.72,0-1.651,0.152-2.79,0.45
		c-1.142,0.301-2.371,0.751-3.69,1.35c-3.482,1.801-6.961,4.473-10.44,8.011c-3.482,3.541-6.3,7.051-8.46,10.529
		c-2.88,4.441-4.32,8.46-4.32,12.061c0,3.24,1.288,5.431,3.87,6.57c2.579,1.139,5.67,1.71,9.27,1.71
		c6.238,0,12.448-1.738,18.63-5.221c6.179-3.479,12.088-8.46,17.73-14.939C354.115,107.309,354.232,106.89,354.115,106.409"/>
	<path clip-path="url(#SVGID_2_)" d="M479.935,28.649c-3.843,6.961-7.353,13.292-10.53,18.99c-3.182,5.701-6.12,11.07-8.82,16.11
		s-5.22,9.841-7.56,14.399c-2.34,4.562-4.711,9.181-7.11,13.86c-7.681-1.8-13.14-4.5-16.38-8.1c-3.24-3.601-4.86-8.46-4.86-14.58
		c0-5.878,1.8-11.099,5.4-15.66c3.6-4.56,8.159-8.52,13.68-11.88c5.519-3.358,11.489-6.12,17.91-8.28
		C468.082,31.349,474.174,29.729,479.935,28.649 M493.794,21.99c0-0.239-0.062-0.811-0.18-1.711c-0.121-0.899-0.271-1.858-0.45-2.88
		c-0.18-1.018-0.391-1.948-0.63-2.79c-0.242-0.838-0.481-1.26-0.72-1.26c-1.322,0-2.88,1.232-4.681,3.69
		c-1.8,2.461-3.6,5.372-5.399,8.729c-12.001,2.88-22.112,6.272-30.33,10.17c-8.222,3.901-14.851,7.92-19.891,12.061
		c-5.04,4.14-8.64,8.279-10.8,12.42c-2.16,4.14-3.24,7.951-3.24,11.43c0,6.362,2.459,11.281,7.381,14.76
		c4.919,3.482,11.638,5.882,20.159,7.2c-4.68,9.481-9.09,18.211-13.229,26.19c-4.14,7.979-17.055,29.731-21.734,35.492
		c-4.68,5.76-9.871,10.229-15.57,13.409c-5.7,3.179-12.51,4.771-20.43,4.771c-4.922,0-9.328-0.872-13.229-2.61
		c-3.898-1.741-7.2-3.932-9.9-6.569c-2.7-2.642-4.798-5.58-6.3-8.82c-1.499-3.24-2.353-6.302-2.25-9.18
		c0.15-4.192,1-6.56,3.386-10.912c0.242-0.6,0.086-0.721-0.36-0.9c-0.609-0.246-0.959,0.121-1.08,0.36
		c-1.198,2.398-3.781,6.594-4.826,11.992c-0.599,2.759-0.9,5.278-0.9,7.56c0,4.68,0.962,8.55,2.88,11.61
		c1.921,3.06,4.32,5.489,7.2,7.29c2.88,1.8,6.03,3.06,9.45,3.779c3.42,0.721,6.691,1.08,9.811,1.08c8.64,0,16.289-1.741,22.949-5.22
		c6.66-3.482,12.655-7.688,18.631-14.4c5.588-6.277,19.871-28.264,25.333-36.662c5.459-8.397,11.31-17.577,17.551-27.54
		c1.318,0.121,2.488,0.212,3.51,0.271c1.018,0.062,2.188,0.09,3.51,0.09c3.479,0,7.529-0.18,12.15-0.54
		c4.617-0.359,8.789-0.899,12.51-1.62c0.599-0.238,0.928-0.54,0.99-0.899c0.059-0.36-0.211-0.54-0.811-0.54
		c-4.319,0.72-8.671,1.231-13.05,1.529c-4.382,0.302-8.311,0.45-11.79,0.45c-1.201,0-2.16-0.027-2.88-0.09
		c-0.72-0.059-1.62-0.208-2.7-0.45c2.399-4.319,4.86-8.789,7.38-13.41c2.521-4.617,5.189-9.567,8.01-14.85
		c2.818-5.279,5.788-10.949,8.91-17.01c3.119-6.059,6.539-12.628,10.261-19.71c0.599-0.721,1.287-1.319,2.069-1.8
		c0.779-0.479,1.648-1.08,2.61-1.801C493.552,23.79,493.794,23.069,493.794,21.99"/>
	<path clip-path="url(#SVGID_2_)" d="M492.443,106.319c-3.662,4.981-7.47,9.392-11.43,13.23c-0.841,0.841-1.89,1.741-3.15,2.7
		c-1.26,0.962-2.371,1.439-3.33,1.439c-0.48,0-0.931-0.148-1.35-0.45c-0.422-0.298-0.63-0.81-0.63-1.529c0-2.16,0.688-4.56,2.07-7.2
		c1.378-2.638,3.028-5.22,4.949-7.74c1.918-2.52,3.809-4.798,5.67-6.84c1.859-2.039,3.33-3.538,4.41-4.5
		c2.039-1.8,4.078-3.358,6.12-4.68c2.039-1.319,4.078-1.98,6.12-1.98c0.599,0,1.018,0.062,1.26,0.18
		C499.672,95.55,496.103,101.341,492.443,106.319 M530.514,103.62c-0.36-0.299-0.72-0.149-1.08,0.449
		c-1.44,2.16-3.122,4.352-5.04,6.57c-1.921,2.222-3.901,4.32-5.94,6.3c-2.042,1.98-4.14,3.752-6.3,5.311
		c-2.16,1.561-4.202,2.82-6.12,3.779c-2.159,0.959-3.842,1.44-5.04,1.44c-3.001,0-4.5-1.918-4.5-5.76c0-2.399,0.45-5.189,1.351-8.37
		c0.899-3.178,2.039-6.418,3.42-9.72c1.378-3.3,2.908-6.509,4.59-9.631c1.679-3.118,3.299-5.818,4.86-8.1
		c0.238-0.478,0.359-0.779,0.359-0.9c0-0.117-0.359-0.778-1.08-1.979c-0.72-1.198-1.2-2.098-1.439-2.7
		c-0.481,0-0.962,0.54-1.44,1.62c-0.48,1.08-1.561,2.942-3.239,5.58c-2.281,0-4.652,0.602-7.11,1.8
		c-2.461,1.201-4.771,2.521-6.93,3.96c-3.722,2.521-7.082,5.282-10.08,8.28c-3.001,3.001-5.58,5.881-7.74,8.64
		c-2.16,2.762-3.812,5.341-4.95,7.74c-1.142,2.402-1.71,4.32-1.71,5.76c0,2.642,1.26,3.96,3.78,3.96c2.398,0,5.04-1.107,7.92-3.33
		c2.88-2.219,5.67-4.798,8.37-7.739c2.7-2.939,5.188-5.909,7.47-8.91c2.278-2.998,3.96-5.279,5.04-6.84
		c-0.841,1.561-1.741,3.42-2.7,5.579c-0.962,2.16-1.861,4.352-2.7,6.57c-0.841,2.222-1.529,4.472-2.069,6.75
		c-0.54,2.281-0.811,4.32-0.811,6.12c0,4.078,1.62,6.12,4.86,6.12c2.52,0,5.939-1.142,10.26-3.42
		c4.56-2.399,9.18-5.851,13.86-10.351c4.68-4.5,8.64-8.969,11.88-13.409C530.874,104.311,530.874,103.92,530.514,103.62"/>
	<path clip-path="url(#SVGID_2_)" d="M619.973,7.139c-0.602-1.139-1.021-1.828-1.26-2.07c-0.603-0.838-1.381-1.26-2.34-1.26
		c-1.08,0-2.521,0.242-4.32,0.72c-1.8,0.481-3.901,1.351-6.3,2.61c-2.402,1.26-5.103,3.032-8.101,5.31
		c-3.001,2.281-6.24,5.221-9.72,8.82c-7.56,7.802-14.791,16.74-21.689,26.82c-6.902,10.08-13.711,20.281-20.431,30.6
		c-2.762,4.202-5.489,8.491-8.189,12.87c-2.7,4.382-5.611,8.972-8.73,13.771c-0.48,0.12-1.26,0.241-2.34,0.359
		c-1.08,0.121-1.62,0.481-1.62,1.08c0,0.36,0.208,0.751,0.63,1.17c0.419,0.422,0.748,0.751,0.99,0.99
		c-1.682,2.762-3.361,5.49-5.04,8.19c-1.682,2.699-3.24,5.371-4.68,8.01c-0.36,0.72-0.54,1.321-0.54,1.8
		c0,0.478,0.18,0.928,0.54,1.35c0.359,0.419,0.778,0.63,1.26,0.63c0.838,0,1.679-0.72,2.52-2.159c1.319-2.399,2.639-4.799,3.961-7.2
		c1.318-2.399,2.759-4.919,4.319-7.561c2.399,3.722,4.5,7.052,6.3,9.99c1.801,2.942,3.511,5.369,5.131,7.29
		c1.619,1.918,3.178,3.389,4.68,4.41c1.499,1.018,3.088,1.53,4.77,1.53c0.959,0,1.949-0.09,2.971-0.271
		c1.018-0.18,2.008-0.57,2.97-1.17c2.16-1.201,4.289-2.79,6.39-4.77c2.099-1.98,4.05-4.078,5.851-6.301
		c1.8-2.219,3.447-4.438,4.949-6.659c1.499-2.22,2.79-4.23,3.87-6.03c0.6-0.959,0.6-1.468,0-1.53
		c-0.602-0.059-1.021,0.211-1.26,0.811c-1.682,3.122-3.811,6.331-6.39,9.63c-2.582,3.302-4.95,5.85-7.11,7.649
		c-2.281,1.918-5.04,2.88-8.28,2.88c-2.159,0-4.261-0.72-6.3-2.159c-2.042-1.44-4.021-3.24-5.939-5.4
		c-1.922-2.16-3.69-4.438-5.311-6.84c-1.62-2.399-3.091-4.5-4.41-6.3c-0.841-1.08-0.54-1.801,0.9-2.16
		c2.52-0.6,5.369-1.378,8.55-2.34c3.178-0.959,6.03-1.918,8.55-2.88c2.399-0.959,4.32-2.368,5.761-4.23
		c1.439-1.859,2.159-3.988,2.159-6.39c0-0.959-0.121-1.77-0.359-2.431c-0.242-0.657-0.661-0.989-1.26-0.989
		c-0.603,0-1.322-0.028-2.16-0.091c-0.842-0.059-1.562-0.09-2.16-0.09c-0.72,0-1.08,0.301-1.08,0.9c0,0.48,0.028,0.931,0.09,1.35
		c0.059,0.422,0.09,0.872,0.09,1.351c0,2.401-0.72,4.621-2.16,6.659c-1.439,2.042-3.541,3.601-6.3,4.681
		c-1.322,0.602-2.79,1.08-4.41,1.439c-1.62,0.36-3.271,0.721-4.949,1.08c2.398-4.438,4.888-8.758,7.47-12.96
		c2.579-4.199,5.009-8.218,7.29-12.06c6.479-10.679,12.929-20.85,19.35-30.51c6.418-9.658,13.59-18.028,21.51-25.11
		c8.641-7.799,18.959-12.42,30.96-13.86c0.839-0.238,1.261-0.54,1.261-0.899C620.873,8.97,620.571,8.281,619.973,7.139"/>
	<path clip-path="url(#SVGID_2_)" d="M602.512,94.709c0,1.921-0.48,4.202-1.439,6.84c-0.481,0-1.232,0.09-2.25,0.27
		c-1.021,0.181-1.952,0.271-2.79,0.271c-0.602,0-1.291-0.06-2.07-0.18c-0.781-0.118-1.291-0.36-1.529-0.721
		c-0.721-0.959-1.08-2.458-1.08-4.5c0-1.918,0.63-3.749,1.89-5.49c1.26-1.737,3.088-2.609,5.49-2.609c1.679,0,2.728,0.72,3.149,2.16
		C602.301,92.189,602.512,93.511,602.512,94.709 M591.532,92.189c0,0.603-0.512,1.592-1.53,2.971c-1.021,1.381-1.53,3.091-1.53,5.13
		c0,1.561,0.239,2.88,0.721,3.96c0.478,1.08,1.378,1.62,2.7,1.62c1.439-0.118,2.699-0.271,3.779-0.45
		c1.08-0.181,2.521-0.509,4.32-0.99c-0.841,2.281-2.132,4.652-3.87,7.11c-1.741,2.461-3.6,4.711-5.58,6.75
		c-1.979,2.042-3.991,3.721-6.03,5.04c-2.042,1.321-3.779,1.979-5.22,1.979c-1.682,0-2.821-0.688-3.42-2.07
		c-0.602-1.378-0.9-2.79-0.9-4.229c0-2.039,0.389-4.379,1.171-7.021c0.778-2.638,1.827-5.248,3.149-7.829
		c1.319-2.579,2.908-5.01,4.771-7.29c1.858-2.278,3.929-4.141,6.21-5.58c0.238-0.239,0.509-0.239,0.81,0
		C591.38,91.531,591.532,91.83,591.532,92.189 M628.792,93.269l-0.54-0.899c-1.921,0.841-4.05,1.71-6.39,2.609
		c-2.34,0.9-4.652,1.772-6.93,2.61c-2.281,0.841-4.441,1.561-6.48,2.16c-2.042,0.602-3.842,1.08-5.4,1.439
		c0.479-0.959,0.929-2.188,1.351-3.689c0.419-1.499,0.63-2.79,0.63-3.87c0-2.039-0.36-3.628-1.08-4.771
		c-0.72-1.139-2.461-1.71-5.22-1.71c-2.88,0-6.12,1.08-9.721,3.24c-3.6,2.16-6.991,4.86-10.17,8.1
		c-3.181,3.24-5.821,6.723-7.92,10.44c-2.101,3.721-3.149,7.2-3.149,10.44c0,2.762,0.509,4.859,1.529,6.3
		c1.019,1.439,3.209,2.16,6.57,2.16c2.759,0,5.459-0.811,8.1-2.431c2.639-1.62,5.131-3.628,7.471-6.029
		c2.34-2.399,4.438-5.01,6.3-7.83c1.859-2.818,3.33-5.429,4.41-7.83c4.199-1.319,8.668-2.939,13.41-4.86
		C620.301,96.931,624.711,95.069,628.792,93.269"/>
	<path clip-path="url(#SVGID_2_)" d="M705.472,17.49c0,4.801-2.011,10.142-6.03,16.02c-4.021,5.881-9.359,11.942-16.02,18.18
		c-6.66,6.241-14.251,12.601-22.771,19.08c-8.521,6.48-17.221,12.78-26.1,18.9c2.759-5.279,5.968-10.859,9.63-16.74
		c3.659-5.878,7.529-11.728,11.61-17.55c4.078-5.819,8.249-11.368,12.51-16.65c4.258-5.278,8.37-9.989,12.33-14.13
		c3.96-4.14,7.65-7.498,11.07-10.08c3.42-2.579,6.327-3.987,8.729-4.229C703.79,10.29,705.472,12.691,705.472,17.49 M632.932,92.729
		c0.72-0.838,1.679-1.647,2.88-2.43c1.198-0.779,2.219-1.468,3.061-2.07c0.238,1.08,0.478,2.371,0.72,3.87
		c0.239,1.502,0.478,3.001,0.72,4.5c0.239,1.502,0.509,2.911,0.811,4.23c0.298,1.321,0.63,2.461,0.989,3.42
		c0,1.561-0.57,3.42-1.71,5.58c-1.142,2.16-2.52,4.202-4.14,6.12c-1.62,1.921-3.33,3.541-5.13,4.859c-1.8,1.322-3.42,1.98-4.86,1.98
		c-0.962,0-1.65-0.36-2.069-1.08c-0.422-0.72-0.631-1.559-0.631-2.521c0-1.8,0.389-4.019,1.171-6.66
		c0.778-2.638,1.679-5.278,2.699-7.92c1.019-2.638,2.07-5.067,3.15-7.29C631.672,95.1,632.451,93.57,632.932,92.729 M711.952,11.91
		c0-2.399-0.36-4.168-1.08-5.311c-0.721-1.139-2.16-1.71-4.32-1.71c-2.762,0-6.182,1.351-10.26,4.05
		c-4.081,2.7-8.522,6.362-13.32,10.98c-4.801,4.621-9.81,9.931-15.03,15.93c-5.22,6.002-10.35,12.302-15.39,18.9
		c-5.04,6.601-9.841,13.319-14.4,20.16c-4.562,6.84-8.55,13.319-11.97,19.439s-6.151,11.7-8.189,16.74
		c-2.042,5.04-3.061,9.121-3.061,12.24c0,1.921,0.54,3.149,1.62,3.689s1.98,0.811,2.7,0.811c1.439,0,3.268-0.54,5.49-1.62
		c2.219-1.08,4.469-2.489,6.75-4.23c2.277-1.737,4.409-3.749,6.39-6.029c1.979-2.278,3.51-4.681,4.59-7.2
		c0.479-1.198,0.838-1.319,1.08-0.36c0.239,1.08,0.838,2.042,1.8,2.88c0.959,0.841,2.278,1.26,3.96,1.26
		c1.319,0,3.029-0.328,5.13-0.989c2.099-0.658,4.289-1.589,6.57-2.79c2.278-1.198,4.559-2.548,6.84-4.05
		c2.278-1.499,4.32-3.089,6.12-4.771c0.599-0.599,0.72-0.959,0.36-1.08c-0.36-0.118-0.841,0.121-1.44,0.72
		c-3.481,2.881-6.902,5.192-10.26,6.931c-3.361,1.741-6.182,2.609-8.46,2.609c-2.521,0-4.441-1.979-5.76-5.939
		c-1.322-3.96-2.16-8.641-2.521-14.04c-0.121-1.198-0.422-1.8-0.899-1.8c-0.36,0-0.782,0.062-1.261,0.18
		c-0.48,0.121-1.921,0.242-4.319,0.36c9.599-6.72,18.748-13.56,27.449-20.521c8.699-6.958,16.408-13.77,23.131-20.43
		c6.719-6.66,12.06-12.96,16.02-18.9C709.972,22.08,711.952,16.71,711.952,11.91"/>
</g>
</svg>
