<?xml version="1.0" encoding="utf-8"?>
<!-- Generator: Adobe Illustrator 15.1.0, SVG Export Plug-In . SVG Version: 6.00 Build 0)  -->
<!DOCTYPE svg PUBLIC "-//W3C//DTD SVG 1.1//EN" "http://www.w3.org/Graphics/SVG/1.1/DTD/svg11.dtd">
<svg version="1.1" id="Ebene_1" xmlns="http://www.w3.org/2000/svg" xmlns:xlink="http://www.w3.org/1999/xlink" x="0px" y="0px"
	 width="60px" height="211px" viewBox="0 0 60 211" enable-background="new 0 0 60 211" xml:space="preserve">
<path fill="#7F7A4C" d="M26.229,208.641c-0.608,0.6-1.199,0.91-1.748,0.91c-0.76,0-0.916-0.725-0.916-1.371
	c0-0.117,0-0.217,0.018-0.34c1.247-0.305,3.215-0.998,3.215-2.154c0-0.533-0.433-0.965-1.066-0.965
	c-0.529,0-1.163,0.279-1.709,0.699c-0.899,0.686-1.398,1.932-1.398,3.08c0,1.404,0.759,1.713,1.304,1.713
	c0.539,0,1.417-0.189,2.502-1.334L26.229,208.641L26.229,208.641z M25.275,205.203c0.361,0,0.624,0.236,0.609,0.636
	c0,0.635-0.493,1.172-2.251,1.635c0.211-1.365,0.814-1.957,1.082-2.106c0.162-0.099,0.355-0.162,0.549-0.162h0.011V205.203z"/>
<path fill="#7F7A4C" d="M27.988,210.213c0.356,0,0.701-0.264,0.701-0.746c0-0.371-0.248-0.654-0.595-0.654
	c-0.411,0-0.706,0.32-0.706,0.762c0,0.373,0.244,0.64,0.588,0.64L27.988,210.213L27.988,210.213z"/>
<path fill="#7F7A4C" d="M30.598,202.35l-0.067,0.27c0.768,0.109,0.834,0.195,1.029,1.181c0.252,1.28,0.781,4.215,1.137,6.393h0.344
	c1.354-2.532,3.154-5.68,3.602-6.385c0.609-0.959,0.728-1.094,1.48-1.188l0.062-0.27H35.53l-0.068,0.27l0.383,0.058
	c0.537,0.084,0.574,0.235,0.252,0.963c-0.463,1.037-1.744,3.33-2.717,5.065h-0.022c-0.388-2.104-0.859-4.59-0.962-5.33
	c-0.071-0.514-0.012-0.614,0.509-0.698l0.338-0.058l0.065-0.27H30.598L30.598,202.35z"/>
<path fill="#7F7A4C" d="M36.03,210.213c0.355,0,0.701-0.264,0.701-0.746c0-0.371-0.248-0.654-0.594-0.654
	c-0.41,0-0.707,0.32-0.707,0.762c0,0.373,0.244,0.64,0.588,0.64L36.03,210.213L36.03,210.213z"/>
<path fill="#7F7A4C" d="M5.457,194.203c0.118,0.683,0.229,1.375,0.305,1.896c0.065,0.467,0.013,0.604-0.852,0.703l-0.068,0.271
	h2.771l0.068-0.271c-0.789-0.093-0.887-0.183-1.04-1.011c-0.259-1.396-0.516-2.911-0.767-4.43l-0.357-2.186l-0.315,0.09
	l-3.525,6.338c-0.548,0.982-0.721,1.092-1.409,1.197L0.2,197.07h2.575l0.063-0.27c-0.912-0.08-0.975-0.23-0.655-0.955
	c0.211-0.486,0.625-1.328,0.805-1.643H5.457L5.457,194.203z M3.234,193.732c0.498-1.004,1.037-1.975,1.636-3.062h0.024l0.487,3.062
	H3.234L3.234,193.732z"/>
<path fill="#7F7A4C" d="M11.739,195.717c-0.362,0.299-0.955,0.83-1.658,0.83c-0.546,0-0.831-0.482-0.825-1.293
	c0.005-0.894,0.248-1.689,0.546-2.228c0.287-0.508,0.604-0.758,1.001-0.758c0.365,0,0.642,0.17,0.854,0.47
	c0.101,0.147,0.252,0.174,0.422,0.055c0.201-0.146,0.315-0.312,0.316-0.492c0-0.277-0.377-0.58-0.871-0.58
	c-0.669,0-1.479,0.432-1.983,0.871c-0.844,0.74-1.241,1.971-1.241,2.949c0,1.067,0.466,1.672,1.211,1.672
	c0.711,0,1.609-0.453,2.397-1.269L11.739,195.717L11.739,195.717z"/>
<path fill="#7F7A4C" d="M17.242,192.025c-0.113,0.664-0.307,1.57-0.464,2.061c-0.124,0.354-0.365,0.742-0.935,1.347
	c-0.582,0.625-1.075,1.049-1.42,1.049c-0.27,0-0.323-0.271-0.199-0.897c0.189-0.98,0.507-2.123,0.707-2.898
	c0.176-0.682,0.048-0.963-0.167-0.963c-0.322,0-1.09,0.418-1.727,1.029l0.137,0.229c0.318-0.266,0.723-0.467,0.824-0.467
	c0.085,0,0.129,0.09,0.029,0.463c-0.303,1.176-0.494,1.93-0.657,2.688c-0.293,1.332,0.143,1.552,0.463,1.552
	c0.332,0,0.629-0.15,0.989-0.4c0.669-0.471,1.288-1.141,1.769-1.735h0.024c-0.048,0.192-0.116,0.506-0.229,0.979
	c-0.233,0.985,0,1.156,0.195,1.156c0.327,0,1.081-0.451,1.717-1.039l-0.155-0.236c-0.308,0.261-0.748,0.484-0.849,0.484
	c-0.088,0-0.118-0.107-0.054-0.445c0.267-1.508,0.614-2.875,0.979-4.256h-0.173L17.242,192.025L17.242,192.025z"/>
<path fill="#7F7A4C" d="M21.613,192.184c0.777,0,1.311,0.291,1.311,1.387c0,1.596-1.048,3.119-1.947,3.119
	c-0.372,0-0.657-0.195-0.782-0.377c0.263-1.445,0.542-2.799,0.815-4.041c0.196-0.059,0.403-0.088,0.591-0.088H21.613L21.613,192.184
	z M21.339,190.963l-0.136-0.07c-0.248,0.158-0.61,0.416-0.901,0.674l-0.13,0.541c-0.322,0.123-0.795,0.332-1.157,0.57l0.108,0.277
	c0.299-0.185,0.602-0.326,0.958-0.424c-0.389,2.049-0.815,4.182-1.301,6.37c-0.164,0.738-0.229,0.822-1,0.962l-0.004,0.247
	l2.775-0.143l0.002-0.248l-0.314-0.027c-0.653-0.051-0.703-0.146-0.575-0.858c0.116-0.687,0.221-1.199,0.335-1.729
	c0.23,0.084,0.496,0.106,0.683,0.106c0.755-0.19,1.597-0.702,2.202-1.36c0.677-0.756,1.016-1.69,1.016-2.435
	c0-1.051-0.529-1.696-1.802-1.696c-0.144,0-0.325,0.019-0.513,0.047c-0.157,0.022-0.315,0.062-0.464,0.103L21.339,190.963
	L21.339,190.963z"/>
<path fill="#7F7A4C" d="M29.075,192.025c-0.113,0.664-0.307,1.57-0.464,2.061c-0.124,0.354-0.365,0.742-0.935,1.347
	c-0.582,0.625-1.075,1.049-1.42,1.049c-0.271,0-0.323-0.271-0.2-0.897c0.19-0.98,0.507-2.123,0.708-2.898
	c0.175-0.682,0.047-0.963-0.167-0.963c-0.322,0-1.091,0.418-1.726,1.029l0.137,0.229c0.318-0.266,0.723-0.467,0.824-0.467
	c0.084,0,0.129,0.09,0.028,0.463c-0.303,1.176-0.494,1.93-0.657,2.688c-0.293,1.332,0.143,1.552,0.463,1.552
	c0.331,0,0.628-0.15,0.988-0.4c0.669-0.471,1.288-1.141,1.769-1.735h0.024c-0.048,0.192-0.115,0.506-0.229,0.979
	c-0.233,0.985,0,1.156,0.195,1.156c0.327,0,1.081-0.451,1.718-1.039l-0.156-0.236c-0.308,0.261-0.747,0.484-0.849,0.484
	c-0.087,0-0.118-0.107-0.054-0.445c0.267-1.508,0.614-2.875,0.979-4.256h-0.173L29.075,192.025L29.075,192.025z"/>
<path fill="#7F7A4C" d="M31.901,196.941c0.123-0.715,0.371-1.816,0.559-2.283c0.166-0.426,0.502-0.836,0.973-1.299
	c0.605-0.58,1.119-0.947,1.396-0.947c0.259-0.004,0.285,0.25,0.14,0.861c-0.234,1.016-0.515,2.012-0.728,2.783
	c-0.229,0.818-0.121,1.156,0.146,1.156c0.273,0,1.099-0.391,1.763-1.008L36,195.973c-0.358,0.293-0.758,0.449-0.854,0.449
	c-0.104,0-0.121-0.125-0.021-0.523c0.263-1.006,0.505-1.979,0.703-2.725c0.36-1.309-0.084-1.453-0.297-1.453
	c-0.224,0-0.429,0.068-0.752,0.24c-0.488,0.25-1.379,0.863-2.228,1.891h-0.022l0.185-0.711c0.248-0.982,0.229-1.42-0.074-1.42
	c-0.277,0-1.023,0.438-1.656,1.051l0.148,0.219c0.27-0.248,0.655-0.457,0.778-0.457c0.101,0,0.11,0.131,0.022,0.568
	c-0.307,1.434-0.649,2.822-0.977,4.012l0.127,0.101L31.901,196.941L31.901,196.941z"/>
<path fill="#7F7A4C" d="M40.435,195.717c-0.363,0.299-0.955,0.83-1.658,0.83c-0.547,0-0.83-0.482-0.826-1.293
	c0.006-0.894,0.248-1.689,0.547-2.228c0.287-0.508,0.604-0.758,1-0.758c0.365,0,0.643,0.17,0.855,0.47
	c0.1,0.147,0.252,0.174,0.422,0.055c0.201-0.146,0.316-0.312,0.316-0.492c0-0.277-0.377-0.58-0.871-0.58
	c-0.668,0-1.48,0.432-1.984,0.871c-0.844,0.74-1.24,1.971-1.24,2.949c0,1.067,0.467,1.672,1.211,1.672
	c0.711,0,1.609-0.453,2.396-1.269L40.435,195.717L40.435,195.717z"/>
<path fill="#7F7A4C" d="M42.749,192.381c-0.258,1.152-0.523,2.295-0.742,3.352c-0.233,1.139,0.002,1.48,0.236,1.48
	c0.512,0,1.527-0.775,1.908-1.184l-0.168-0.209c-0.244,0.229-0.824,0.608-1.047,0.608c-0.148,0-0.182-0.172-0.082-0.713
	c0.236-1.244,0.477-2.265,0.742-3.337l1.17-0.063l0.311-0.377h-1.379c0.123-0.446,0.268-0.981,0.432-1.487l-0.152-0.076
	l-0.897,0.731c-0.082,0.272-0.151,0.574-0.221,0.832h-0.734l-0.305,0.324l0.045,0.116h0.884V192.381z"/>
<path fill="#7F7A4C" d="M49.556,192.025c-0.113,0.664-0.308,1.57-0.465,2.061c-0.123,0.354-0.365,0.742-0.935,1.347
	c-0.582,0.625-1.076,1.049-1.42,1.049c-0.271,0-0.324-0.271-0.199-0.897c0.188-0.98,0.506-2.123,0.705-2.898
	c0.176-0.682,0.049-0.963-0.166-0.963c-0.321,0-1.09,0.418-1.728,1.029l0.138,0.229c0.317-0.266,0.723-0.467,0.823-0.467
	c0.084,0,0.129,0.09,0.029,0.463c-0.305,1.176-0.494,1.93-0.658,2.688c-0.293,1.332,0.144,1.552,0.463,1.552
	c0.332,0,0.63-0.15,0.99-0.4c0.668-0.471,1.287-1.141,1.769-1.735h0.022c-0.047,0.192-0.115,0.506-0.229,0.979
	c-0.232,0.985,0,1.156,0.195,1.156c0.328,0,1.082-0.451,1.719-1.039l-0.156-0.236c-0.307,0.261-0.746,0.484-0.85,0.484
	c-0.086,0-0.117-0.107-0.053-0.445c0.266-1.508,0.612-2.875,0.979-4.256h-0.17L49.556,192.025L49.556,192.025z"/>
<path fill="#7F7A4C" d="M52.411,196.941c0.09-0.719,0.281-1.719,0.465-2.256c0.232-0.672,0.525-1.174,0.773-1.529
	c0.277-0.377,0.459-0.486,0.594-0.486c0.137,0,0.24,0.054,0.359,0.169c0.08,0.067,0.193,0.088,0.299,0.012
	c0.125-0.084,0.244-0.217,0.32-0.36c0.08-0.142,0.086-0.318,0.004-0.461c-0.099-0.171-0.31-0.308-0.539-0.308
	c-0.404,0-1.139,0.808-1.74,2.058h-0.033l0.148-0.685c0.211-0.949,0.141-1.373-0.148-1.373c-0.273,0-0.986,0.455-1.617,1.024
	l0.15,0.234c0.283-0.252,0.68-0.457,0.818-0.457c0.11,0,0.115,0.15,0.01,0.838c-0.115,0.664-0.238,1.295-0.387,1.93
	c-0.144,0.636-0.279,1.261-0.418,1.822l0.114,0.1L52.411,196.941L52.411,196.941z"/>
<path fill="#7F7A4C" d="M58.808,195.641c-0.607,0.6-1.197,0.91-1.748,0.91c-0.76,0-0.916-0.725-0.916-1.371
	c0-0.117,0-0.217,0.02-0.34c1.246-0.305,3.215-0.998,3.215-2.154c0-0.533-0.434-0.965-1.066-0.965c-0.528,0-1.161,0.279-1.711,0.699
	c-0.897,0.686-1.396,1.932-1.396,3.08c0,1.404,0.761,1.713,1.304,1.713c0.539,0,1.418-0.189,2.504-1.334L58.808,195.641
	L58.808,195.641z M57.853,192.203c0.361,0,0.623,0.236,0.609,0.636c0,0.635-0.494,1.172-2.253,1.635
	c0.212-1.365,0.814-1.957,1.082-2.106c0.162-0.099,0.354-0.162,0.55-0.162h0.012V192.203z"/>
<path fill="#7F7A4C" d="M19.479,179.363c0.047-0.584,0.066-1.229,0.104-1.869c-0.34-0.1-1.007-0.319-1.958-0.319
	c-2.739,0-4.983,1.866-4.983,4.719c0,2.211,1.429,3.354,3.335,3.354c0.904,0,1.748-0.215,2.127-0.299
	c0.263-0.4,0.687-1.339,0.91-1.9l-0.297-0.104c-0.68,1.084-1.422,1.915-2.711,1.913c-1.539,0-2.263-1.307-2.263-3.036
	c0-2.203,1.406-4.271,3.533-4.271c1.193,0,1.852,0.448,1.897,1.834L19.479,179.363L19.479,179.363z"/>
<path fill="#7F7A4C" d="M24.755,183.969c-0.348,0.277-0.726,0.451-0.847,0.451c-0.095,0-0.114-0.113-0.02-0.51
	c0.241-1.029,0.482-2,0.643-2.605c0.393-1.426-0.105-1.584-0.327-1.584c-0.18,0-0.401,0.066-0.726,0.221
	c-0.51,0.254-1.416,0.895-2.182,1.822h-0.024c0.333-1.627,0.673-3.195,1.035-4.75c0.073-0.285,0.091-0.455-0.063-0.455
	c-0.15,0-0.899,0.328-1.728,0.412l-0.006,0.248l0.343,0.006c0.465,0.01,0.52,0.064,0.414,0.613c-0.38,1.875-0.771,3.715-1.113,5.322
	c-0.167,0.778-0.338,1.444-0.455,1.967l0.124,0.086l0.824-0.271c0.095-0.713,0.366-2.014,0.522-2.348
	c0.188-0.402,0.564-0.887,1.025-1.316c0.568-0.529,1.077-0.865,1.325-0.865c0.275,0,0.289,0.353,0.166,0.902
	c-0.216,0.961-0.463,1.916-0.692,2.744c-0.213,0.771-0.117,1.154,0.136,1.154c0.278,0,1.146-0.418,1.791-1.006L24.755,183.969
	L24.755,183.969z"/>
<path fill="#7F7A4C" d="M27.912,183.904c-0.299,0.234-0.788,0.519-0.914,0.519c-0.09,0-0.119-0.107-0.018-0.517
	c0.255-1.094,0.546-2.188,0.799-3.084c0.198-0.699,0.17-1.102-0.086-1.102c-0.342,0-1.194,0.496-1.826,1.037l0.121,0.234
	c0.307-0.234,0.766-0.479,0.893-0.479c0.092,0,0.107,0.101,0.005,0.498c-0.325,1.2-0.573,2.229-0.759,2.967
	c-0.269,1.065-0.034,1.233,0.138,1.233c0.364,0,1.436-0.698,1.798-1.088L27.912,183.904L27.912,183.904z M27.894,176.986
	c-0.454,0-0.683,0.393-0.683,0.703c0.024,0.277,0.212,0.467,0.526,0.467c0.389,0,0.695-0.313,0.675-0.682
	c-0.004-0.246-0.165-0.488-0.506-0.488H27.894L27.894,176.986z"/>
<path fill="#7F7A4C" d="M29.88,184.941c0.123-0.715,0.373-1.816,0.561-2.283c0.164-0.426,0.5-0.836,0.973-1.299
	c0.604-0.58,1.119-0.947,1.394-0.947c0.258-0.004,0.285,0.25,0.139,0.861c-0.234,1.016-0.514,2.012-0.727,2.783
	c-0.228,0.818-0.121,1.156,0.147,1.156c0.271,0,1.097-0.391,1.763-1.008l-0.148-0.232c-0.359,0.293-0.76,0.449-0.857,0.449
	c-0.104,0-0.119-0.125-0.02-0.523c0.262-1.006,0.506-1.979,0.703-2.725c0.36-1.309-0.082-1.453-0.297-1.453
	c-0.224,0-0.429,0.068-0.752,0.24c-0.486,0.25-1.379,0.863-2.228,1.891h-0.023l0.185-0.711c0.25-0.982,0.232-1.42-0.074-1.42
	c-0.275,0-1.023,0.438-1.655,1.051l0.149,0.219c0.268-0.248,0.654-0.457,0.778-0.457c0.099,0,0.111,0.131,0.021,0.568
	c-0.306,1.434-0.649,2.822-0.976,4.012l0.127,0.101L29.88,184.941L29.88,184.941z"/>
<path fill="#7F7A4C" d="M38.636,183.641c-0.606,0.6-1.199,0.91-1.748,0.91c-0.76,0-0.916-0.725-0.916-1.371
	c0-0.117,0-0.217,0.019-0.34c1.248-0.305,3.215-0.998,3.215-2.154c0-0.533-0.432-0.965-1.065-0.965
	c-0.527,0-1.162,0.279-1.709,0.699c-0.898,0.686-1.396,1.932-1.396,3.08c0,1.404,0.758,1.713,1.303,1.713
	c0.539,0,1.418-0.189,2.504-1.334L38.636,183.641L38.636,183.641z M37.681,180.203c0.36,0,0.623,0.236,0.608,0.636
	c0,0.635-0.493,1.172-2.252,1.635c0.211-1.365,0.813-1.957,1.082-2.106c0.162-0.099,0.354-0.162,0.549-0.162h0.013V180.203z"/>
<path fill="#7F7A4C" d="M42.179,179.721c-0.436,0-1.014,0.279-1.379,0.605c-0.459,0.42-0.576,0.817-0.576,1.184
	c0,0.555,0.506,0.924,1.047,1.273c0.578,0.381,0.728,0.707,0.728,1.082c0,0.506-0.353,0.782-0.784,0.782
	c-0.39,0.004-0.785-0.225-1.103-0.644c-0.084-0.11-0.207-0.145-0.365-0.053c-0.213,0.121-0.332,0.299-0.33,0.517
	c0.017,0.385,0.679,0.743,1.179,0.743c1.09,0,2.141-0.903,2.141-1.877c0-0.514-0.24-0.862-0.979-1.334
	c-0.455-0.295-0.818-0.582-0.818-1.012c0-0.395,0.244-0.725,0.635-0.725c0.443,0,0.732,0.25,0.924,0.527
	c0.072,0.102,0.221,0.104,0.363-0.015c0.162-0.133,0.227-0.288,0.236-0.444c0.012-0.301-0.416-0.613-0.904-0.613h-0.014V179.721z"/>
<path fill="#7F7A4C" d="M47.384,183.641c-0.606,0.6-1.199,0.91-1.748,0.91c-0.762,0-0.916-0.725-0.916-1.371
	c0-0.117,0-0.217,0.019-0.34c1.246-0.305,3.215-0.998,3.215-2.154c0-0.533-0.435-0.965-1.065-0.965
	c-0.529,0-1.162,0.279-1.709,0.699c-0.898,0.686-1.398,1.932-1.398,3.08c0,1.404,0.76,1.713,1.305,1.713
	c0.539,0,1.416-0.189,2.502-1.334L47.384,183.641L47.384,183.641z M46.429,180.203c0.359,0,0.623,0.236,0.607,0.636
	c0,0.635-0.492,1.172-2.252,1.635c0.213-1.365,0.814-1.957,1.082-2.106c0.162-0.099,0.355-0.162,0.551-0.162h0.012V180.203z"/>
<path fill="#7F7A4C" d="M8.122,169.203c0.118,0.685,0.229,1.375,0.305,1.896c0.064,0.467,0.013,0.604-0.852,0.703l-0.068,0.271
	h2.771l0.068-0.271c-0.79-0.093-0.887-0.183-1.04-1.011c-0.259-1.396-0.516-2.911-0.767-4.43l-0.357-2.186l-0.315,0.092
	l-3.525,6.336c-0.548,0.982-0.721,1.092-1.409,1.197l-0.068,0.27H5.44l0.063-0.27c-0.911-0.08-0.975-0.23-0.655-0.955
	c0.211-0.486,0.626-1.328,0.805-1.643H8.122L8.122,169.203z M5.899,168.732c0.499-1.004,1.037-1.975,1.637-3.062H7.56l0.486,3.062
	H5.899L5.899,168.732z"/>
<path fill="#7F7A4C" d="M14.405,170.717c-0.363,0.299-0.956,0.83-1.659,0.83c-0.546,0-0.831-0.482-0.825-1.293
	c0.005-0.894,0.247-1.689,0.546-2.228c0.287-0.508,0.603-0.758,1-0.758c0.365,0,0.642,0.17,0.855,0.47
	c0.101,0.147,0.252,0.174,0.422,0.055c0.2-0.146,0.315-0.312,0.316-0.492c0-0.277-0.377-0.58-0.871-0.58
	c-0.669,0-1.48,0.432-1.984,0.871c-0.844,0.74-1.241,1.971-1.241,2.951c0,1.065,0.466,1.67,1.211,1.67
	c0.71,0,1.609-0.453,2.397-1.269L14.405,170.717L14.405,170.717z"/>
<path fill="#7F7A4C" d="M19.018,166.721c-0.755,0-1.612,0.402-2.292,0.973c-0.765,0.639-1.356,1.994-1.356,3.209
	c0,0.965,0.404,1.312,0.721,1.312c0.346,0,0.695-0.232,1.087-0.537c0.544-0.435,1.139-1.047,1.565-1.604h0.029l-0.228,1.033
	c-0.211,0.957,0.009,1.107,0.179,1.107c0.273,0,1.042-0.424,1.703-1.031l-0.148-0.232c-0.306,0.246-0.697,0.479-0.839,0.479
	c-0.078,0-0.113-0.082-0.061-0.402c0.28-1.643,0.659-3.307,0.854-4.096l-0.052-0.049c-0.11,0.002-0.281-0.033-0.433-0.07
	c-0.25-0.049-0.481-0.09-0.718-0.09L19.018,166.721L19.018,166.721z M18.501,167.205c0.333,0,0.635,0.063,0.8,0.143
	c-0.065,0.445-0.281,1.486-0.442,1.926c-0.196,0.41-0.506,0.82-0.932,1.277c-0.468,0.49-0.97,0.924-1.227,0.924
	c-0.219,0-0.345-0.287-0.345-0.777c0-0.604,0.145-1.447,0.447-2.106c0.314-0.685,0.644-1.002,0.917-1.179
	c0.19-0.112,0.47-0.207,0.771-0.207H18.501L18.501,167.205z"/>
<path fill="#7F7A4C" d="M26.28,170.961c-0.293,0.244-0.69,0.461-0.818,0.461c-0.094,0-0.124-0.086-0.049-0.516
	c0.328-1.875,0.9-4.611,1.44-6.886c0.083-0.338,0.069-0.463-0.05-0.463c-0.166,0-0.845,0.308-1.818,0.412l-0.004,0.252l0.409,0.006
	c0.484,0.004,0.531,0.062,0.438,0.565c-0.123,0.685-0.249,1.289-0.415,1.992c-0.316-0.061-0.526-0.065-0.67-0.065
	c-0.594,0-1.607,0.459-2.144,0.918c-0.876,0.762-1.411,2.043-1.411,3.201c0,0.93,0.393,1.372,0.814,1.372
	c0.374,0,0.763-0.241,1.211-0.586c0.446-0.356,1.001-0.877,1.534-1.543h0.024l-0.218,0.976c-0.211,0.967,0.001,1.153,0.204,1.153
	c0.288,0,1.06-0.44,1.682-1.024L26.28,170.961L26.28,170.961z M24.384,167.211c0.398,0,0.73,0.104,0.889,0.197
	c-0.144,0.813-0.386,1.819-0.581,2.17c-0.248,0.397-0.537,0.723-0.945,1.131c-0.493,0.502-0.916,0.768-1.184,0.768
	c-0.23,0-0.39-0.264-0.39-0.85c0-0.709,0.213-1.642,0.553-2.254c0.281-0.508,0.535-0.773,0.747-0.908
	c0.233-0.143,0.495-0.254,0.899-0.254H24.384L24.384,167.211z"/>
<path fill="#7F7A4C" d="M30.825,170.641c-0.607,0.6-1.2,0.91-1.75,0.91c-0.76,0-0.916-0.725-0.916-1.371c0-0.117,0-0.217,0.018-0.34
	c1.247-0.305,3.216-0.998,3.216-2.154c0-0.533-0.432-0.965-1.067-0.965c-0.529,0-1.162,0.279-1.708,0.699
	c-0.899,0.686-1.398,1.932-1.398,3.08c0,1.404,0.76,1.713,1.304,1.713c0.539,0,1.417-0.189,2.504-1.334L30.825,170.641
	L30.825,170.641z M29.869,167.203c0.362,0,0.624,0.236,0.608,0.636c0,0.635-0.492,1.172-2.251,1.635
	c0.212-1.365,0.814-1.957,1.082-2.106c0.162-0.099,0.355-0.162,0.549-0.162h0.012V167.203z"/>
<path fill="#7F7A4C" d="M33.155,171.941c0.127-0.711,0.359-1.795,0.535-2.24c0.182-0.465,0.506-0.926,0.971-1.385
	c0.547-0.539,1.059-0.902,1.344-0.902c0.244,0,0.238,0.345,0.096,1.054c-0.243,1.161-0.713,2.896-0.934,3.646l0.117,0.101
	l0.85-0.271c0.133-0.717,0.381-1.766,0.531-2.204c0.15-0.437,0.494-0.896,0.945-1.365c0.559-0.58,1.096-0.951,1.377-0.957
	c0.246-0.006,0.258,0.279,0.133,0.803c-0.234,1.062-0.545,2.107-0.742,2.861c-0.209,0.77-0.115,1.135,0.143,1.135
	c0.271,0,1.109-0.432,1.765-1.055l-0.149-0.218c-0.371,0.293-0.746,0.48-0.847,0.48s-0.125-0.125-0.022-0.496
	c0.27-1.033,0.516-2.007,0.703-2.736c0.34-1.327-0.074-1.469-0.275-1.469s-0.414,0.062-0.727,0.226
	c-0.498,0.26-1.354,0.848-2.115,1.78h-0.023l0.098-0.399c0.318-1.324,0.023-1.605-0.271-1.605c-0.194,0-0.429,0.084-0.703,0.234
	c-0.541,0.283-1.41,0.91-2.116,1.801h-0.025L34,168.02c0.22-0.855,0.187-1.297-0.108-1.297c-0.299,0-1.105,0.461-1.705,1.043
	l0.152,0.24c0.248-0.234,0.694-0.48,0.827-0.48c0.084,0,0.123,0.119,0.013,0.654c-0.312,1.377-0.642,2.709-0.963,3.936l0.123,0.101
	L33.155,171.941L33.155,171.941z"/>
<path fill="#7F7A4C" d="M41.165,168.143c0.297-0.371,0.605-0.615,0.748-0.615c0.121,0,0.193,0.199,0.312,0.891
	c0.147,0.839,0.354,2.726,0.356,3.701c-0.575,0.838-1.776,1.965-3.215,2.854l0.104,0.265l1.353-0.328
	c0.858-0.832,1.629-1.836,2.34-2.832c0.609-0.861,1.649-2.539,2.203-3.488c0.289-0.518,0.438-0.906,0.438-1.238
	c0-0.369-0.217-0.629-0.525-0.629c-0.352,0-0.586,0.348-0.494,0.623c0.061,0.166,0.117,0.34,0.111,0.602
	c-0.004,0.404-0.184,0.91-0.521,1.535c-0.348,0.646-0.696,1.199-1.022,1.68h-0.023c-0.07-1.176-0.174-2.188-0.309-3.084
	c-0.137-0.885-0.305-1.354-0.637-1.354c-0.396,0-1.015,0.683-1.396,1.17L41.165,168.143L41.165,168.143z"/>
<path fill="#7F7A4C" d="M51.876,166.721c-0.371,0-0.848,0.146-1.328,0.402c-0.945,0.521-1.723,1.674-1.723,3.295
	c0,0.883,0.422,1.795,1.523,1.795c0.672,0,1.312-0.332,1.817-0.758c0.824-0.689,1.281-1.883,1.281-2.929
	c0-1.127-0.56-1.807-1.562-1.807L51.876,166.721L51.876,166.721z M51.501,167.156c0.609,0,0.969,0.433,0.969,1.406
	c0.021,1.596-0.621,2.854-1.271,3.125c-0.123,0.051-0.248,0.09-0.399,0.09c-0.677,0-0.972-0.615-0.972-1.5
	c0-1.816,0.754-2.813,1.209-3.014c0.119-0.059,0.279-0.107,0.453-0.107H51.501L51.501,167.156z"/>
<path fill="#7F7A4C" d="M55.222,167.381c-0.162,1.143-0.312,2.139-0.558,3.732c-0.379,2.395-0.668,2.979-0.868,3.147
	c-0.101,0.094-0.253,0.149-0.406,0.149c-0.195,0-0.435-0.086-0.588-0.18c-0.146-0.076-0.283,0.029-0.361,0.109
	c-0.113,0.111-0.244,0.285-0.246,0.426c0,0.26,0.357,0.383,0.637,0.383c0.23,0,0.779-0.188,1.322-0.809
	c0.473-0.525,1.045-1.703,1.545-4.385c0.133-0.674,0.236-1.242,0.447-2.558l1.164-0.123l0.227-0.338h-1.307
	c0.33-2.205,0.65-2.791,1.178-2.791c0.318,0,0.596,0.136,0.84,0.365c0.09,0.09,0.242,0.096,0.361,0.002
	c0.117-0.093,0.252-0.274,0.254-0.438c0.012-0.246-0.314-0.52-0.744-0.52c-0.627,0-1.311,0.418-1.855,1.029
	c-0.498,0.567-0.801,1.461-0.961,2.352h-0.725l-0.342,0.289l0.047,0.152h0.939V167.381z"/>
<path fill="#A7A692" d="M52.126,0.227c0.191,0.085,0.426,0.128,0.574,0.276c0.17,0.319,0.105,0.829,0.615,0.829
	c0.426-0.191,1.021,0.021,1.404-0.234c0.34,0.042,0.701-0.021,1.041,0.106c0.34,0.234,0.254,0.723,0.657,0.85
	c0.084,0.276,0.234,0.531,0.234,0.829c0.021,0.213-0.021,0.383-0.043,0.595c-0.234,0.17-0.427,0.425-0.701,0.446
	c-0.34,0.446-0.914,0.574-1.444,0.574c-0.597-0.255-0.894-1.041-1.615-0.956C52.552,3.649,52.19,3.691,51.913,3.5
	c-0.742-0.021-1.381-0.17-2.039-0.319c-1.148-0.085-2.381,0.042-3.4-0.319c-0.403-0.127-0.787,0.191-1.211,0.212
	c-0.147,0.319-0.403-0.021-0.639,0.17c-0.551,0.085-0.998-0.233-1.572-0.191c-0.104-0.127-0.231,0.021-0.34,0.021
	c-0.232,0.064-0.402-0.191-0.615-0.021c-0.723,0.063-1.444,0.17-2.168,0.191c-0.51-0.106-1.084,0.043-1.571,0.191
	c-0.277-0.021-0.617-0.212-0.828,0.042c-0.213-0.148-0.404,0.064-0.64,0.042c-0.317-0.318-0.828-0.021-1.211-0.17
	c-0.317,0.127-0.637-0.148-0.957-0.063c-0.893-0.021-1.698-0.319-2.465,0.042C31.62,3.585,30.94,3.5,30.302,3.267
	c-0.488-0.042-1.125-0.149-1.572,0.021c-0.319-0.149-0.574,0.148-0.893-0.043c-0.51-0.127-0.957-0.127-1.466,0
	c-0.298,0.085-0.616,0-0.914,0.043c-0.191,0-0.404,0.021-0.637-0.021c-0.659,0.255-1.466,0.552-2.146,0.106
	c-0.17,0.042-0.276-0.042-0.425-0.106C22.014,3.373,21.717,3.33,21.526,3.5c-0.51-0.021-1.02,0.106-1.339-0.404
	c-0.68,0.021-1.423,0.042-2.104,0.212c-0.553-0.064-1.232-0.276-1.743-0.106c-0.17-0.149-0.404,0.042-0.616,0.042
	c-0.595,0-1.147-0.34-1.721-0.233c-0.212-0.106-0.51,0.042-0.701-0.085c-0.595-0.383-1.339-0.702-2.083-0.51
	c-0.042-0.17-0.021-0.276,0.021-0.425c0.425-0.382,1.126,0.127,1.53-0.276c0.744-0.085,1.53,0.021,2.21,0.34
	c0.106-0.085,0.255,0.042,0.319-0.127c0.552,0.127,0.914-0.297,1.381-0.425c0.382-0.021,0.722,0.17,1.105,0.042
	c0.51-0.276,1.168-0.106,1.679-0.042c0.34,0,0.701-0.17,0.914-0.425c0.68,0.085,1.403,0.234,2.019,0.021
	c0.318,0.021,0.552,0.659,0.871,0.212c0.021-0.063,0.085-0.063,0.085-0.127c0.467-0.276,0.871-0.106,1.381-0.127
	c0.276,0.148,0.531,0.021,0.85,0.106c0.148-0.021,0.297-0.085,0.425-0.17c1.083-0.021,2.231-0.127,3.315,0.021
	c0.404-0.255,0.723,0.127,1.147,0.085c0.788,0.149,1.702,0.021,2.402-0.34c0.425-0.106,0.851-0.021,1.188,0.149
	c0.127-0.042,0.277,0,0.384,0.042c0.467-0.191,1.084-0.297,1.594-0.361c0.511-0.085,0.978,0.255,1.509,0.085
	c0.512,0.128,0.979,0.064,1.51,0.064c0.17-0.191,0.444-0.191,0.637-0.382c0.682,0.021,1.381-0.34,2.02-0.021
	c0.361,0.042,0.658,0.106,0.978-0.042c0.639,0.127,1.274-0.212,1.827,0.149c0.488,0.021,0.937-0.085,1.402-0.213
	c0.318,0.128,0.701,0.106,1.021,0.298c0.512,0.021,1.104,0.042,1.7-0.085c0.232-0.127,0.531-0.127,0.744-0.276
	C50.087,0.1,50.788,0.291,51.425,0.1C51.659,0.206,51.892,0.121,52.126,0.227L52.126,0.227z"/>
<path fill="#A7A692" d="M7.097,3.819c0.148,0.276,0.744,0.489,0.51,0.893c0.106,0.489,0.51,0.808,0.488,1.36
	c0.043,0.064,0.17,0.17,0.064,0.276c0.234,0.298,0,0.638-0.064,0.935C7.947,7.878,7.139,7.368,7.16,8.026
	C7.118,8.303,7.118,8.558,7.182,8.834c0.531,0.191,0.446,0.723,0.51,1.232c-0.255,0.531,0.255,1.062-0.021,1.636
	c-0.042,0.234-0.489,0.383-0.297,0.659c0.382,0.191,0.319,0.595,0.319,0.935c-0.085,0.468-0.532,1.063-0.064,1.509
	c-0.064,0.595-0.17,1.233-0.064,1.828C7.33,17.228,7.883,17.78,7.65,18.396c-0.17,0.085-0.468,0.064-0.574,0.319
	c0.787,0.595,0.446,1.53,0.574,2.295c-0.276,0.489-0.425,1.105-0.191,1.658c0.276,0.276,0.042,0.553,0.106,0.893
	c0.213,0.531-0.191,1.19,0.213,1.657c-0.064,0.489-0.085,1.02-0.127,1.551c-0.276,0.34-0.361,0.765-0.446,1.169
	c0.063,0.404,0.489,0.701,0.34,1.126c-0.149,0.276,0,0.552,0.106,0.765c-0.17,0.765,0.297,1.318,0.297,2.04
	c0.085,0.616-0.106,1.232,0.148,1.764c0.149,0.617-0.042,1.275-0.531,1.7c-0.467,0.68,0.638,1.296,0,1.955
	c0,0.212-0.063,0.51,0.191,0.574c0.34,0.382-0.297,0.659-0.063,1.042c0.191,0.148,0.255,0.361,0.255,0.595
	c0,0.106-0.106,0.191-0.042,0.319c-0.149,0.191-0.446,0.255-0.404,0.531c0.255,0.191,0.191,0.574,0.17,0.786
	c-0.17,0.531-0.956,0.064-0.978,0.638c-0.021,0.021-0.042,0.042-0.064,0.063c0.191,0.319,0.17,0.723,0.425,0.999
	c-0.127,0.17-0.255,0.574-0.574,0.467c-0.106,0.021-0.085-0.042-0.042-0.085c-0.212-0.042-0.468-0.063-0.638-0.212
	c-0.149,0.105-0.234,0.234-0.361,0.404c-0.255,0.063-0.616,0.042-0.744-0.234C4.59,42.919,4.504,42.6,4.249,42.452
	c-0.148,0.021-0.319,0.234-0.446,0.042c-0.191,0.043-0.34-0.148-0.446-0.276c-0.063-0.212,0.127-0.638-0.233-0.638
	c-0.234,0-0.553,0.17-0.787,0c-0.212-0.234-0.255-0.68-0.127-0.978c0-0.319-0.361-0.574-0.127-0.893
	c-0.106-0.212,0.106-0.425,0.191-0.637c0.042-0.383-0.361-0.68-0.255-1.02c-0.128-0.489,0.042-1.062-0.021-1.53
	c0.17-0.404-0.106-0.807-0.127-1.232c-0.319-0.404,0.17-0.829-0.255-1.168c-0.085-0.255-0.17-0.595-0.085-0.893
	C1.51,32.74,1.34,32.315,1.425,31.805c0.234-0.191,0.637-0.425,0.34-0.765c-0.318-0.446,0.127-0.914-0.021-1.36
	c0-0.234-0.085-0.574-0.085-0.829c0.425-0.531,0.34-1.296,0.552-1.891c0.064-0.489-0.234-0.999-0.17-1.551
	c-0.149-0.552-0.085-1.254-0.042-1.785c-0.063-0.148-0.212-0.255-0.17-0.446c0.085-0.51-0.127-0.999,0.021-1.466
	c-0.148-0.34,0.149-0.574,0.17-0.872c0.191-0.34,0.085-0.744,0.063-1.083c0.297-0.361,0.319-0.829,0.404-1.232
	c0.191-0.17,0.106-0.531,0.148-0.787c-0.148-0.297-0.085-0.68-0.042-0.978c-0.021-0.361,0.17-0.701,0.127-1.062
	c0.127-0.34,0.489-0.361,0.595-0.722c0.149-0.489-0.701-0.68-0.425-1.169c-0.212-0.829,0.042-1.615,0.361-2.38
	c0.021-0.446-0.085-0.978,0.233-1.339C3.25,9.535,3.421,8.855,3.676,8.367C3.612,8.197,3.654,7.984,3.74,7.835
	c0.106-0.212,0.425-0.064,0.446-0.34C4.207,7.347,4.101,7.219,4.122,7.07c0.191-0.382,0.297-0.85,0.425-1.232
	c0.212-0.531,0.085-1.169,0.297-1.7C4.76,3.776,5.142,3.925,5.291,3.883c0.34-0.042,0.276,0.701,0.595,0.319
	C5.843,3.861,6.247,3.84,6.417,3.734C6.651,3.798,6.885,3.691,7.097,3.819L7.097,3.819z"/>
<path fill="#A7A692" d="M56.546,4.903c0.086,0.34,0.617,0.404,0.361,0.829c-0.043,0.531,0.957,0.51,0.744,1.147
	c-0.043,0.468-0.191,0.85-0.426,1.211c0.129,0.51,0.49,1.02,0.213,1.573c-0.191,1.211,0.063,2.231-0.148,3.421
	c0,0.51-0.318,1.147,0.256,1.488c0.148,0.255,0.084,0.637-0.086,0.85c-0.084,0.786,0.637,1.487,0.191,2.252
	c-0.064,0.319,0.021,0.722,0.021,1.041c0.147,0.085-0.021,0.276,0.127,0.383c0.043,0.425,0,0.871-0.148,1.253
	c-0.064,0.425,0.191,0.744,0.064,1.169c0.147,0.297-0.043,0.616-0.021,0.893c-0.086,0.318,0.105,0.574-0.064,0.85
	c0.021,0.404-0.275,0.807-0.191,1.253c0,0.361-0.127,0.872,0.234,1.126c0.275,0.574-0.574,0.68-0.297,1.232
	c0.127,0.212,0.445,0.255,0.402,0.552c-0.191,0.404,0.17,0.914-0.17,1.254c-0.105,0.531-0.127,1.062-0.062,1.594
	c-0.213,0.021,0.041,0.149,0,0.255c0.062,0.85-0.021,1.658-0.129,2.529c0.234,0.573,0.553,1.36,0.17,1.955
	c0.021,0.382-0.572,0.553-0.467,0.978c0.084,0.212-0.021,0.404-0.148,0.553c-0.36-0.021-0.617,0.255-0.914,0.425
	c-0.19,0.361-0.317,0.787-0.657,1.062c-0.257,0.085-0.511-0.042-0.744-0.17c-0.81-0.063-1.358-0.85-2.041-1.169
	c-0.127-0.191-0.444-0.233-0.487-0.51c0.106-0.297-0.085-0.574,0.021-0.872c0.063-0.233,0.147-0.467,0.147-0.722
	c-0.318-0.872-0.807-1.849-0.34-2.805c0.043-0.191,0.17-0.34,0.127-0.574c0-0.552,0.043-1.126,0.064-1.657
	c-0.064-0.446-0.404-0.872-0.17-1.339c0.147-0.531-0.256-0.893-0.17-1.403c0.254-0.659,0.615-1.317,0.574-2.104
	c-0.086-0.616-0.17-1.36,0-1.955c0.211-0.68-0.361-1.147-0.3-1.806c0.15-0.531,0.683-0.893,0.787-1.445
	c-0.147-0.977-0.36-2.146,0.233-2.996c0.275-0.765-0.276-1.594,0.127-2.337c0.128-0.659-0.021-1.402-0.021-1.998
	c0.044-0.489,0.128-1.042,0.148-1.53c-0.148-0.234-0.275-0.446-0.255-0.744c0.255-0.106,0.084-0.318,0.232-0.467
	c0.49-0.446,0.318-1.126,0.596-1.658c0.105-0.574-0.276-1.317,0.468-1.636c0.36-0.17,0.383-0.552,0.596-0.808
	c0.106-0.466,0.745-0.359,1.106-0.466C56.271,4.818,56.397,4.945,56.546,4.903L56.546,4.903z"/>
<path fill="#A7A692" d="M37.761,7.347c0.553-0.064,1.127,0.233,1.658-0.064c0.275,0.042,0.574,0.085,0.871,0.127
	c0.445-0.17,0.914-0.085,1.381-0.148c0.107,0.17,0.256,0,0.361,0.127c0.277,0.064,0.723,0,0.893,0.34
	c0.256,0.106,0.531,0.276,0.81,0.149c0.147-0.17,0.358-0.149,0.571-0.191c0.299-0.425,0.81-0.212,1.254-0.255
	c0.257,0,0.47,0.212,0.744,0.063c0.213,0.085,0.467,0.106,0.617,0.361c-0.043,0.149,0,0.34-0.129,0.446
	c0.064,0.425,0.256,0.808,0.426,1.19c0.318,0.255,0.744,0.531,0.894,0.871c0.104,0.191,0.17,0.425,0.084,0.637
	c-0.084,0.361,0.319,0.765,0.086,1.126c-0.256,0.191-0.106,0.51-0.317,0.701c-0.191,0.255,0.147,0.404,0.317,0.531
	c0.317,0.127,0.785,0.276,0.871,0.701c-0.086,0.468,0.127,0.978-0.361,1.232c-0.147,0.085-0.487-0.106-0.36,0.213
	c0.086,0.85,0.444,1.657,0.274,2.528c-0.084,0.213-0.062,0.468,0.021,0.68c0.086,0.531-0.062,1.105-0.021,1.636
	c0.043,0.34-0.127,0.68-0.147,1.042c0.106,0.489,0.426,1.105-0.021,1.551c0.086,0.148-0.041,0.319-0.148,0.446
	c-0.17,0.127-0.274,0.255-0.297,0.467c-0.233,0.191-0.383,0.382-0.723,0.425c-0.404-0.213-0.744-0.17-1.168,0
	c-0.404,0-0.766-0.319-1.213-0.255c-0.572-0.17-1.252-0.574-1.848-0.148c-0.701,0.021-1.402-0.298-2.125-0.106
	c-0.937,0.149-2.146,0.808-3.019,0.042c-0.383,0.021-0.914-0.106-1.211,0.234c-0.53-0.042-0.979-0.255-1.487-0.276
	c-1.041,0.042-1.869-0.085-2.892,0.042c-0.851-0.127-1.679,0.446-2.485,0.021c-0.786-0.425-1.573,0.063-2.38,0.042
	c-1.168,0.106-2.38-0.191-3.464,0.255c-0.318,0-0.658,0.276-0.977,0.062c-0.319,0.085-0.553-0.276-0.872-0.297
	c-0.318-0.106-0.616,0.064-0.935,0c-0.318,0.212-0.616,0.106-0.956,0.212c-0.17-0.063-0.34-0.021-0.531,0.021
	c-0.723,0.127-1.636,0.297-2.295-0.064c-0.361-0.042-0.574,0.127-0.872,0.213c-0.935,0.021-1.912,0.021-2.762-0.085
	c-0.297-0.106-0.361-0.467-0.51-0.701c-0.276-0.106-0.425-0.34-0.701-0.467c-0.361-0.85-0.17-1.913-0.127-2.805
	c0-0.021,0.021-0.042,0.042-0.063c-0.042-0.425-0.127-0.85-0.319-1.233c0.085-0.191-0.17-0.467,0.064-0.616
	c0.106-0.255-0.149-0.404,0.064-0.595c0.382-0.616-0.468-1.403,0.233-1.849c0.149,0,0.361,0,0.446,0.191
	c0.361,1.232,0.893,2.422,1.381,3.634c0.276,0.489-0.149,1.126,0.446,1.488c0.744,0.233,1.551,0.318,2.359,0.148
	c0.276-0.063,0.488,0.17,0.829,0.085c0.106,0.085,0.361,0,0.489,0.149c0.234-0.042,0.552-0.127,0.786,0
	c0.68-0.085,1.402-0.064,2.104-0.17c0.382-0.276,0.935-0.276,1.402-0.361c1.084-0.127,1.998,0.212,3.06,0.063
	c0.255-0.212,0.531,0.106,0.744-0.127c0.361,0.063,0.659-0.233,1.042-0.318c0.552-0.149,1.147,0.233,1.679,0.127
	c0.127,0.127,0.297,0.021,0.446-0.021c1.149,0.127,2.231,0.064,3.401,0.127c0.148,0.17,0.34-0.106,0.51,0.042
	c0.658-0.233,1.275-0.085,1.977-0.233c0.595-0.021,1.275-0.276,1.869,0c0.086-0.149,0.191,0,0.297,0
	c0.384-0.149,0.683,0.148,1.043-0.042c0.254-0.043,0.468,0.488,0.615,0.148c0.277,0.064,0.447-0.106,0.68-0.212
	c0.32-0.021,0.597-0.106,0.894-0.149c0.317-0.063,0.681-0.148,0.979,0c0.934,0.021,1.891-0.17,2.805,0.064
	c0.426-0.17,0.85-0.085,1.232-0.34c0.063-0.276,0.17-0.532,0.147-0.829c-0.36-0.552-0.043-1.253-0.084-1.913
	c0.297-0.276,0.127-0.701,0.062-1.041c-0.34-0.786-1.168-0.786-1.891-0.893c-0.68,0.064-1.424,0.319-2.125,0.149
	c-1.041,0.021-2.211,0.255-3.123-0.319c-0.574-0.149-1.084,0.212-1.68,0.191c-0.383,0.255-0.828,0.17-1.232,0.17
	c-0.426,0.062-0.828-0.085-1.211,0.042c-0.34,0.063-0.574-0.127-0.914-0.064c-0.68,0.106-1.551-0.085-2.104,0.213
	c-0.639,0.021-1.275,0.318-1.914,0.042c-0.085,0.17-0.255,0.148-0.361,0.021c-0.404,0.085-0.765-0.063-1.105,0.064
	c-0.085-0.127-0.17,0.042-0.276,0c-0.383-0.404-0.935,0.085-1.36-0.106c-0.595-0.064-1.211-0.085-1.806-0.191
	c-0.85-0.021-1.7,0.17-2.486,0.425c-0.786-0.276-1.721,0.042-2.529-0.234c-0.871,0.085-1.636,0.085-2.55,0.17
	c-0.786,0.021-1.509-0.319-2.167-0.744c-0.298,0.106-0.595-0.042-0.893,0c-0.106-0.106-0.234-0.212-0.234-0.382
	c-0.127-0.128-0.085-0.276-0.063-0.446c0.17-0.106,0.233-0.319,0.446-0.404c0.956-0.064,2.21-0.064,3.166,0
	c0.212-0.234,0.553,0.063,0.68-0.276c0.234-0.042,0.404-0.212,0.616-0.127c0.744,0.021,1.743,0.064,2.529-0.17
	c0.127,0.105,0.234-0.042,0.34-0.085c0.51-0.021,1.063-0.382,1.53-0.042c0.127-0.064,0.233-0.064,0.361,0
	c0.68-0.191,1.551,0.021,2.21-0.191c0.084,0.063,0.063,0,0.149-0.021c0.361-0.17,0.892,0.042,1.189-0.318
	c0.212,0.021,0.489-0.191,0.68,0.042c0.616-0.255,1.211,0.233,1.849,0.106c0.447-0.042,0.958,0,1.36-0.191
	c0.319,0.042,0.723-0.149,1.084-0.021c0.106-0.085,0.213,0.042,0.34,0.042c0.51,0,0.936,0.17,1.383,0.064
	c0.127,0,0.232-0.042,0.361-0.106c0.147-0.064,0.297,0.021,0.424-0.042c0.234,0.127,0.447-0.149,0.66-0.063
	c0.467-0.17,0.934-0.064,1.442-0.043c0.257-0.085,0.574,0.043,0.851-0.021c0.276-0.149,0.617,0.042,0.852-0.234
	c0.531,0.021,1.189,0.021,1.699,0.17c1.381,0.021,2.783,0.276,4.207,0.149c0.553,0.127,1.105-0.042,1.553-0.425
	c0.17-0.233,0.488-0.467,0.361-0.786c-0.49-0.148-0.723-0.616-1.191-0.786c-0.318-0.063-0.553,0.021-0.85-0.127
	c-0.064,0.106-0.191,0.021-0.234-0.042c-0.445-0.149-0.977,0.021-1.338-0.276c-0.275,0.212-0.617-0.021-0.914,0.106
	c-0.297-0.213-0.637-0.276-0.936-0.489c-0.254-0.021-0.531,0.042-0.828,0.063c-0.361,0.574-1.041,0.106-1.486,0.404
	c-0.426-0.021-0.873,0.021-1.254-0.191c-2.189,0.17-4.441,0.234-6.609-0.042c-0.107-0.191-0.404-0.191-0.574-0.106
	c-0.17,0.127-0.255,0.404-0.489,0.276c-0.042,0.127-0.191,0.042-0.297,0.106c-0.191-0.17-0.468-0.255-0.723-0.319
	c-0.999-0.233-2.21,0.021-3.188-0.361c-0.744,0.425-1.573,0.127-2.359,0.063c-0.467,0.085-0.892,0.446-1.381,0.149
	c-0.446,0.063-0.85-0.127-1.254-0.149c-0.212-0.191-0.595-0.17-0.85-0.17c-0.319,0.234-0.744-0.021-1.041,0.021
	c-0.361-0.191-0.787-0.064-1.169-0.255c-0.255,0.191-0.574,0.298-0.85,0.149c-0.319-0.404-0.829-0.042-1.19-0.042
	c-0.212,0.234-0.574,0.255-0.893,0.276c-0.17-0.021-0.276-0.213-0.446-0.234c0.085-0.297-0.106-0.574,0.064-0.829
	c0.531-0.255,1.168-0.191,1.721-0.425c0.148,0.064,0.276-0.085,0.446,0.021c0.808-0.276,1.636-0.531,2.529-0.574
	c0.765,0.085,1.551,0.233,2.337,0.318c0.382-0.17,0.786,0.064,1.168-0.063c0.51-0.191,1.19-0.595,1.7-0.127
	c0.871,0.106,1.743-0.297,2.678-0.255c0.999-0.106,1.998,0.319,2.954,0.383c0.553,0.063,1.148,0.149,1.658-0.127
	c0.572-0.127,1.275-0.106,1.912-0.191c0.871-0.276,2.062,0.021,2.892-0.446C36.741,6.964,37.358,6.985,37.761,7.347L37.761,7.347z"
	/>
<path fill="#A7A692" d="M13.769,9.174c-0.085,0.149-0.17,0.361-0.361,0.404c-0.276-0.043-0.552,0.148-0.744-0.149
	c-0.106-0.361,0.276-0.404,0.467-0.616C13.345,9.025,13.833,8.685,13.769,9.174L13.769,9.174z"/>
<path fill="#A7A692" d="M16.957,27.725c0.298,0.191,0.659,0.106,0.935,0.233c0.255,0,0.446-0.127,0.701-0.127
	c0.383-0.127,0.872-0.063,1.317-0.063c0.17,0.042,0.319,0.149,0.468,0.127c0.552,0.063,1.147,0.085,1.721,0.042
	c0.212-0.191,0.51-0.17,0.808-0.212c0.361,0.021,0.829,0.191,1.232,0.063c0.149,0.213,0.297-0.17,0.51-0.042
	c0.212,0.17,0.467-0.063,0.701,0c0.191-0.042,0.489-0.085,0.638,0.042c0.403,0.021,0.892,0.085,1.19,0.383
	c0.616,0.297,1.36,0.021,2.019,0.021c0.17-0.148,0.383,0.021,0.553-0.191c0.042,0.106,0.063-0.043,0.127-0.043
	c0.255,0.128,0.68-0.106,0.894,0.149c0.34-0.042,0.723,0.106,1.084-0.042c0.318-0.191,0.701-0.021,0.998-0.17
	c0.383-0.042,0.723,0.212,1.104,0.021c0.191,0.042,0.341,0.106,0.554,0.021c0.062,0.042,0.127,0.106,0.211,0.085
	c0.979-0.085,1.893,0.106,2.807-0.106c0.658,0,1.381-0.446,2.039-0.149c0.426-0.149,0.85,0.149,1.254-0.021
	c0.553-0.063,1.189-0.063,1.678,0.17c0.299,0.021,0.639-0.149,0.893,0.042c0.234-0.106,0.513,0.149,0.767,0
	c0.658,0.191,1.231-0.127,1.871-0.021c0.424,0.064,1.146-0.106,1.338,0.446c0.104-0.021,0.17,0.042,0.256,0.085
	c0.041,0.021,0.021,0.106-0.021,0.106c-0.107,0.085,0.062,0.042,0.104,0.085c-0.043,0.255,0.298,0.404,0.127,0.659
	c-0.401,0.17-0.87,0.34-1.168,0.68c-0.36,0.042-0.827,0.212-1.211,0c-0.213,0.106-0.426-0.042-0.657,0.085
	c-1.232,0.659-2.656-0.191-3.933,0.127c-0.063,0.148-0.34,0.063-0.36,0.17c-0.127,0.021-0.318,0.042-0.404,0.212
	c-0.404,0.17-0.851,0.042-1.254,0.106c-1.572-0.17-3.293,0.255-4.931,0c-0.487,0.17-0.998,0.212-1.551,0.191
	c-1.467-0.063-3.083-0.085-4.484-0.191c-0.468,0.17-0.935,0.148-1.403,0.297c-0.34,0.021-0.51-0.34-0.85-0.255
	c-0.212,0.042-0.51,0.063-0.68-0.085c-0.319,0.127-0.638,0-0.935,0.148c-0.149-0.063-0.319,0.064-0.51,0.042
	c-0.255-0.106-0.617,0.042-0.914-0.063c-0.489-0.276-1.275-0.149-1.806,0.085c-0.361,0.255-0.829,0.064-1.211,0.234
	c-0.382,0-0.659-0.298-0.956-0.404c-0.17,0.042-0.298-0.021-0.446-0.064c-0.489-0.042-0.978-0.404-1.445-0.042
	c-0.085,0.064-0.17,0.127-0.255,0.17c-0.51,0.042-1.126,0.106-1.594-0.191c-0.276,0.085-0.659,0.212-0.807,0.51
	c0.446,0.34,0.744,0.914,0.659,1.509c-0.085,0.319-0.298,0.68-0.255,1.062c0.574,0.935,0.064,2.125,0.17,3.145
	c0.191,0.744,1.042,0.659,1.552,0.957c1.041-0.085,2.231,0.233,3.039-0.255c0.404,0.149,0.871-0.021,1.254,0.17
	c0.616-0.297,1.296-0.021,2.019-0.106c1.296-0.042,2.529-0.106,3.697,0.212c0.723-0.297,1.658-0.34,2.465-0.17
	c0.446,0.042,0.914,0.021,1.296,0.276c0.915,0.191,1.806-0.149,2.72-0.149c0.701,0.085,1.316,0.34,2.019,0.276
	c0.427,0.042,0.66-0.234,1.063-0.298c0.615-0.191,1.425-0.042,2.082-0.042c0.084,0.064,0.191-0.042,0.318,0
	c0.553,0.021,1.105,0.234,1.658,0.106c0.828-0.064,1.742-0.191,2.549-0.191c0.318,0.127,0.701-0.021,1.041,0.106
	c0.361,0.106,0.68,0.064,1.021,0.085c0.361-0.106,0.742-0.106,1.168-0.149c1.041-0.382,2.039,0.191,3.123,0.234
	c0.34,0.106,0.66,0.085,1,0.127c0.424,0.127,0.871,0.127,1.254,0.255c0.211,0.191,0.127,0.489,0,0.702
	c-0.34,0.489-0.893,0.977-1.51,0.829c-0.51-0.106-0.894,0.382-1.381,0.489c-0.384,0.021-0.701,0.361-1.084,0.149
	c-0.064,0.063-0.148-0.043-0.234-0.064c-0.297,0.042-0.572-0.042-0.85-0.127c-0.998,0.191-1.978,0.17-2.976,0.319
	c-0.127-0.021-0.297,0.106-0.468,0.021c-0.063,0.106-0.129,0.064-0.213,0.042c-0.723,0.17-1.551,0.085-2.358,0.085
	c-0.785-0.255-1.594-0.063-2.422-0.127c-0.043,0.17-0.17-0.021-0.277,0c-0.274,0.149-0.614-0.127-0.85,0.085
	c-0.214,0.021-0.341-0.042-0.511,0.021c-0.274-0.042-0.553,0.106-0.787-0.064c-0.17,0.042-0.401,0.085-0.551-0.042
	c-1.213-0.17-2.528,0.255-3.805,0c-0.426,0.064-0.786-0.127-1.062-0.34c-0.297-0.064-0.383,0.34-0.68,0.255
	c-0.148,0.17-0.425,0.106-0.595,0.064c-0.276-0.17-0.702-0.064-0.935-0.34c-0.935,0.064-1.87,0.553-2.784,0.17
	c-0.808-0.318-1.764-0.127-2.55,0.191c-0.467-0.021-0.956,0.042-1.424,0.042c-0.17,0.106-0.425,0.085-0.637,0.042
	c-0.383-0.042-0.723,0.021-1.126-0.063c-0.701-0.17-1.381-0.128-2.104-0.191c-0.234,0.085-0.468,0.149-0.68,0.234
	c-0.659-0.042-1.381,0.467-1.955-0.149c-0.553-0.042-0.659-0.659-1.211-0.68c-0.276,0.064-0.467-0.106-0.595-0.34
	c0.064-0.489-0.212-0.808-0.297-1.232c-0.106-0.701,0.106-1.509,0.106-2.146c-0.042-0.318-0.106-0.616-0.17-0.935
	c0.064-0.403,0.106-0.892-0.021-1.275c0.276-0.404,0.063-0.978,0.552-1.275c-0.085-0.085-0.127-0.212-0.255-0.127
	c-0.021,0.021-0.042,0.042-0.064,0.042c-0.318-0.595-0.637-1.509-0.17-2.146c0.234,0.042,0.127-0.276,0.34-0.255
	c0.212-0.319,0.17-0.723,0.255-1.041c0.276-0.043,0.361-0.404,0.701-0.276c0.085-0.298,0.446-0.319,0.701-0.531
	c0.191-0.425,0.786-0.319,1.169-0.468c0.085,0.064,0.233,0,0.276-0.106c0.382-0.064,0.765,0,1.105,0.085
	C16.702,27.683,16.851,27.81,16.957,27.725L16.957,27.725z"/>
<path fill="#A7A692" d="M55.591,41.262c0.361,0.468,1.189,0.744,0.764,1.424c-0.021,0.255-0.104,0.425-0.041,0.723
	c0.128,0.085,0.298,0.191,0.318,0.382c-0.086,0.149,0.021,0.276,0.041,0.425c-0.254,0.34,0.064,0.786,0,1.147
	c0.043,0.467,0.043,0.956,0.15,1.402c-0.021,0.255-0.256,0.51-0.107,0.786c0,0.255-0.254,0.468-0.19,0.701
	c0.319,0.51,0.34,1.169,0.19,1.764c0.148,0.191,0.021,0.467,0.021,0.68c0.639,0.935,0.086,2.252,0.701,3.188
	c-0.043,0.276,0.043,0.617,0.043,0.85c-0.043,0.021-0.043-0.042-0.086-0.042c0.043,0.531,0.043,1.169-0.232,1.594
	c-0.064,0.467-0.148,0.893,0,1.339c0.105,0.595,0.34,1.147,0.232,1.721c0.021,0.064,0.063,0.127,0.086,0.212
	c-0.021,0.531-0.148,1.19,0.064,1.743c0.104,0.234-0.107,0.425,0.021,0.659c0.51,0.723,0.104,1.615,0.231,2.486
	c-0.723,0.425-0.021,1.105,0.043,1.679c-0.063,0.319,0.127,0.552,0.021,0.871c0.254,0.383,0.254,0.893,0.383,1.318
	c-0.086,0.042-0.129,0.17-0.086,0.255c-0.064,1.19-0.445,2.274-0.213,3.485c-0.084,0.872,0.021,1.679-0.17,2.529
	c-0.148,0.701-0.191,1.53-0.17,2.295c0.086,0.276,0.299,0.468,0.256,0.808c-0.107,0.659-1.084,1.105-0.531,1.828
	c0.297,0.127,0.062,0.51,0.275,0.68c-0.17,0.617-0.275,1.275-0.062,1.892c-0.404,0.467,0.062,0.978-0.043,1.509
	c0.084,0.85-0.148,1.636-0.318,2.422c0.127,0.446,0.638,0.808,0.488,1.296c0.637,0.829-0.34,1.509-0.191,2.337
	c0.044,0.234,0.488,0.276,0.318,0.552c0.256,0.489-0.062,1.02,0.064,1.573c-0.447,0.68,0.254,1.381,0,2.125
	c-0.086,0.212-0.277,0.276-0.426,0.404c0.043,0.255-0.17,0.595,0.234,0.659c0.127,0.127-0.128,0.404,0.147,0.446
	c-0.063,0.616,0.063,1.36-0.127,1.976c-0.063,0.957,0.254,1.977-0.191,2.848c-0.106,0.744,0.468,1.254,0.318,1.998
	c-0.318,0.638-0.127,1.424-0.234,2.146c0.087,0.531,0.447,0.935,0.427,1.53c0,0.701,0.147,1.337,0.084,2.02
	c-0.148,0.211-0.127,0.51-0.318,0.7c-0.254,0.127-0.361,0.382-0.424,0.638c0.041,0.446,0.531,0.233,0.637,0.637
	c0.043,0.214,0.105,0.361,0.064,0.574c0,0.487-0.256,0.894-0.318,1.36c0,0.742,0.105,1.613,0.445,2.314
	c0.147,0.383-0.191,0.723-0.148,1.148c0.318,0.766,0.17,1.551,0.232,2.381c0.299,0.807-0.297,1.594-0.084,2.4
	c-0.213,0.701,0.256,1.254,0.36,1.955c-0.127,0.637-0.403,1.424-0.127,2.082c0.041,0.553-0.043,1.254,0.147,1.784
	c0.127,0.404,0.148,0.81,0.191,1.255c-0.447,0.68,0.021,1.358-0.043,2.125c0.213,0.957-0.361,1.784-0.275,2.741
	c0.148,0.361-0.021,0.785,0,1.168c0.148,0.554-0.043,1.255,0.254,1.742c0.064,0.36-0.274,0.658-0.19,1.041
	c0,0.787-0.147,1.51,0.063,2.231c-0.043,0.828,0,1.699-0.043,2.527c-0.17,0.234-0.063,0.596-0.213,0.83
	c0.064,0.148-0.104,0.361-0.021,0.531c-0.127,0.467-0.17,1.062,0,1.529c-0.062,0.701-0.19,1.444-0.041,2.188
	c0.147,0.297,0.021,0.554,0,0.828c-0.063,0.724-0.149,1.528-0.681,2.125c-0.129,0.317,0.085,0.574-0.043,0.894
	c0.105,0.021,0.128,0.213,0.148,0.34c0.021,0.531-0.639,0.68-0.723,1.127c-0.064,0.615-0.064,1.424-0.744,1.721
	c-0.275,0.043-0.531-0.084-0.68-0.34c-0.701,0.086-1.297-0.086-1.912-0.34c-0.299-0.277-0.021-0.724-0.318-1.021
	c-0.234-0.276-0.744-0.469-0.766-0.957c0.105-0.36,0.084-0.766-0.043-1.127c-0.34-0.188-0.68-0.444-0.807-0.808
	c0-0.487,0.36-0.723,0.53-1.168c0.021-0.34,0.298-0.616,0.382-0.957c0.299-0.021,0.403-0.297,0.596-0.487
	c-0.105-0.403-0.254-0.81-0.383-1.211c0.149-0.47-0.084-0.937-0.062-1.401c0.127-0.683-0.426-1.361,0.105-1.894
	c0.233-0.361,0.446-0.765,0.233-1.188c-0.53-0.214-0.233-0.871-0.256-1.232c0.043-0.617,0.657-1,0.68-1.615
	c-0.021-0.361-0.104-0.68-0.062-1.041c-0.256-0.277-0.318-0.617-0.361-0.979c0.318-0.297,0.191-0.808,0.383-1.189
	c-0.043-0.234,0-0.467-0.043-0.723c-0.447-0.404-0.318-0.978-0.488-1.486c0.254-0.447,0.148-1.084,0.381-1.574
	c-0.127-0.445-0.127-0.828-0.147-1.273c0.106-0.276,0.021-0.553-0.041-0.83c0.255-1.231-0.256-2.508-0.043-3.76
	c0.298-0.914-0.34-1.701-0.19-2.615c0-0.084-0.043-0.147,0-0.213c-0.043-0.551-0.064-1.168,0.021-1.721
	c-0.299-0.744-0.19-1.508-0.299-2.338c-0.062-0.381-0.382-0.723-0.147-1.104c-0.062-1.043,0-2.084-0.214-3.039
	c-0.041-0.34,0.043-0.723,0.15-1.041c0.104-0.617-0.47-0.914-0.47-1.51c0-0.254-0.043-0.531,0.043-0.785
	c0.064-0.086,0.148-0.191,0.084-0.299c0.427-0.424,0.361-0.998,0.343-1.551c-0.234-0.275-0.063-0.597-0.3-0.871
	c0.043-0.597-0.231-1.147-0.36-1.744c-0.147-0.381,0.233-0.638,0.233-0.999c0.384-0.489-0.063-1.126,0.105-1.7
	c0.17-0.34,0.34-0.808,0.043-1.147c0-0.723,0.191-1.466-0.084-2.062c-0.043-0.276,0.148-0.467,0.191-0.722
	c0.062-0.85-0.107-1.849-0.086-2.784c-0.297-0.489-0.297-1.105-0.234-1.679c-0.191-0.361,0.191-0.765,0.043-1.19
	c0.086-0.021,0.086-0.106,0.105-0.148c-0.021-0.787-0.189-1.573-0.297-2.338c0.17-1.02,0.446-2.104,0.063-3.124
	c0-1.402-0.34-2.911,0-4.335c-0.043-0.446-0.086-0.893,0.021-1.317c0.084-0.425,0.191-0.999-0.021-1.403
	c-0.127-0.871-0.213-1.785-0.086-2.72c0.086-0.659-0.211-1.296,0.043-1.913c-0.127-0.319,0.147-0.531,0.147-0.85
	c0.34-0.17,0.021-0.531,0.191-0.808c0.064-0.361-0.191-0.786,0.021-1.126c-0.213-0.765,0.147-1.424,0.147-2.125
	c0.043-1.148-0.233-2.401,0.213-3.464c-0.213-0.34-0.233-0.765-0.383-1.126c0-1.041,0.317-2.188-0.127-3.188
	c0.127-0.34,0.104-0.637,0.274-0.978c0-0.234,0.064-0.51,0.064-0.786c0.191-0.319,0.51-0.723,0.34-1.105
	c-0.191-0.085-0.256-0.255-0.361-0.425c0.105-0.765,0.341-1.743,0.105-2.529c0.086-0.659-0.189-1.403,0.043-2.04
	c-0.148-0.383,0.34-0.51,0.318-0.872c-0.17-0.914-0.531-2.21,0.15-2.996c0.021-0.446,0.062-0.914-0.107-1.296
	c-0.191-0.17-0.467-0.276-0.424-0.552c-0.191-0.361,0.127-0.659,0.104-1.02c-0.063-0.234,0.043-0.531,0.214-0.701
	c0.317-0.425,0.104-1.084,0.34-1.573c-0.191-0.319-0.191-0.808-0.064-1.168c0.191-0.425,0-0.829,0.086-1.233
	c0.254,0.085,0.148-0.382,0.445-0.276c0.34-0.531,0.234-1.318,0.318-1.892c0.403,0,0-0.51,0.403-0.404
	c0.086-0.276,0.276,0.021,0.426-0.148C54.995,41.474,55.292,40.943,55.591,41.262L55.591,41.262z"/>
<path fill="#A7A692" d="M46.304,54.862c-0.17-0.212-0.34-0.361-0.487-0.595c-0.277-0.064-0.574,0-0.83,0.106
	c-0.062,0-0.127-0.063-0.147,0.021c-0.658,0.063-1.445,0.021-2.062,0.255c-0.701,0.042-1.318,0.446-2.041,0.297
	c-0.298,0.17-0.658-0.085-0.912,0.085c-0.554-0.191-1.17-0.064-1.724-0.043c-0.383,0.34-0.934,0.17-1.358,0.276
	c-1.041-0.106-2.146-0.233-3.188,0.021c-0.637,0.552-1.528,0.255-2.211-0.021c-0.274-0.042-0.572,0.127-0.828,0.021
	c-0.105,0.127-0.297,0.063-0.382-0.064C29.134,55.2,28.22,55.242,27.2,55.2c-0.531,0.021-0.956,0.318-1.466,0.34
	c-0.085-0.021-0.191-0.064-0.234-0.149c-0.744-0.063-1.338-0.51-2.146-0.425c-0.191,0.361-0.68,0.085-0.872,0.404
	c-0.488-0.191-1.104-0.085-1.615-0.298c-1.062-0.127-2.252-0.021-3.315-0.021c-0.616,0.021-1.254-0.021-1.891-0.021
	c-0.68-0.276-1.275-1.063-2.125-0.68c-0.106,0.467,0.447,0.616,0.702,0.914c0.127,0.404,0.148,0.935,0.042,1.402
	c0.17,0.489,0.361,0.957,0.786,1.254c0.149,0.446-0.191,0.786-0.149,1.254c0.276,0.34,0.723,0.276,1.084,0.425
	c0.212,0.021,0.319,0.319,0.552,0.234c0.935,0,1.828-0.361,2.72-0.531c0.297,0.042,0.531,0.17,0.744,0.361
	c1.998,0.191,4.292,0.255,6.184,0.085c0.255-0.021,0.553-0.149,0.808-0.127c0.361-0.085,0.68-0.106,1.021-0.042
	c0.34-0.255,0.786-0.17,1.147-0.085c0.063,0.127,0.191,0.106,0.276,0.042c0.297,0.127,0.51,0.042,0.828,0.106
	c0.553,0.042,1.148-0.17,1.702-0.127c0.36-0.148,0.784-0.042,1.146,0c0.086-0.085,0.191,0.021,0.277,0.064
	c0.871,0.021,1.807-0.021,2.719-0.042c0.086,0.042,0.213-0.021,0.277,0.063c0.318,0,0.658,0.128,0.977,0.213
	c0.469-0.17,0.979-0.489,1.51-0.17c0.701-0.361,1.658-0.148,2.422-0.127c0.83,0.106,1.531-0.106,2.316-0.106
	c0.17-0.042,0.297,0.233,0.447,0.042c0.51-0.064,0.998-0.106,1.443,0.191c0.49-0.085,0.873-0.063,1.213-0.446
	c0.084-0.532-0.043-0.978-0.277-1.445c-0.021-0.382,0-0.786,0.021-1.147C46.579,56.052,46.409,55.414,46.304,54.862L46.304,54.862z
	 M17.616,44.704c0.233-0.042,0.446,0.043,0.68,0c0.276,0.191,0.786,0.34,1.02,0.234c0.446,0.085,0.914-0.234,1.275,0.042
	c0.446-0.191,1.042-0.021,1.509,0c0.382,0.085,0.744,0.255,1.105,0.149c0.765-0.191,1.573,0.255,2.125-0.467
	c0.361,0.106,0.723-0.298,1.105-0.064c0.106-0.042,0.127,0.042,0.233,0.064c0.468,0.063,0.893,0.148,1.36,0.063
	c0.616,0.042,1.232-0.063,1.87,0.106c0.276-0.106,0.573,0.042,0.851,0.106c1.125,0.255,2.635,0.085,3.781,0
	c0.49,0.042,0.914-0.042,1.34,0.127c0.658-0.021,1.318,0.298,1.828-0.318c0.594,0.021,1.273,0.106,1.826,0.233
	c0.531-0.021,1.127,0.042,1.637-0.17c0.553,0.085,1.254-0.148,1.764,0.234c0.213,0,0.404,0.064,0.596,0.149
	c0.425-0.064,0.871-0.128,1.212-0.425c0.233,0.127,0.426-0.127,0.657-0.085c0.681,0.276,1.531-0.042,2.082,0.574
	c0.513,0.68,1.615,1.317,1.105,2.316c-0.275,0.68,0.127,1.36-0.105,2.061c-0.147,0.085-0.256,0.17-0.299,0.319
	c0.021,0.382,0.404,0.574,0.512,0.893c0,0.893-0.19,1.679,0,2.571c0.254,0.531,0.084,1.211-0.086,1.721
	c0.658,1.211,0.191,2.784-0.254,3.953c-0.086,0.425-0.213,1.02-0.106,1.445c-0.021,0.276-0.213,0.51-0.127,0.765
	c-0.021,0.17-0.19,0.127-0.257,0.276c-0.424,0.552-0.87,1.317-1.655,1.211c-0.617-0.127-1.17,0.021-1.828-0.063
	c-0.743-0.106-1.487-0.106-2.188-0.127c-0.105,0.085-0.275,0.021-0.383-0.021c-0.552,0.021-1.104-0.021-1.699,0.021
	c-0.34-0.021-0.596-0.042-0.871-0.106c-0.574,0.042-1.148,0.042-1.742,0.127c-0.213,0.149-0.447,0.191-0.68,0.191
	c-0.213,0.127-0.447,0.021-0.724,0.106c-0.213,0.042-0.403-0.021-0.639,0c-0.317-0.085-0.724-0.17-1.062-0.149
	c-1.316,0.021-2.74,0.042-4.06-0.042c-0.191-0.17-0.531-0.064-0.722-0.255c-0.765-0.234-1.551,0.255-2.316,0.148
	c-1.062,0.276-2.061-0.085-3.081-0.233c-1.36,0-2.593,0.17-3.931,0.127c-0.234,0.191-0.489,0.021-0.744,0.127
	c-0.404-0.085-0.85,0-1.253-0.106c-0.468-0.085-0.999,0.064-1.339-0.255c-1.02-0.234-2.104-0.34-3.018-0.659
	c-0.383-0.361-0.744-0.701-1.19-0.999c-0.616-0.404-0.085-1.147-0.234-1.721c-0.191-0.723,0.127-1.466-0.446-2.019
	c-0.212-0.298-0.127-0.744-0.085-1.062c0.255-0.553,0.829-0.85,0.808-1.509c-0.085-0.213,0.276-0.553-0.064-0.574
	c-0.212-0.149-0.297-0.446-0.17-0.68c0.127-0.34,0.383-0.616,0.595-0.914c0.808-0.064,1.637,0.042,2.423,0.063
	c0.446-0.361,0.999,0.191,1.445-0.021c0.191,0.021,0.468-0.042,0.68-0.042c0.404,0.042,0.871-0.106,1.339,0.063
	c0.255-0.17,0.467,0.042,0.722-0.042c0.255,0.021,0.595-0.148,0.787,0.042c0.34-0.191,0.68,0.127,1.041,0.106
	c0.297,0.021,0.34,0.361,0.701,0.297c0.765-0.042,1.466-0.552,2.231-0.276c0.276-0.17,0.659,0.106,0.893-0.106
	c0.637,0.063,1.105-0.021,1.679,0.127c0.127-0.085,0.361-0.106,0.51-0.064c0.318-0.106,0.744-0.212,1.126-0.085
	c0.064-0.106,0.106,0,0.191-0.042c0.063,0.085,0.106-0.085,0.191-0.021c0.808,0.17,1.467-0.042,2.295,0.17
	c0.574-0.042,1.148,0.127,1.701,0.085c0.402-0.042,0.871-0.191,1.316-0.17c0.488,0.233,0.914,0.17,1.424,0.233
	c0.723,0.042,1.381,0,2.104-0.021c0.107-0.191,0.234,0.063,0.384,0c0.7-0.106,1.401,0.148,1.997-0.149
	c0.234-0.021,0.445,0.042,0.638-0.085c0.487,0.106,0.937,0.191,1.424,0.34c0.277-0.021,0.64-0.149,0.957,0.021
	c0.191-0.212,0.298-0.021,0.468,0.064c0.403-0.064,0.68,0.127,1.084,0.127c0.317-0.064,0.596-0.064,0.893-0.085
	c0.105-0.276,0.234-0.574,0.256-0.893c-0.299-0.51-0.404-1.147-0.596-1.7c-0.191-0.552-0.426-1.168-0.105-1.743
	c-0.17-0.552-0.83-0.531-1.318-0.552c-1.807-0.064-3.612,0.297-5.461,0.212c-0.617-0.17-1.317-0.297-1.955-0.127
	c-0.469-0.042-1.104-0.064-1.637-0.106c-1.041-0.34-2.146-0.106-3.23,0.021c-0.17,0.127-0.34-0.042-0.53,0.064
	c-0.935,0.063-1.786-0.298-2.742-0.17c-0.957,0.106-1.913,0.234-2.869,0.021c-0.383,0.106-0.702-0.149-1.062,0
	c-0.298,0.149-0.638,0.234-0.978,0.319c-0.85-0.021-1.764,0.233-2.593-0.128c-0.574,0.191-1.147-0.021-1.721,0.106
	c-0.552,0.085-1.041-0.404-1.594-0.17c-0.659,0.17-1.36,0.17-2.019,0.212c-0.616-0.149-1.254-0.042-1.87,0.021
	c-0.531-0.127-1.126,0.042-1.7-0.17c-0.552-0.042-1.083,0.255-1.636,0.149c-1.211,0.085-2.422-0.127-3.485-0.552
	c-0.17,0.042-0.298,0.063-0.468,0.042c-0.999,0.51-2.146-0.127-3.103,0.595c-0.233,0.021-0.467-0.127-0.637-0.297
	c-0.297-0.319-0.212-0.744-0.319-1.169c-0.085-0.106-0.212-0.233-0.17-0.425c0.042-0.149,0.148-0.34,0.34-0.34
	c0.595-0.361,1.36-0.404,1.998-0.723c0.51,0.042,1.042-0.021,1.551,0.064l0.127,0.127c0.85,0.127,1.509-0.213,2.146-0.616
	c0.297-0.021,0.616,0,0.935-0.021c0.148,0.149,0.51,0.212,0.722,0.149c0.425,0.021,0.808,0.085,1.211,0.17
	c0.744,0,1.572,0,2.316-0.212c0.871,0,1.594-0.298,2.444-0.319C16.638,44.598,17.148,44.492,17.616,44.704L17.616,44.704z"/>
<path fill="#A7A692" d="M4.738,49.677c0.042,0.255,0.361,0.17,0.531,0.298c0.382,0.063,0.829,0.276,0.765,0.722
	c-0.191,0.234,0.149,0.361,0.085,0.595c0.085,0.361-0.17,0.68,0.064,0.999c0.233,0.042,0.68,0.021,0.786,0.361
	c0.085,0.68-0.489,1.19-0.255,1.87c0.127,0.467,0.127,0.978,0.17,1.466c0.467,0.552-0.638,0.999,0,1.466
	c0.106,0.297,0.127,0.637,0.191,0.956c-0.085,0.723-0.17,1.573,0.34,2.167c-0.042,0.51,0.489,0.786,0.17,1.296
	c-0.042,0.467,0.255,0.871,0,1.317c-0.106,0.297,0.234,0.531,0.085,0.829c-0.021,0.489-0.191,0.892-0.149,1.36
	c0.191,0.935,0.213,1.955,0.085,3.018c-0.319,0.489-0.064,1.232-0.192,1.806c0.064,0.064,0.064,0.064,0.106,0.127
	c-0.106,0.808,0.531,1.402,0.425,2.21c-0.149,0.404,0.063,0.85,0.106,1.275c0.446,0.234,0.319,0.744,0.383,1.147
	c-0.106,0.234,0.021,0.468-0.085,0.68c-0.276,0.319-0.616,0.531-0.637,0.978c0.106,0.255-0.021,0.638,0.234,0.829
	c0.148,0.595,0,1.147-0.021,1.743c0.021,0.467,0.021,0.914,0.106,1.36c0.297,0.68-0.149,1.339-0.212,2.019
	c0.085,0.552,0.319,1.083,0.319,1.636c0,0.276-0.213,0.467-0.213,0.744c0.553,0.978,0.17,2.125-0.127,3.103
	c0.064,0.68,0.021,1.296-0.191,1.934c0.063,0.51,0.191,1.042,0.255,1.573c0.17,0.616-0.149,1.02-0.042,1.615
	c0,1.339-0.042,2.635-0.191,3.91c0.042,0.361,0.106,0.723,0.319,1.02c0.106,0.425-0.085,0.871,0.021,1.275
	c-0.212,1.126-0.085,2.55,0.17,3.613c0,0.616-0.128,1.19-0.17,1.764c-0.063,0.085-0.063,0.276-0.233,0.255
	c-0.276,0.319-0.51,0.659-0.468,1.126c0.063,0.51,0.361,1.041,0.531,1.571c1.296,0.615,0.361,2.4,1.53,3.123
	c0.191,0.17,0,0.384-0.042,0.574c-0.191,0.191-0.447,0.17-0.638,0.297c-0.149,0.488,0.212,1.021-0.085,1.511
	c-0.17,0.127,0.021,0.274-0.064,0.424c0.213,0.724-0.914,1.274-0.361,1.998c0.382,0.34,0.318,0.871,0.446,1.34
	c-0.127,0.658,0.064,1.338,0.128,1.976c-0.213,0.596,0.085,1.19-0.255,1.723c-0.085,0.17-0.042,0.361,0.127,0.424
	c0.149,0.766-0.127,1.381,0.021,2.104c-0.17,0.64,0.34,1.105,0.127,1.724c-0.064,0.36-0.489,0.7-0.297,1.062
	c0.021,0,0.042,0,0.063,0c-0.255,0.34-0.17,0.85,0,1.211c0.085,0.701,0.255,1.467,0,2.168c-0.063,0.658,0.191,1.338-0.127,1.912
	c0,0.828-0.17,1.486,0,2.273c-0.276,0.127-0.021,0.426-0.148,0.617c-0.361,0.467-0.128,1.062-0.106,1.594
	c0.127,0.041,0.085,0.189,0.085,0.254c0.361,0.404,0.063,0.957,0.042,1.381c0.042,0.701,0.234,1.467,0.064,2.168
	c0.233,0.488,0.255,1.062,0.191,1.637c-0.106,0.297-0.255,0.638-0.191,0.955c0.255,0.361-0.021,0.853,0.085,1.232
	c0.021,0.531-0.149,1.084-0.149,1.615c-0.021,0.021-0.042,0.043-0.064,0.063c0.021,0.404,0.128,0.724,0.191,1.128
	c0.276,0.34,0.404,0.954,0.17,1.338c0,0.213,0,0.317,0.149,0.487c0.106,0.063,0.255,0.043,0.404,0.043
	c0.361,0.234,0.616,0.617,0.744,0.998c-0.064,0.3-0.297,0.513-0.382,0.787c0.063,0.256-0.255,0.531,0.106,0.638
	c0.382-0.255,0.531,0.299,0.871,0.213c0.255,0.487,0.765,0.809,1.296,0.871c0.383,0.021,0.616-0.232,0.978-0.384
	c0.234,0.106,0.404-0.127,0.638-0.021c0.276-0.021,0.616-0.021,0.914,0.041c0.382,0.064,0.68-0.127,1.042-0.17
	c0.319,0.086,0.637-0.062,0.893,0.148c0.34-0.041,0.574,0.277,0.893,0.342c0.063-0.107,0.233-0.021,0.297,0
	c0.276-0.299,0.659-0.043,0.978-0.234c0.574,0.214,1.168,0,1.785,0.148c0.298-0.256,0.723-0.086,0.999-0.17
	c0.191,0.021,0.34,0.297,0.531,0.148c0.234,0.19,0.404-0.127,0.637-0.105c0.68,0.041,1.509,0.914,2.062,0.041
	c0.34,0.086,0.765-0.105,1.126,0.107c0.127-0.043,0.276-0.021,0.361,0.043c0.34,0.148,0.659,0.445,1.062,0.402
	c0.829,0.403,1.615,0.021,2.444,0.36c0.191-0.041,0.361,0.063,0.51,0.147c0.594-0.084,1,0.384,1.594,0.384
	c0.955,0,1.785-0.105,2.699-0.062c0.254-0.087,0.551-0.277,0.785-0.107c0.467,0.063,0.893,0.361,1.381,0.17
	c0.383,0.191,0.596-0.021,0.979-0.041c0.147,0.02,0.231,0.17,0.317,0.254c-0.021,0.127,0.064,0.213,0.105,0.318
	c-0.17,0.596,0.51,1.34-0.148,1.764c-0.19,0.32-0.68-0.021-0.955,0.277c-0.213,0.084-0.36,0.254-0.596,0.317
	c-0.361,0.104-0.639,0.361-1.02,0.361c-0.51,0.444-1.148,0.743-1.828,0.573c-0.275-0.063-0.574,0.084-0.85,0.021
	c-0.17,0.041,0.062,0.318-0.148,0.127c0.041-0.043-0.043-0.043-0.043-0.064c-0.127,0.064-0.318,0.191-0.447,0.17
	c-0.041-0.062,0.129-0.084,0-0.127c-0.062-0.043-0.062,0.043-0.084,0.064c0,0.105-0.064-0.021-0.107,0
	c-0.041-0.021,0.064-0.15-0.041-0.191c-0.34-0.063-0.68-0.086-1.041,0c-0.086,0.148-0.235-0.021-0.341,0.084
	c-0.318-0.043-0.531,0.257-0.807,0.021c-0.382-0.021-0.638-0.404-1.02-0.404c-0.403,0.191-0.914,0.107-1.254,0.404
	c-0.425,0.064-0.743-0.021-1.083-0.084c-0.404-0.191-0.893-0.361-1.339-0.15c-0.446-0.297-1.041-0.188-1.53-0.317
	c-0.276-0.19-0.638,0.063-0.893-0.17c-0.361,0.129-0.808,0-1.105,0.17c-0.043,0-0.106,0-0.106-0.062
	c-0.276-0.257-0.467,0.062-0.723,0.127c-0.595,0.021-1.126-0.234-1.657-0.064c-0.106-0.041-0.106,0.17-0.234,0.234
	c-0.234,0.104-0.531,0.317-0.808,0.104c-0.68,0.063-1.253,0.256-1.955,0.213c-0.319,0.277-0.829-0.084-1.126,0.277
	c-0.361,0.062-0.744,0.231-1.147,0.084c-0.234-0.064-0.425-0.404-0.723-0.191c-0.17-0.084-0.382-0.084-0.595-0.062
	c-0.234,0.148-0.17,0.424-0.404,0.551c-1.042,0.213-2.062-0.211-3.103-0.062c-0.213-0.127-0.276,0.148-0.468,0.17
	c-0.51-0.043-1.083,0.021-1.509-0.213c-0.148-0.274-0.531-0.383-0.765-0.637c-0.361-0.32-0.297-0.852-0.701-1.084
	c-0.233-0.469-0.914-0.361-1.147-0.871c-0.234-0.277,0.021-0.574,0-0.893c-0.106-0.51-0.51-0.957-0.34-1.51
	c0.191-0.17,0.106-0.467,0.297-0.637c-0.042-0.234,0.574-0.3,0.255-0.531c-0.128-0.107-0.298-0.127-0.447-0.191
	c-0.382-0.51,0.213-0.998,0.234-1.551c0.042-0.596-0.531-0.979-0.552-1.553c0.17-0.511-0.149-1.041-0.17-1.572
	c0.191-0.467-0.34-0.701-0.383-1.104c0-0.383-0.127-0.723,0.127-1.021c-0.085-0.51-0.148-0.955-0.233-1.465
	c0.021-0.617,1.53-0.873,0.552-1.445c-0.191-0.021-0.425-0.064-0.446-0.299c-0.063-0.381,0.149-0.572,0.106-0.934
	c0.234-0.234,0.191-0.66,0.191-0.957c-0.106-0.148-0.127-0.298-0.106-0.511c-0.191-0.467-0.149-1.021,0-1.51
	c-0.276-0.658-0.786-1.443-0.34-2.188c-0.148-0.871-0.659-1.701-0.382-2.613c0.106-0.446-0.127-1,0.127-1.424
	c0.085-0.256-0.085-0.49-0.17-0.723c0.085-0.277-0.063-0.596,0-0.893c0.085-0.34,0.276-0.617,0.34-0.957
	c-0.276-0.701,0.468-1.127,0.808-1.594c0.149-0.234-0.127-0.275-0.191-0.468c0.042-0.51-0.425-0.913-0.149-1.381
	c0.191-0.276-0.106-0.53,0.021-0.81c0-0.34-0.149-0.68-0.085-0.998c-0.255-0.147-0.021-0.383-0.128-0.573
	c-0.255-0.297-0.361-0.658-0.425-1.021c0.106-0.147,0.127-0.317,0.233-0.469c0.021-0.615-0.446-0.977-0.425-1.572
	c-0.063-0.553,0.574-0.68,0.51-1.231c-0.106-0.213-0.149-0.531-0.042-0.767c-0.17-0.424-0.064-0.871-0.106-1.295
	c0.361-0.317,0.021-0.766,0.063-1.147c0-0.615,0.213-1.402-0.042-1.955c0.212-0.424,0.063-0.828-0.149-1.211
	c-0.127-0.213-0.149-0.445,0-0.658c-0.042-0.147,0.021-0.317,0.127-0.426c0.212-0.425,0.425-1.021,0.212-1.486
	c0.085-0.469-0.106-0.852,0.064-1.297c-0.213-0.553-0.553-1.104-0.553-1.7c0.191-0.169,0.085-0.361,0.042-0.574
	c0-0.509,0-1.167,0.489-1.444c0.149-0.531,0.106-1.126-0.191-1.573c0.064-0.701-0.68-1.105-0.616-1.785
	c0-0.425,0.467-0.68,0.361-1.147c-0.382-0.638,0.276-1.126,0.213-1.785c-0.17-0.701-0.106-1.403-0.191-2.125
	c0.233-0.659,0.17-1.381-0.064-2.019c0.042-0.127-0.085-0.233-0.127-0.361c0.149-0.298,0.213-0.638,0.319-0.957
	c-0.212-0.212-0.212-0.595-0.17-0.871c0.021-0.276,0.319-0.383,0.34-0.659c0.34-0.085,0.468-0.446,0.468-0.765
	c0.021-0.17-0.064-0.255-0.085-0.425c-0.255-0.127-0.489-0.297-0.68-0.51c-0.064-0.489,0.106-1.19-0.149-1.7
	c-0.042-0.318,0-0.701,0.127-1.02c-0.297-0.595-0.042-1.253,0.064-1.87c-0.127-0.425,0-0.85-0.234-1.254
	c0.106-0.361,0.361-0.701,0.191-1.084c0.127-0.255-0.17-0.51,0.085-0.722c-0.042-0.042-0.042-0.106-0.063-0.149
	c-0.128-0.382-0.043-0.871,0.148-1.232c0.021-0.149,0.127-0.276,0.212-0.404c-0.382-0.467-0.297-1.083-0.276-1.658
	c-0.383-0.531-0.128-1.232-0.298-1.785c-0.276-0.404-0.467-0.978-0.191-1.445c-0.319-0.616,0.531-1.105,0.297-1.721
	c-0.021-0.361,0.148-0.786-0.127-1.083c0.042-0.383,0.021-0.829,0.34-1.042c0.042-0.297,0.085-0.616,0.404-0.765
	C2.973,69.797,2.697,69.5,2.57,69.16c0.022-0.018,0.022-0.06,0.043-0.082c-0.085-0.574,0.042-1.126-0.17-1.679
	c0.446-0.531,0.212-1.232,0.212-1.827c-0.021-0.064-0.063-0.085-0.063-0.149c-0.106-0.361,0.106-0.701-0.021-1.062
	c0.042-0.149,0.127-0.297,0.212-0.425c-0.021-0.404,0.042-0.765,0.042-1.168c0.064-0.319,0.255-0.531,0.361-0.829
	c0.021-0.17-0.021-0.361,0.042-0.488c-0.17-0.468-0.637-1.02-0.255-1.573c-0.021-0.212,0.042-0.382,0.149-0.531
	c-0.042-0.68,0.191-1.466-0.064-2.167c0.021-0.574,0.34-1.169-0.063-1.679c-0.319-0.723,0.255-1.488-0.021-2.231
	c-0.021-0.34,0.212-0.616,0.255-0.914c0.361-0.064,0.553-0.383,0.574-0.723c-0.319-0.489-0.063-1.062-0.276-1.594
	c-0.021-0.318,0.127-0.659,0.34-0.893C4.249,48.933,4.611,49.337,4.738,49.677L4.738,49.677z"/>
<path fill="#A7A692" d="M17.34,77.451c-0.787,0.425-1.53-0.255-2.316-0.361c-0.085,0.128-0.297,0.191-0.361,0.361
	c0.234,0.383,0.17,0.935-0.063,1.275c0.382,0.786,0.085,1.679-0.043,2.507c-0.085,0.808-0.148,1.466-0.106,2.316
	c0.191,0.297,0.489,0.425,0.616,0.765c0.149,0.446-0.127,0.829-0.361,1.169c0.064,0.297,0.574,0.382,0.595,0.744
	c0.382,0.042,0.765,0.34,1.105,0.149c0.999,0.021,1.998,0.425,3.124,0.255c0.425-0.127,0.85-0.17,1.296-0.191
	c0.17,0.106,0.425-0.106,0.51,0.021c0.531-0.17,1.254,0.042,1.828-0.106c1.7,0.361,3.251-0.34,4.952-0.127
	c0.021,0.127,0.106,0.021,0.17,0.021c0.34,0.17,0.786,0.106,1.083,0.34c0.255,0.085,0.574-0.191,0.765,0.021
	c0.318-0.361,0.766,0.297,1.021-0.191c0.551-0.085,1.061-0.212,1.613-0.276c0.106,0.021,0.299-0.085,0.34,0.106
	c0.256-0.042,0.553,0.021,0.787,0.17c0.871-0.021,1.955,0.085,2.848,0.042c0.34,0.106,0.701,0.17,1.041,0.319
	c0.617-0.255,1.275,0,1.934-0.085c1.021-1.084,1.892,0.552,3.039,0c0.914,0.127,1.742-0.149,2.613-0.064
	c0.553-0.808-0.148-1.828,0.107-2.699c-0.639-1.658-0.277-3.549-0.383-5.397c-0.127-0.021-0.277-0.042-0.427-0.085
	c-0.383-0.212-0.827-0.446-1.274-0.446c-1.062,0.212-2.188-0.042-3.207-0.361c-0.766-0.17-1.51-0.064-2.211,0.191
	c-1.021-0.127-2.021,0.191-2.953-0.276c-0.277,0.127-0.574,0.127-0.871,0.149c-1.275,0.318-2.764,0.021-4.04,0.17
	c-0.042,0-0.063-0.042-0.106-0.064c-0.616-0.276-1.275-0.234-1.891-0.51c-0.851-0.213-1.785-0.042-2.614,0.042
	c-0.637,0.191-1.572,0.148-2.188-0.17c-0.51,0.148-0.978,0.042-1.551,0.085c-0.297,0.127-0.616,0.255-0.935,0.34
	c-0.17-0.021-0.276,0.297-0.446,0.127c-0.297,0.085-0.659-0.064-0.957-0.085C18.827,77.281,18.041,77.578,17.34,77.451L17.34,77.451
	z M47.239,64.828c0.041,0.383,0.17,0.787,0.021,1.147c0.127,0.531,0.657,1.042,0.19,1.573c0.188,0.106-0.021,0.234-0.021,0.34
	c0.17,0.276,0.785,0.51,0.51,0.957c-0.574,0.446,0.062,1.062,0.021,1.636c0,0.552,0.062,1.147,0.104,1.657
	c0.34,0.531-0.104,1.211,0.063,1.785c-0.106,0.212-0.021,0.425-0.043,0.659c0.256,0.723,1.168,0.553,1.508,1.275
	c0.172,0.34,0.277,0.765,0.213,1.147c-0.041,0.255-0.51,0.425-0.231,0.68c-0.043,0.149-0.149,0.276-0.106,0.425
	c-0.275,0.382-0.658,0.637-1.125,0.659c-0.256,0.148-0.234,0.489-0.172,0.744c-0.062,0.106,0.043,0.276-0.021,0.425
	c-0.257,0.17-0.343,0.489-0.554,0.638c0.148,0.404,0.297,0.829,0.638,1.105c0,0.361-0.021,0.786-0.063,1.126
	c-0.298,0.298-0.211,0.744-0.148,1.126c0.043,0.212,0.404,0.085,0.299,0.382c0.361,0.702-0.021,1.445,0.041,2.253
	c0,0.446-0.148,0.914-0.148,1.317c-0.147,0.063-0.104,0.234-0.104,0.34c0.274,0.234,0.317,0.595,0.34,0.893
	c-0.127,0.255-0.426,0.149-0.617,0.319c-0.317-0.064-0.594-0.276-0.911-0.255c-0.343-0.17-0.64-0.128-0.744-0.531
	c-0.234-0.553-0.767-0.106-1.127-0.106c-0.361,0.425-0.957,0.212-1.359,0.51c-0.744,0.361-1.402-0.276-2.189-0.255
	c-0.488,0.021-1.125,0-1.615,0.127c-0.17,0.191-0.467,0.064-0.701,0.191c-0.297,0.149-0.637,0.17-0.977,0.106
	c-0.447,0.255-1.127,0.467-1.701,0.276c-0.084,0.085-0.19-0.063-0.274,0c-1.255-0.148-2.486-0.127-3.74-0.17
	c-0.127,0.212-0.34,0-0.487,0.127c-0.49,0.234-1.105,0.255-1.595,0.042c-0.235-0.042-0.553,0-0.766-0.191
	c-0.255-0.064-0.553,0.021-0.786-0.149c-0.255,0.191-0.617,0.255-0.957,0.319c-0.446,0-0.85-0.106-1.275,0.021
	c-0.616-0.17-1.254-0.021-1.87-0.021c-0.361,0.106-0.744,0.148-1.083-0.021c-1.147-0.042-2.338-0.255-3.485-0.255
	c-0.489,0.127-0.999,0.106-1.508,0.212c-0.149-0.021-0.298,0.106-0.404,0.042c-0.149,0.106-0.361-0.042-0.532,0.021
	c-0.17-0.021-0.255-0.191-0.403-0.276c-0.212,0.149-0.468,0-0.638,0.234c-0.935,0-1.806,0.063-2.677-0.064
	c-0.064,0.042-0.255,0-0.298,0.127c-0.382-0.021-0.871,0.276-1.19-0.148c-0.51,0.148-0.574-0.446-0.808-0.744
	c-0.233-0.425-0.021-0.935-0.063-1.381c-0.128-0.638,0.191-1.254,0.319-1.849c-0.404-0.68-0.51-1.487-0.787-2.231
	c0.064-0.276,0.149-0.531,0.191-0.808c0-0.106-0.042-0.297,0.106-0.319c-0.213-0.319-0.255-0.744-0.106-1.105
	c0.106-0.063,0.106-0.212,0.021-0.297c0.318-0.489,0.021-1.147-0.021-1.7c0.212-0.17-0.063-0.34,0.085-0.51
	c0.063-0.701,0.021-1.509,0.042-2.167c-0.085-0.404-0.127-0.935,0.255-1.254c0.361-0.191,0.489-0.723,0.957-0.595
	c0.489-0.276,0.999,0.234,1.424-0.042c0.106,0.021,0.297,0.085,0.382,0.17c0.382,0.042,0.808,0.148,1.232,0.106
	c0.659,0.234,1.275-0.276,1.955-0.127c0.616-0.042,1.296,0.064,1.891,0.064c0.106-0.106,0.297-0.085,0.425-0.021
	c0.361-0.212,0.765,0,1.105-0.042c0.191,0.212,0.489-0.085,0.68,0.085c0.191-0.085,0.361-0.319,0.574-0.149
	c0.063-0.021,0.148-0.106,0.212-0.042c0.425,0.021,0.808-0.042,1.147,0.17c0.17-0.191,0.17,0.106,0.34-0.021
	c0.191,0.042,0.361-0.042,0.51,0.127c0.914-0.255,1.934-0.319,2.805-0.17c0.914-0.064,1.785-0.106,2.656-0.127
	c0.532,0,1.042-0.085,1.595-0.106c1.211,0.106,2.443,0.468,3.634,0.212c0.87,0.128,1.68-0.085,2.485,0.149
	c0.446,0.234,0.957-0.021,1.401,0.149c0.447-0.276,0.871,0.233,1.298,0.233c0.274,0.213,0.614-0.042,0.936,0
	c0.105-0.127,0.255-0.063,0.425-0.106c0.19-0.064,0.34-0.042,0.53-0.106c0.127,0.127,0.3-0.085,0.427,0.064
	c0.297,0,0.614,0.106,0.914,0.148c0.254,0.234,0.53-0.021,0.784,0.149c0.17-0.106,0.427-0.042,0.574-0.085
	c0.127-0.404,0.317-0.765,0.403-1.169c-0.063-0.531,0.148-1.104,0.084-1.636c-0.254-0.68,0.107-1.381-0.104-2.061
	c-0.106-0.468,0.384-0.68,0.318-1.169c0.147-0.191,0.127-0.446,0.063-0.68c-0.191-0.212-0.596-0.297-0.531-0.658
	c0.232-0.064,0.211-0.319,0.424-0.383c0.341-0.935,0.087-2.019,0.66-2.848c0.105,0.106,0.254,0,0.381-0.021
	C47.005,64.446,47.132,64.68,47.239,64.828L47.239,64.828z"/>
<path fill="#A7A692" d="M44.093,94.812c-0.381,0.021-0.317-0.637-0.742-0.574c-0.086,0.319-0.319,0.616-0.596,0.787
	c-0.275,0.063-0.658-0.021-0.936,0.148c-0.807-0.191-1.572,0.17-2.4,0.085c-1.041,0.106-2.168,0-3.166-0.191
	c-0.617,0-1.191,0.255-1.785,0.148c-0.531,0.255-1.062-0.191-1.594,0.064c-0.914-0.042-1.742,0-2.635-0.042
	c-0.362-0.361-0.83-0.404-1.297-0.234c-0.042,0.17-0.212,0.191-0.34,0.276c-0.34,0.212-0.743,0-1.105,0.127
	c-0.786-0.34-1.572-0.149-2.295,0.191c-0.276-0.021-0.489-0.213-0.786-0.085c-0.553,0.297-1.36,0.085-1.934-0.042
	c-0.17-0.149-0.51,0.17-0.531-0.191c-1.339,0.085-2.763-0.234-4.038,0.404c-0.914,0.297-1.806-0.361-2.55,0.255
	c-0.085,0.234-0.191,0.404-0.361,0.595c-0.234,0.701,0.255,1.423,0.085,2.146c0.106,0.255,0.148,0.616,0.489,0.701
	c0.318,0.213,0.786,0.021,1.126,0c0.064-0.063,0.085-0.191,0.191-0.255c0.382,0.17,0.808-0.021,1.19,0.17
	c0.489,0,1.083,0.106,1.572-0.063c0.064-0.021,0.021,0.063,0.064,0.085c0.17-0.085,0.319-0.021,0.467-0.127
	c0.191,0.042,0.425-0.085,0.595-0.042c0.127-0.17,0.319,0,0.446-0.149c0.808-0.064,1.53,0.042,2.401-0.085
	c0.042,0.021,0.106,0.042,0.17,0.063c0.34-0.127,0.595,0.064,0.935,0.064c1.509,0.404,2.975,0.127,4.42,0.064
	c0.319,0.127,0.638,0,0.935,0.17c0.341,0.17,0.787,0,1.105,0.17c0.299-0.085,0.616,0.042,0.914,0.106
	c0.317-0.085,0.573-0.021,0.85,0.085c0.701,0.085,1.384-0.085,2.104-0.106c0.873,0.127,1.871-0.021,2.721,0.191
	c0.426-0.255,0.893-0.383,1.381-0.404c0.043,0.021,0.064,0.063,0.107,0.106c0.147-0.085,0.34-0.106,0.531-0.063
	c1.084-0.106,2.146-0.212,3.25,0c0.256,0.127,0.573,0.063,0.852,0.276c0.189-0.149,0.488-0.17,0.742-0.149
	c0.469-0.212,1.041,0.234,1.467-0.234c0.213-0.255,0.213-0.531,0.277-0.85c-0.361-0.935-0.277-2.083-0.617-3.039
	c-0.064-0.276-0.361-0.276-0.531-0.446C44.858,94.833,44.392,95.216,44.093,94.812L44.093,94.812z M34.36,92.007
	c0.213,0.127,0.426,0.17,0.701,0.127c0.66-0.255,1.488-0.064,2.041,0.212c1.104-0.042,2.379,0.127,3.463,0.064
	c0.256,0.063,0.574,0.042,0.852,0.085c0.764,0.276,1.656-0.149,2.104,0.637c0.191,0.085,0.341-0.042,0.531,0.042
	c0.467,0.042,0.785-0.616,1.316-0.34c0.213,0.085,0.553,0.042,0.744,0.17c0.467,0.383,1.041,0.064,1.529,0.298
	c0.17,0.212,0.49,0.255,0.66,0.488c0.043,0.574,0.254,1.02,0.383,1.573c0,0.255-0.129,0.446-0.107,0.701
	c0.148,0.425-0.084,0.957,0.213,1.317c0,0.213,0.17,0.446,0.084,0.68c-0.467,1.232-0.275,2.593-0.232,3.953
	c-0.063,0.191-0.19,0.425-0.19,0.68c-0.658,0.68-1.785,0.383-2.571,0.106c-1.021,0.021-2.146-0.191-3.123-0.106
	c-0.298-0.148-0.531-0.062-0.828-0.17c-0.511,0.064-1.17-0.106-1.595,0.064c-0.36,0.106-0.743-0.064-1.127,0.085
	c-1.721,0.085-3.463,0.255-5.057-0.17c-0.087,0.106-0.171,0-0.257,0c-0.596,0.148-1.146-0.085-1.68,0.127
	c-0.871,0.042-1.613-0.191-2.443-0.021c-0.404,0.021-0.595-0.425-0.999-0.382c0-0.064-0.064-0.042-0.106-0.085
	c-0.552,0.17-1.105-0.234-1.615,0.063c-0.488-0.042-0.956,0.149-1.487,0.191c-0.297-0.063-0.595,0.106-0.892,0
	c-0.936,0.085-2.083-0.042-3.039-0.148c-0.106,0.127-0.234-0.085-0.361-0.064c-0.744,0.106-1.466-0.212-2.146,0.064
	c-0.318,0.148-0.744,0.212-1.083,0.063c-0.149,0.085-0.298,0-0.446-0.021c-0.574,0.085-1.296,0.148-1.849,0.021
	c-0.404-0.042-0.638,0.361-0.744,0.68c-0.319,0.744,0.063,1.466,0.17,2.188c0.361,0.51,0.914-0.042,1.381,0.085
	c0.191-0.105,0.383,0.148,0.574,0c0.382,0.213,0.765,0.213,1.147,0.404c0.191-0.106,0.425-0.063,0.616-0.043
	c0.276,0.021,0.531,0,0.786,0c0.17,0.086,0.382,0.043,0.552,0.086c0.255,0.105,0.51-0.063,0.786,0.063
	c0.255-0.106,0.489,0,0.766-0.085c0.382,0.149,0.85-0.105,1.253-0.064c0.595-0.127,1.275-0.17,1.87,0c0.17,0.191,0.51,0,0.744,0.127
	c0.957,0.234,1.785,0.106,2.699-0.127c0.297-0.062,0.68,0.064,1.042-0.041c0.467,0.211,0.999,0,1.467,0.17
	c0.426-0.043,0.914,0.085,1.381,0.085c0.574-0.171,1.17-0.319,1.764-0.361c0.404,0.19,0.914-0.021,1.232,0.361
	c0.66,0,1.361,0.021,1.998,0.211c0.404,0.105,0.809-0.105,1.211-0.126c0.383,0.042,0.852,0.021,1.191,0.232
	c0.444-0.084,0.871,0.063,1.295,0.129c0.469,0.297,0.744-0.17,1.254,0c0.17-0.129,0.383-0.043,0.574,0
	c0.383-0.213,0.723,0.021,1.147-0.148c0.127,0.084,0.297,0.062,0.424,0c0.47,0.084,0.83,0.232,1.297,0.318
	c0.361,0.104,0.595,0.553,0.998,0.487c0.234,0.043,0.488,0.128,0.724,0.214c0.127,0.17,0.317,0.043,0.446,0.213
	c0.212,0.383-0.106,0.68-0.149,1.02c-0.297,0-0.361,0.467-0.68,0.34c-0.021,0.064-0.062,0.105-0.084,0.148
	c-1.255,0.51-2.699,0.404-4.103,0.361c-0.341,0.17-0.787,0.043-1.17,0c-0.892,0.063-1.699-0.148-2.527-0.341
	c-1,0.021-1.808-0.021-2.784-0.084c-0.595-0.256-1.316,0.041-1.953,0.021c-0.873,0-1.724,0.149-2.529,0.19
	c-0.488,0.17-1,0.17-1.511,0.107c-0.658-0.171-1.338-0.384-2.04-0.341c-0.85,0.021-1.679,0.021-2.571,0
	c-1.381,0.384-2.72,0.062-4.08,0.041c-0.17-0.254-0.467-0.041-0.744-0.104c-0.978-0.104-1.955-0.063-2.89-0.274
	c-1.168-0.299-2.465,0.062-3.591,0.19c-0.574-0.129-1.168-0.149-1.657-0.512c-0.276-0.402-0.149-0.935-0.319-1.382
	c-0.212-0.637-0.34-1.55-0.042-2.187c0.064-0.616-0.467-0.935-0.765-1.381c-0.234,0.064-0.489,0.213-0.786,0.085
	c-0.212-0.106,0.064-0.297-0.106-0.425c-0.085-0.489,0.489-0.425,0.638-0.744c0.234-0.106,0.34-0.34,0.574-0.468
	c0.106-0.255-0.212-0.51,0.021-0.765c-0.276-0.468,0.191-0.85,0.213-1.254c0.042-1.466-0.128-2.954,0.382-4.208
	c-0.212-0.829,0.127-1.572,0.659-2.104c-0.212-0.489,0.361-0.085,0.383-0.489c0.595-0.064,1.19-0.383,1.785-0.085
	c0.106-0.191,0.383-0.127,0.574-0.148c0.042,0.021,0.064,0.063,0.106,0.085c0.319-0.149,0.701,0.042,0.999-0.106
	c0.446-0.191,0.978-0.17,1.424-0.17c0.064,0,0.021,0.064,0.085,0.064c0.574-0.191,1.169,0.042,1.7,0
	c0.191,0.127,0.361-0.17,0.595-0.085c0.213,0.085,0.404-0.021,0.595,0.127c0.383-0.255,0.914,0,1.339-0.106
	c0.106,0.212,0.425,0.042,0.616,0.021c0.319-0.021,0.616-0.127,0.893,0.021c0.553,0.064,1.083,0,1.594,0.021
	c0.042,0.17,0.085-0.064,0.191,0c0.68,0.191,1.19-0.17,1.828-0.127c0.085-0.149,0.298-0.064,0.404-0.149
	c0.468-0.064,0.893,0.149,1.381,0.17c0,0.021,0.064,0.085,0.085,0.085c0.744-0.191,1.763,0.191,2.337-0.319
	c0.383,0.042,0.639-0.17,1.021-0.127C33.575,92.028,33.937,92.05,34.36,92.007L34.36,92.007z"/>
<path fill="#A7A692" d="M14.173,111.684c0.191-0.105,0.34,0.086,0.531,0.107c0.234-0.064,0.425,0.084,0.595,0.19
	c0.956,0.062,1.934-0.233,2.826,0.041c0.531-0.084,1.041,0.043,1.551,0.17c0.425-0.02,0.808,0.15,1.168-0.041
	c0.383,0.041,0.68-0.086,1.02,0.041c0.425-0.127,0.936-0.02,1.382-0.104c0.233,0.063,0.531,0.104,0.744,0.191
	c0.106-0.021,0.297-0.021,0.404,0.063c0.382-0.086,0.807,0.041,1.147-0.214c1.104-0.147,2.401,0,3.506,0.148
	c0.616-0.127,1.126,0.127,1.722,0c0.255,0.086,0.554,0.086,0.681,0.383c0.021,0.297,0.34,0.488,0.53,0.658
	c0.298,0.318,0.785,0.68,0.638,1.17c-0.084,0.381,0.063,0.764-0.062,1.125c0.211,0.383-0.086,0.81,0.041,1.211
	c0.086,0.787,0.149,1.637,0.49,2.316c-0.021,0.256,0.062,0.531-0.13,0.68c-0.211,0.574,0.277,1.062,0.318,1.637
	c0.106,0.17,0.106,0.488,0.129,0.744c-0.129,0.148,0.021,0.447-0.021,0.638c-0.107,0.809-0.257,1.7-0.277,2.551
	c-0.211,0.317,0.086,0.597,0.021,0.957c0.064,0.637-0.147,1.254-0.04,1.849c0.062,0.213,0.04,0.487-0.064,0.68
	c-0.064,0.682,0.275,1.637-0.318,2.211c-0.021,0.104-0.086,0.213-0.086,0.34c0,0.701,0.129,1.402,0.488,1.977
	c-0.105,0.955,0.213,1.869,0.086,2.826c0.148,0.127-0.043,0.318,0,0.51c0.064,0.574,0,1.297,0.043,1.869
	c0.148,0.043,0.084,0.15-0.021,0.191c0.383,0.809-0.617,1.383-0.234,2.254c0.148,0.34,0.064,0.828,0.171,1.232
	c0.34,1.104-0.062,2.229-0.531,3.188c-0.383,0.062-0.808,0.383-1.188,0.084c-0.467-0.127-1.085-0.402-1.212-0.955
	c0.127-0.256,0.17-0.574,0.424-0.787c-0.17-0.234-0.446-0.467-0.552-0.766c0.106-0.764-0.042-1.529-0.042-2.316
	c0.085-0.467,0.319-0.871,0.424-1.316c-0.148-0.213-0.297-0.51-0.148-0.766c-0.105-0.105,0.086-0.213,0.17-0.232
	c0.235-0.043,0.17-0.342,0.213-0.532c-0.297-0.341-0.127-0.785-0.445-1.125c-0.15-0.361-0.043-0.724-0.021-1.104
	c0-0.554-0.256-1.189-0.213-1.742c-0.212-0.191,0.021-0.447,0.021-0.658c-0.191-0.937-0.149-1.998,0.106-2.891
	c0-0.257-0.043-0.468-0.234-0.658c-0.127-0.531,0.191-1,0.319-1.467c-0.107-0.871,0.041-1.742-0.065-2.593
	c0.276-0.36,0.086-0.853,0.34-1.213c-0.765-1.168,0.148-2.422-0.234-3.653c0.086-0.257-0.148-0.488-0.148-0.785
	c0.107-0.683,0.128-1.383,0.277-2.041c0.105-0.404-0.277-0.767-0.107-1.148c-0.233-0.318,0.086-0.701-0.041-1.062
	c-0.235-0.188-0.235-0.51-0.362-0.721c-0.191-0.15-0.425-0.277-0.638-0.383c-0.488-0.021-0.744,0.637-1.296,0.361
	c-1.126-0.086-2.125-0.234-3.315-0.086c-0.659,0.383-0.404,1.34-0.383,2.02c-0.17,0.021,0.042,0.148-0.042,0.275
	c-0.021,0.127-0.085,0.233-0.063,0.404c0.085,1.528,0.191,3.123,0.212,4.694c0.106,0.447,0.319,0.957,0.021,1.401
	c-0.191,0.427-0.191,0.894-0.064,1.361c0.255,0.467-0.234,0.937-0.042,1.381c0.318,0.658-0.106,1.318-0.127,1.955
	c0.063,0.488,0.127,1.084,0.021,1.615c0.34,0.637,0.021,1.254-0.063,1.934c-0.425,0.468-0.043,1.105-0.361,1.615
	c-0.127,0.191-0.255,0.488-0.127,0.701c0.361,0.148,0.297,0.658,0.425,0.998c0,0.299-0.106,0.553-0.212,0.809
	c-0.149,0-0.127,0.254-0.234,0.275c-0.085,0.064-0.085,0.191-0.085,0.297c0.234,0.086,0.34,0.299,0.489,0.469
	c0.085,0.615-0.085,1.146-0.106,1.742c-0.042,0-0.021,0.064-0.063,0.064c0,2.443,0.276,4.822,0.531,7.182
	c-0.446,0.85-0.191,1.955-0.68,2.805c-0.34,0.361-0.85,0.318-1.211,0.64c-0.297-0.021-0.637,0.17-0.807-0.213
	c-0.042-0.361,0.021-0.767-0.212-1.084c-0.106-0.298,0.042-0.658-0.128-0.914c0.064-0.298-0.042-0.574-0.085-0.894
	c-0.085-0.51,0.191-0.977,0.276-1.445c-0.255-0.7-0.17-1.381-0.276-2.061c-0.021-0.701-0.148-1.297-0.276-1.955
	c0.212-0.766,0.191-1.637-0.043-2.338c0.043-0.17-0.085-0.361-0.063-0.553c0.17-0.275,0.021-0.615,0.212-0.914
	c0.064-0.488-0.212-0.785-0.064-1.232c0.043-0.637,0.064-1.254,0.064-1.912c-0.361-0.467-0.212-1.168-0.127-1.721
	c-0.106-0.17,0.021-0.361,0.042-0.553c-0.021-0.404,0.127-0.871,0.106-1.338c0.233-0.277,0.042-0.701,0.233-1.021
	c0.128-0.445-0.085-0.871-0.127-1.338c0-0.787,0.064-1.551,0.127-2.359c-0.021-0.297,0.043-0.657-0.063-0.977
	c0.148-0.234-0.085-0.488-0.064-0.766c0.021-0.574,0.404-1.062,0.468-1.658c0.085-0.297-0.106-0.572,0.021-0.871
	c-0.17-0.191,0.085-0.488-0.106-0.701c0.191-0.17,0.021-0.467,0.234-0.637c-0.106-0.488-0.042-0.914,0.085-1.34
	c-0.106-0.807-0.276-1.721-0.127-2.486c0.084-0.211-0.191-0.211-0.213-0.381c-0.063-0.191,0.064-0.32,0.021-0.531
	c-0.106-0.063-0.234-0.234-0.34-0.34c-1.509,0-2.869-0.723-4.356-0.469c-0.234-0.34-0.595-0.488-1.02-0.404
	c-0.127,0.361-0.701,0.342-0.68,0.83c-0.17,0.637-0.276,1.445,0.042,2.039c-0.021,0.277,0.064,0.617-0.042,0.83
	c-0.042,0.232,0.17,0.51-0.042,0.701c-0.127,0.977-0.297,2.209,0.127,3.102c0,1.062-0.021,2.295,0.149,3.252
	c0.085,1.125-0.106,2.146-0.149,3.23c-0.021,1.168,0.191,2.443-0.255,3.441c0.106,0.233,0,0.616,0.085,0.85
	c0,0.17,0.085,0.383,0.127,0.596c0.106,0.766-0.085,1.572-0.212,2.316c0.361,1.084,0.276,2.061,0.191,3.166
	c0.297,0.766,0.127,1.572,0.148,2.443c0.213,0.87,0.042,1.85-0.234,2.678c-0.212,0.17-0.467,0.127-0.722,0.19
	c-0.361,0.274,0.085,0.979-0.468,1.104c-0.127,0.084-0.34,0.127-0.446,0c-0.468-0.317-0.659-0.809-0.893-1.231
	c0.106-0.276-0.106-0.596-0.085-0.871c0.148-0.213-0.042-0.659,0.318-0.723c0.17-0.257-0.255-0.488-0.382-0.724
	c0-0.297,0.021-0.531-0.021-0.828c0.127-0.19-0.021-0.553,0.191-0.723c0.021-0.469-0.042-0.957-0.085-1.402
	c0.17-0.256-0.191-0.342,0-0.573c-0.106-0.234,0.064-0.574-0.17-0.744c-0.021-0.488,0.021-0.851-0.106-1.297
	c0.149-0.341,0.425-0.615,0.298-1.021c-0.702-0.297-0.149-1.188-0.319-1.699c0.17-0.403,0.021-0.787-0.127-1.17
	c-0.361-0.043-0.255-0.424-0.34-0.658c0.191-0.17-0.085-0.553,0.319-0.573c-0.064-0.34,0.446-0.274,0.255-0.658
	c-0.063-0.256,0.128-0.53,0.128-0.744c0.17-0.147,0.063-0.317,0.063-0.51c0.106-0.998,0.212-2.104-0.17-3.039
	c-0.021-0.851,0.234-1.637,0.276-2.442c-0.17-0.17,0.085-0.297,0-0.488c-0.106-0.361,0.063-0.682,0-1.041
	c0-0.234,0.191-0.447,0.042-0.701c-0.021-0.32,0.021-0.682,0.042-1c-0.042-0.574-0.085-1.127-0.106-1.678
	c0.191-0.49-0.255-0.787-0.127-1.254c-0.106-0.299-0.212-0.681-0.149-1.041c0.064-0.107,0.106-0.256,0.213-0.361
	c0.063-0.256,0-0.553-0.17-0.766c0-0.105,0.021-0.234-0.106-0.277c0.085-0.361-0.085-0.658,0-1.02
	c0.021-0.445-0.489-0.744-0.786-1.021c0.191-0.297-0.234-0.447,0-0.744c0.191-0.062,0.297-0.274,0.382-0.424
	C12.664,111.578,13.514,111.174,14.173,111.684L14.173,111.684z"/>
<path fill="#A7A692" d="M39.503,112.662c0.064,0.383,0.34,0.658,0.383,1.062c-0.043,0.637-0.723,0.937-0.85,1.528
	c0,0.47,0.426,0.871,0.127,1.361c-0.211,0.68-0.68,1.211-0.594,2.019c-0.129,0.19-0.021,0.553-0.17,0.766
	c-0.17,0.998,0.062,2.019,0.17,3.019c-0.043,0.127-0.064,0.297-0.021,0.403c-0.19,0.935,0.404,1.976-0.17,2.89
	c-0.086,0.404,0.084,0.766,0.232,1.084c-0.445,1.02,0.32,1.998-0.148,2.996c-0.531,0.68-0.297,1.51-0.213,2.315
	c0.234,0.256,0.17,0.681,0.277,0.979c-0.191,0.531,0.105,0.977,0.021,1.529c0.274,0.383,0.53,0.807,0.383,1.317
	c-0.49,0.637-0.277,1.485-0.469,2.229c0.383,0.828,0.19,1.615,0.299,2.57c0.041,0.15,0.147,0.32,0.317,0.383
	c0.424-0.17,0.871,0.043,1.211-0.275c0.213-0.297,0.19-0.68,0.488-0.956c-0.043-0.255,0.127-0.468,0.17-0.724
	c0.021-0.041,0.043-0.041,0.086-0.084c-0.021-0.426-0.19-0.957,0.213-1.231c0.297-0.086,0.681-0.086,0.955,0
	c0.446,0.274,0.34,0.85,0.34,1.274c0.147,0.68-0.594,2.019,0.574,2.209c0.17-0.104,0.403-0.19,0.597-0.104
	c0.487-0.129,1.125-0.063,1.594-0.063c0.444,0.021,0.912,0.233,1.254,0.51c0.231,0,0.637,0.17,0.701-0.191
	c0.02-0.383,0.211-0.871-0.107-1.211c0.064-0.404,0.043-0.893,0.318-1.232c0.106-0.467,0-0.936-0.318-1.231
	c-0.127-0.191,0-0.445-0.127-0.597c0.064-0.785,0.148-1.528,0.021-2.379c-0.064-0.106-0.17-0.256-0.086-0.383
	c-0.212-0.488,0.106-0.957-0.062-1.424c0.127-0.213-0.086-0.383-0.043-0.637c-0.043-0.342,0-0.682,0.234-0.914
	c0.041-0.617-0.086-1.254,0.188-1.764c0.043-0.234,0.063-0.531-0.021-0.767c-0.19-0.043-0.043-0.213-0.149-0.317
	c-0.359-0.531-0.211-1.318-0.188-1.871c0.041-0.808-0.064-1.594,0.17-2.379c-0.021-0.531,0.188-1,0.104-1.531
	c0.043-0.402,0.021-0.807,0.021-1.232c0.084-0.68-0.404-1.232-0.233-1.912c-0.255-0.68,0.297-1.486-0.275-2.018
	c0.043-1.148-0.317-2.359,0.318-3.295c-0.021-0.297-0.087-0.785,0.297-0.893c0.317,0,0.66-0.043,0.787-0.318
	c0.297-0.043,0.614,0,0.827,0.256c0.318,0.34,0.148,0.85,0.064,1.232c0.445,0.657,0.445,1.424,0.361,2.229
	c0.467,1.104,0.041,2.528,0.361,3.612c-0.043,0.021-0.043,0.084-0.021,0.128c0.043,0.043,0.148,0.043,0.191,0.063
	c-0.043,1.232-0.043,2.656,0.147,3.889c0.063,0.531-0.086,0.955-0.213,1.443c0.147,0.701-0.043,1.467,0.233,2.125
	c-0.233,1-0.17,2.125-0.213,3.125c0.021,1.021,0.275,2.104-0.297,2.975c0.531,0.767-0.043,1.722,0.572,2.423
	c0.043,1.231,0,2.358,0.043,3.655c-0.021,0.383-0.232,0.765-0.127,1.146c-0.191,0.809-0.256,1.785-1.189,2.189
	c-1.213,0.531-2.508,0.383-3.782,0.34c-0.384,0.084-0.851,0.275-1.211,0.127c-0.064-0.213-0.384-0.043-0.341-0.297
	c-0.17-0.021-0.213-0.297-0.426-0.17c-0.274,0.17-0.766,0.34-0.68,0.807c0.127,0.15,0.256,0.299,0.275,0.469
	c-0.127,0.213,0,0.467-0.127,0.68c0,0.17-0.275,0.383,0,0.488c-0.191,0.297-0.043,0.744-0.191,1.041
	c0.213,0.787,0.574,1.893,0.021,2.613c-0.17,0.512,0.19,0.914,0.104,1.383c-0.127,0.062,0.063,0.105,0.063,0.17
	c0.043,0.893-0.063,1.955-0.063,2.848c0.043,0.297,0.043,0.681,0.043,0.998c-0.383,0.787-0.871,1.529-1.508,2.104
	c-0.277,0.086-0.488,0.021-0.724-0.084c-0.127-0.447-0.446-0.871-0.914-0.957c0.043-0.19-0.127-0.297-0.256-0.403
	c-0.147-0.255-0.381-0.511-0.274-0.851c0.256-0.274,0.297-0.658,0.426-1.021c0.188-0.404,0.231-0.871,0.401-1.317
	c-0.104-0.894-0.104-1.912,0.277-2.697c0.084-0.894-0.19-1.998,0.17-2.869c-0.233-0.233-0.086-0.616-0.256-0.87
	c-0.084-0.787,0.574-1.402,0.531-2.169c-0.084-0.213-0.361-0.106-0.574-0.17c-0.615-0.469-1.551-0.063-2.252-0.106
	c-0.658,0.299-1.02-0.318-1.529-0.572c-0.086-0.17-0.086-0.426-0.147-0.617c-0.233-1.062-0.043-2.188-0.021-3.209
	c-0.064-0.658-0.213-1.295-0.297-1.955c0.02-0.637-0.064-1.316,0-1.891c-0.257-0.553,0.062-1.148,0.041-1.68
	c0-0.552,0.063-1.062,0.086-1.613c-0.064,0.041-0.086-0.107-0.043-0.15c0.021,0,0.043-0.041,0.063-0.084
	c-0.043-0.979-0.147-1.85-0.129-2.869c0.17-0.383,0-0.85,0.256-1.211c-0.127-0.596-0.104-1.127-0.104-1.701
	c-0.213-0.742-0.191-1.529,0.127-2.145c-0.086-0.129,0.084-0.32-0.021-0.49c0.064-0.105,0.084-0.254,0.043-0.402
	c-0.043-0.021-0.17,0-0.148-0.106c0.105-0.127-0.043-0.254-0.021-0.402c0.127-0.723-0.043-1.51,0.254-2.146
	c-0.104-0.383,0.36-0.596,0.17-0.979c0-0.298-0.19-0.638,0.021-0.894c-0.084-0.213,0-0.445,0-0.701
	c-0.127-0.426-0.127-0.828-0.147-1.274c0.17-0.828,0.427-1.765-0.17-2.486c0-0.17-0.063-0.467,0.127-0.572
	c0.147-0.426,0.744-0.639,1.104-0.893c0.34-0.043-0.127-0.553,0.297-0.299c0.148-0.148,0.361-0.297,0.554-0.361
	C38.483,112.215,38.993,112.471,39.503,112.662L39.503,112.662z"/>
<path fill="#A7A692" d="M52.743,154.525c0.127,0.402,0.148,0.893-0.191,1.232c-0.233,0.402-0.744,0.424-0.914,0.828
	c-0.19,0.256-0.487,0.233-0.766,0.17c-0.148-0.213-0.383-0.043-0.424,0.148c-0.107,0.446-0.553,0.7-0.979,0.766
	c-0.275-0.064-0.531-0.148-0.767-0.361c-0.17,0.084-0.358,0.043-0.551,0.021c-0.81,0.297-1.765,0.274-2.656,0.317
	c-0.063,0.19-0.34,0.19-0.553,0.147c-0.404-0.062-0.511-0.614-0.853-0.766c-0.188-0.297-0.317-0.637-0.467-0.977
	c0.043-0.383-0.275-0.787,0-1.148c0.107-0.104,0.213-0.231,0.277-0.359c0.34-0.129,0.893,0.105,0.934-0.403
	c0.383-0.299,1-0.19,1.424-0.213c0.318-0.19,0.68-0.234,1-0.043c0.148,0.17,0.34,0.233,0.551,0.233
	c0.3,0.064,0.191-0.297,0.404-0.36c0.957,0.063,1.955,0.021,2.869-0.104C51.765,153.633,52.36,153.973,52.743,154.525
	L52.743,154.525z"/>
</svg>
