<?xml version="1.0" encoding="utf-8"?>
<!-- Generator: Adobe Illustrator 15.1.0, SVG Export Plug-In . SVG Version: 6.00 Build 0)  -->
<!DOCTYPE svg PUBLIC "-//W3C//DTD SVG 1.1//EN" "http://www.w3.org/Graphics/SVG/1.1/DTD/svg11.dtd">
<svg version="1.1" id="Ebene_1" xmlns="http://www.w3.org/2000/svg" xmlns:xlink="http://www.w3.org/1999/xlink" x="0px" y="0px"
	 width="199px" height="37px" viewBox="0 0 199 37" enable-background="new 0 0 199 37" xml:space="preserve">
<polygon fill="#D88C29" points="44.833,27.664 44.833,24.662 53.843,24.662 53.843,27.664 "/>
<polygon fill="#D88C29" points="44.833,21.658 44.833,18.656 53.843,18.656 53.843,21.658 "/>
<polygon fill="#D88C29" points="44.833,15.654 44.833,12.652 53.843,12.652 53.843,15.654 "/>
<polygon fill="#D88C29" points="80.204,27.664 80.204,24.662 89.213,24.662 89.213,27.664 "/>
<polygon fill="#D88C29" points="80.204,21.658 80.204,18.656 89.213,18.656 89.213,21.658 "/>
<polygon fill="#D88C29" points="80.204,15.654 80.204,12.652 89.213,12.652 89.213,15.654 "/>
<polygon fill="#D88C29" points="122.796,27.664 122.796,24.662 131.802,24.662 131.802,27.664 "/>
<polygon fill="#D88C29" points="122.796,21.658 122.796,18.656 131.802,18.656 131.802,21.658 "/>
<polygon fill="#D88C29" points="122.796,15.654 122.796,12.652 131.802,12.652 131.802,15.654 "/>
<polygon fill="#D88C29" points="159.228,12.652 198.259,12.652 198.259,15.654 159.228,15.654 "/>
<polygon fill="#D88C29" points="160.731,18.656 163.733,18.656 163.733,27.664 160.731,27.664 "/>
<polygon fill="#D88C29" points="166.735,18.656 169.739,18.656 169.739,27.664 166.735,27.664 "/>
<polygon fill="#D88C29" points="172.739,18.656 175.741,18.656 175.741,27.664 172.739,27.664 "/>
<polygon fill="#D88C29" points="181.746,18.656 184.75,18.656 184.75,27.664 181.746,27.664 "/>
<polygon fill="#D88C29" points="187.752,18.656 190.755,18.656 190.755,27.664 187.752,27.664 "/>
<polygon fill="#D88C29" points="193.759,18.656 196.759,18.656 196.759,27.664 193.759,27.664 "/>
<polygon fill="#D88C29" points="178.742,0.111 168.894,5.035 178.742,9.962 188.595,5.035 "/>
<path fill="#D88C29" d="M168.894,5.035c-0.153,1.744-2.06,3.575-2.879,4.154l1.447,1.189c1.572-2.188,1.701-3.397,1.745-5.312
	L168.894,5.035L168.894,5.035z"/>
<path fill="#7100AD" d="M161.431,33.594h0.746c0.717,0,1.26,0.152,1.26,1.029c0,0.402-0.269,0.938-1.016,0.938h-0.99V33.594
	L161.431,33.594z M161.431,31.277h0.99c0.586,0,0.848,0.373,0.848,0.83c0,0.535-0.269,0.869-0.815,0.877h-1.021L161.431,31.277
	L161.431,31.277z M162.496,36.17c0.627,0,1.654-0.138,1.654-1.547c0-0.755-0.343-1.229-1.127-1.32v-0.035
	c0.709-0.16,0.942-0.617,0.942-1.307c0-0.104-0.029-0.436-0.221-0.729c-0.205-0.309-0.467-0.563-1.229-0.563h-1.791v5.504
	L162.496,36.17L162.496,36.17z"/>
<polygon fill="#7100AD" points="170.72,36.17 170.72,35.561 168.539,35.561 168.539,33.655 170.524,33.655 170.524,33.045 
	168.539,33.045 168.539,31.277 170.677,31.277 170.677,30.666 167.841,30.666 167.841,36.17 "/>
<path fill="#7100AD" d="M175.153,31.277h1.061c0.541,0,0.738,0.44,0.738,0.839c0,0.479-0.244,0.916-0.748,0.916h-1.051V31.277
	L175.153,31.277z M175.976,33.639c0.235,0,0.776,0.031,0.83,0.703c0.062,0.731,0.017,1.449,0.213,1.83h0.731
	c-0.106-0.345-0.185-1.205-0.188-1.439c-0.038-1.104-0.269-1.318-0.899-1.418v-0.018c0.647-0.111,1.007-0.607,1.007-1.258
	c0-0.688-0.343-1.373-1.318-1.373h-1.896v5.504h0.701v-2.531H175.976L175.976,33.639z"/>
<polygon fill="#7100AD" points="184.468,36.17 184.468,35.561 182.448,35.561 182.448,30.666 181.746,30.666 181.746,36.17 "/>
<polygon fill="#7100AD" points="188.755,30.666 188.052,30.666 188.052,36.17 188.755,36.17 "/>
<polygon fill="#7100AD" points="196.134,30.666 196.134,35.377 196.117,35.377 193.976,30.666 192.985,30.666 192.985,36.17 
	193.612,36.17 193.612,31.398 193.627,31.398 195.8,36.17 196.759,36.17 196.759,30.666 "/>
<path fill="#7100AD" d="M0.307,23.193c-0.042,1.436-0.042,4.822,4.386,4.779c2.472,0,4.655-1.019,4.655-4.179
	c0-4.761-6.734-4.28-6.734-7.586c0-1.622,1.164-2.204,2.307-2.204c1.809,0,2.329,1.081,2.307,2.724h1.996
	c0.124-3.056-1.414-4.387-4.157-4.387c-2.516,0-4.407,1.414-4.407,4.074c0,4.51,6.735,4.135,6.735,7.461
	c0,1.789-1.165,2.435-2.681,2.435c-1.228,0-2.517-0.646-2.517-2.685v-0.437h-1.89V23.193z"/>
<polygon fill="#7100AD" points="10.037,12.654 10.037,14.317 13.988,14.317 13.988,27.662 15.9,27.662 15.9,14.317 19.848,14.317 
	19.848,12.654 "/>
<path fill="#7100AD" d="M21.732,22.174c0,4.158,1.537,5.799,4.717,5.799c3.181,0,4.718-1.641,4.718-5.799v-9.521h-1.912v9.604
	c0,3.285-0.998,4.117-2.807,4.117c-1.808,0-2.806-0.832-2.806-4.117v-9.604h-1.91V22.174L21.732,22.174z"/>
<path fill="#7100AD" d="M35.569,14.317h2.515c1.995,0,2.931,1.123,2.931,4.156v3.035c0,3.492-0.976,4.49-3.638,4.49h-1.808V14.317
	L35.569,14.317z M33.655,27.662h3.452c2.618,0,4.136-0.646,4.946-1.936c0.624-0.998,0.915-2.849,0.915-6.05
	c0-0.479-0.062-3.471-0.666-4.738c-0.749-1.602-2.12-2.286-4.033-2.286h-4.614V27.662L33.655,27.662z"/>
<polygon fill="#7100AD" points="64.921,12.654 64.921,25.5 64.88,25.5 59.036,12.654 56.337,12.654 56.337,27.662 58.042,27.662 
	58.042,14.65 58.081,14.65 64.006,27.662 66.625,27.662 66.625,12.654 "/>
<polygon fill="#7100AD" points="68.505,12.654 68.505,14.317 72.453,14.317 72.453,27.662 74.366,27.662 74.366,14.317 
	78.317,14.317 78.317,12.654 "/>
<polygon fill="#7100AD" points="100.293,12.654 100.293,25.5 100.25,25.5 94.408,12.654 91.705,12.654 91.705,27.662 93.41,27.662 
	93.41,14.65 93.451,14.65 99.376,27.662 101.994,27.662 101.994,12.654 "/>
<polygon fill="#7100AD" points="106.948,27.662 109.278,27.662 112.313,14.65 112.353,14.65 115.2,27.662 117.53,27.662 
	121.5,12.654 119.505,12.654 116.448,25.666 116.405,25.666 113.683,12.654 111.212,12.654 108.197,25.666 108.155,25.666 
	105.326,12.654 103.289,12.654 "/>
<path fill="#7100AD" d="M136.203,14.317h2.89c1.479,0,2.02,1.206,2.02,2.287c0,1.311-0.666,2.494-2.037,2.494h-2.869L136.203,14.317
	L136.203,14.317z M138.448,20.76c0.645,0,2.121,0.084,2.268,1.912c0.166,1.996,0.041,3.949,0.582,4.989h1.994
	c-0.291-0.937-0.498-3.284-0.52-3.931c-0.104-3.015-0.727-3.597-2.453-3.865v-0.042c1.768-0.312,2.744-1.663,2.744-3.43
	c0-1.871-0.937-3.741-3.596-3.741h-5.177v15.007h1.91V20.76H138.448L138.448,20.76z"/>
<polygon fill="#7100AD" points="147.371,27.662 147.371,19.824 147.435,19.824 152.696,27.662 155.147,27.662 149.388,19.43 
	154.837,12.654 152.673,12.654 147.435,19.242 147.371,19.242 147.371,12.654 145.462,12.654 145.462,27.662 "/>
</svg>
