<?xml version="1.0" encoding="utf-8"?>
<!-- Generator: Adobe Illustrator 15.1.0, SVG Export Plug-In . SVG Version: 6.00 Build 0)  -->
<!DOCTYPE svg PUBLIC "-//W3C//DTD SVG 1.1//EN" "http://www.w3.org/Graphics/SVG/1.1/DTD/svg11.dtd">
<svg version="1.1" id="Ebene_1" xmlns="http://www.w3.org/2000/svg" xmlns:xlink="http://www.w3.org/1999/xlink" x="0px" y="0px"
	 width="7.441px" height="9.34px" viewBox="0 0 7.441 9.34" enable-background="new 0 0 7.441 9.34" xml:space="preserve">
<path fill="#4058AB" d="M6.44,9.334c-0.189,0-0.384-0.055-0.554-0.168L0.445,5.539c-0.459-0.307-0.583-0.927-0.277-1.387
	c0.306-0.459,0.926-0.584,1.387-0.277l5.441,3.627C7.456,7.809,7.58,8.43,7.272,8.889C7.081,9.178,6.763,9.334,6.44,9.334z"/>
<path fill="#4058AB" d="M1,5.627c-0.323,0-0.64-0.156-0.833-0.444c-0.306-0.46-0.182-1.081,0.277-1.388l5.442-3.627
	c0.459-0.306,1.079-0.183,1.388,0.277c0.306,0.46,0.182,1.08-0.277,1.387L1.554,5.459C1.383,5.572,1.191,5.627,1,5.627z"/>
</svg>
