<?xml version="1.0" encoding="utf-8"?>
<!-- Generator: Adobe Illustrator 15.1.0, SVG Export Plug-In . SVG Version: 6.00 Build 0)  -->
<!DOCTYPE svg PUBLIC "-//W3C//DTD SVG 1.1//EN" "http://www.w3.org/Graphics/SVG/1.1/DTD/svg11.dtd">
<svg version="1.1" id="Ebene_1" xmlns="http://www.w3.org/2000/svg" xmlns:xlink="http://www.w3.org/1999/xlink" x="0px" y="0px"
	 width="6.45px" height="8.29px" viewBox="-0.225 -0.145 6.45 8.29" enable-background="new -0.225 -0.145 6.45 8.29"
	 xml:space="preserve">
<path fill="#898989" d="M5.719,8.143c-0.094,0-0.19-0.027-0.275-0.084L0.002,4.432c-0.23-0.153-0.292-0.463-0.139-0.693
	S0.326,3.446,0.556,3.6l5.441,3.626c0.229,0.153,0.292,0.464,0.14,0.692C6.041,8.064,5.883,8.143,5.719,8.143z"/>
<path fill="#898989" d="M0.28,4.484c-0.162,0-0.32-0.078-0.417-0.223c-0.153-0.23-0.091-0.54,0.139-0.693l5.441-3.627
	c0.229-0.154,0.54-0.091,0.693,0.139c0.152,0.23,0.091,0.54-0.14,0.693L0.557,4.4C0.471,4.457,0.375,4.484,0.28,4.484z"/>
</svg>
