<?xml version="1.0" encoding="utf-8"?>
<!-- Generator: Adobe Illustrator 15.1.0, SVG Export Plug-In . SVG Version: 6.00 Build 0)  -->
<!DOCTYPE svg PUBLIC "-//W3C//DTD SVG 1.1//EN" "http://www.w3.org/Graphics/SVG/1.1/DTD/svg11.dtd">
<svg version="1.1" id="Ebene_1" xmlns="http://www.w3.org/2000/svg" xmlns:xlink="http://www.w3.org/1999/xlink" x="0px" y="0px"
	 width="14.18px" height="10.641px" viewBox="0 0 14.18 10.641" enable-background="new 0 0 14.18 10.641" xml:space="preserve">
<path fill="#4058AA" d="M14.18,1.014c0,0.196-0.059,0.396-0.18,0.571l-6.039,8.631c-0.315,0.451-0.941,0.559-1.395,0.244
	C6.115,10.142,6.005,9.519,6.32,9.065l6.04-8.63c0.316-0.453,0.941-0.56,1.396-0.246C14.031,0.386,14.18,0.698,14.18,1.014z"/>
<path fill="#4058AA" d="M8.048,9.64c0,0.314-0.151,0.626-0.433,0.82c-0.45,0.316-1.074,0.206-1.391-0.244L0.186,1.585
	C-0.13,1.13-0.02,0.507,0.431,0.189C0.886-0.126,1.51-0.018,1.825,0.435l6.04,8.63C7.987,9.243,8.045,9.441,8.048,9.64z"/>
</svg>
