<?xml version="1.0" encoding="utf-8"?>
<!-- Generator: Adobe Illustrator 15.1.0, SVG Export Plug-In  -->
<!DOCTYPE svg PUBLIC "-//W3C//DTD SVG 1.1//EN" "http://www.w3.org/Graphics/SVG/1.1/DTD/svg11.dtd" [
	<!ENTITY ns_flows "http://ns.adobe.com/Flows/1.0/">
]>
<svg version="1.1"
	 xmlns="http://www.w3.org/2000/svg" xmlns:xlink="http://www.w3.org/1999/xlink" xmlns:a="http://ns.adobe.com/AdobeSVGViewerExtensions/3.0/"
	 x="0px" y="0px" width="170px" height="174px" viewBox="-0.279 0 170 174"
	 overflow="visible" enable-background="new -0.279 0 170 174" xml:space="preserve">
<defs>
</defs>
<rect fill="#4058AB" width="170.079" height="174.331"/>
<path fill="#FFFFFF" d="M15.448,66.739h0.908l2.243,5.684l2.233-5.684h0.908v6.482h-0.617V67.62h-0.019l-2.215,5.602h-0.581
	l-2.225-5.602h-0.018v5.602h-0.617V66.739z"/>
<path fill="#FFFFFF" d="M23.244,66.739h4.476v0.526h-3.858v2.343h3.613v0.526h-3.613v2.561h3.904v0.526h-4.521V66.739z"/>
<path fill="#FFFFFF" d="M28.853,66.739h2.242c1.952,0.046,2.978,1.117,2.978,3.241s-1.026,3.196-2.978,3.241h-2.242V66.739z
	 M29.47,72.695h1.316c1.861,0.009,2.669-0.781,2.669-2.715s-0.808-2.724-2.669-2.715H29.47V72.695z"/>
<path fill="#FFFFFF" d="M35.333,66.739h0.617v6.482h-0.617V66.739z"/>
<path fill="#FFFFFF" d="M37.529,66.739h4.476v0.526h-3.858v2.343h3.613v0.526h-3.613v2.561h3.904v0.526h-4.521V66.739z"/>
<path fill="#FFFFFF" d="M43.129,66.739h0.69l3.777,5.483h0.018v-5.483h0.618v6.482h-0.69l-3.777-5.483h-0.018v5.483h-0.618V66.739z"
	/>
<path fill="#FFFFFF" d="M21.004,84.112H20.56l-0.082-1.181h-0.018c-0.436,0.927-1.307,1.316-2.242,1.316
	c-2.043,0-3.06-1.606-3.06-3.377s1.017-3.377,3.06-3.377c1.362,0,2.469,0.735,2.706,2.151h-0.618
	c-0.082-0.744-0.854-1.625-2.088-1.625c-1.716,0-2.442,1.435-2.442,2.851s0.726,2.851,2.442,2.851c1.434,0,2.27-1.008,2.242-2.379
	h-2.206v-0.526h2.751V84.112z"/>
<path fill="#FFFFFF" d="M22.418,77.63h4.476v0.526h-3.858v2.343h3.613v0.526h-3.613v2.561h3.904v0.526h-4.521V77.63z"/>
<path fill="#FFFFFF" d="M28.317,81.979c-0.027,1.335,0.935,1.743,2.115,1.743c0.681,0,1.716-0.372,1.716-1.316
	c0-0.735-0.735-1.025-1.334-1.171l-1.443-0.354c-0.763-0.19-1.462-0.554-1.462-1.562c0-0.636,0.409-1.824,2.233-1.824
	c1.28,0,2.406,0.689,2.397,2.015h-0.618c-0.036-0.989-0.853-1.488-1.77-1.488c-0.845,0-1.625,0.326-1.625,1.289
	c0,0.608,0.454,0.862,0.981,0.989l1.58,0.391c0.917,0.245,1.68,0.645,1.68,1.707c0,0.444-0.182,1.852-2.479,1.852
	c-1.535,0-2.66-0.689-2.588-2.27H28.317z"/>
<path fill="#FFFFFF" d="M33.272,77.63h5.139v0.526H36.15v5.956h-0.617v-5.956h-2.261V77.63z"/>
<path fill="#FFFFFF" d="M40.525,77.63h0.69l2.542,6.482h-0.663l-0.79-2.016h-2.951l-0.781,2.016h-0.663L40.525,77.63z M39.545,81.57
	h2.551l-1.253-3.323L39.545,81.57z"/>
<path fill="#FFFFFF" d="M44.573,77.63h0.617v5.956h3.632v0.526h-4.249V77.63z"/>
<path fill="#FFFFFF" d="M48.148,77.63h5.139v0.526h-2.261v5.956h-0.617v-5.956h-2.261V77.63z"/>
<path fill="#FFFFFF" d="M54.057,77.63h0.617v4.013c-0.009,1.508,0.708,2.079,1.897,2.079c1.198,0,1.916-0.571,1.907-2.079V77.63
	h0.617v4.149c0,1.334-0.717,2.469-2.524,2.469c-1.798,0-2.515-1.135-2.515-2.469V77.63z"/>
<path fill="#FFFFFF" d="M60.546,77.63h0.69l3.777,5.483h0.018V77.63h0.618v6.482h-0.69l-3.777-5.483h-0.018v5.483h-0.618V77.63z"/>
<path fill="#FFFFFF" d="M72.709,84.112h-0.445l-0.082-1.181h-0.019c-0.436,0.927-1.307,1.316-2.242,1.316
	c-2.043,0-3.06-1.606-3.06-3.377s1.017-3.377,3.06-3.377c1.362,0,2.469,0.735,2.706,2.151H72.01
	c-0.082-0.744-0.854-1.625-2.088-1.625c-1.716,0-2.442,1.435-2.442,2.851s0.726,2.851,2.442,2.851c1.434,0,2.27-1.008,2.242-2.379
	h-2.206v-0.526h2.751V84.112z"/>
<path fill="#FFFFFF" d="M74.414,81.979c-0.027,1.335,0.935,1.743,2.115,1.743c0.681,0,1.716-0.372,1.716-1.316
	c0-0.735-0.735-1.025-1.334-1.171l-1.443-0.354c-0.763-0.19-1.462-0.554-1.462-1.562c0-0.636,0.409-1.824,2.233-1.824
	c1.28,0,2.406,0.689,2.397,2.015h-0.618c-0.036-0.989-0.853-1.488-1.77-1.488c-0.845,0-1.625,0.326-1.625,1.289
	c0,0.608,0.454,0.862,0.981,0.989l1.58,0.391c0.917,0.245,1.68,0.645,1.68,1.707c0,0.444-0.182,1.852-2.479,1.852
	c-1.535,0-2.66-0.689-2.588-2.27H74.414z"/>
<path fill="#FFFFFF" d="M17.364,88.521h0.69l2.542,6.482h-0.663l-0.79-2.016h-2.951l-0.781,2.016h-0.663L17.364,88.521z
	 M16.383,92.462h2.551l-1.253-3.323L16.383,92.462z"/>
<path fill="#FFFFFF" d="M20.104,88.521h5.139v0.526h-2.261v5.956h-0.617v-5.956h-2.261V88.521z"/>
<path fill="#FFFFFF" d="M26.067,88.521h4.476v0.526h-3.858v2.343h3.613v0.526h-3.613v2.561h3.904v0.526h-4.521V88.521z"/>
<path fill="#FFFFFF" d="M31.676,88.521h0.617v5.956h3.632v0.526h-4.249V88.521z"/>
<path fill="#FFFFFF" d="M36.822,88.521h0.617v6.482h-0.617V88.521z"/>
<path fill="#FFFFFF" d="M39.018,88.521h4.476v0.526h-3.858v2.343h3.613v0.526h-3.613v2.561h3.904v0.526h-4.521V88.521z"/>
<path fill="#FFFFFF" d="M44.626,88.521h2.969c1.071,0,1.97,0.518,1.97,1.688c0,0.817-0.427,1.489-1.262,1.652v0.019
	c0.844,0.108,1.089,0.689,1.135,1.462c0.027,0.444,0.027,1.334,0.3,1.661h-0.681c-0.154-0.254-0.154-0.735-0.172-1.008
	c-0.054-0.908-0.127-1.916-1.298-1.87h-2.342v2.878h-0.617V88.521z M45.244,91.6h2.306c0.753,0,1.398-0.473,1.398-1.263
	c0-0.789-0.472-1.289-1.398-1.289h-2.306V91.6z"/>
<path fill="#FFFFFF" d="M18.207,103.761l2.941-4.222h0.518v4.295h0.953v0.48h-0.953v1.58H21.14v-1.58h-2.933V103.761z
	 M21.14,103.834v-3.46h-0.019l-2.396,3.46H21.14z"/>
<path fill="#FFFFFF" d="M14.45,100.765c0.999-0.036,1.616-0.055,1.789-1.226h0.463v6.355h-0.572v-4.721H14.45V100.765z"/>
<path fill="#FFFFFF" d="M15.438,15.458H18.6l14.002,33.374h0.101l13.852-33.374h3.162v35.833h-2.208V18.168h-0.1L33.756,51.291
	h-2.208L17.747,18.168h-0.1v33.123h-2.208V15.458z"/>
<path fill="#FFFFFF" d="M56.437,38.645c-0.1,6.072,3.112,11.593,9.485,11.593c4.868,0,8.331-2.911,9.234-7.679h1.907
	c-1.004,6.022-5.019,9.335-11.142,9.335c-7.528,0-11.493-5.922-11.392-13.049c-0.101-7.076,3.613-13.951,11.392-13.951
	c8.08,0,11.693,6.373,11.342,13.751H56.437z M75.357,36.988c-0.101-5.421-3.513-10.439-9.435-10.439
	c-5.721,0-9.083,5.32-9.485,10.439H75.357z"/>
<path fill="#FFFFFF" d="M113.195,33.726v17.565h-1.907v-7.628h-0.101c-1.757,5.219-7.227,8.481-13.55,8.481
	c-10.84,0-16.863-8.281-16.863-18.569c0-10.138,6.123-18.971,16.913-18.971c7.378,0,13.651,4.467,14.905,11.944h-2.107
	c-1.656-6.173-6.223-10.037-12.748-10.037c-9.686,0-14.754,8.131-14.754,17.063c0,9.134,4.918,16.662,14.754,16.662
	c8.532,0,13.902-5.822,13.551-14.604H98.088v-1.907H113.195z"/>
<path fill="#FFFFFF" d="M132.312,15.458l14.153,35.833h-2.359l-4.517-11.492h-17.164l-4.567,11.492H115.5l14.402-35.833H132.312z
	 M138.887,37.892l-7.68-20.275h-0.1l-7.98,20.275H138.887z"/>
<path fill="#FFFFFF" d="M145.855,18.392c0,1.897-1.471,3.377-3.378,3.377c-1.906,0-3.377-1.479-3.377-3.377s1.471-3.377,3.377-3.377
	C144.384,15.015,145.855,16.494,145.855,18.392z M139.627,18.392c0,1.616,1.217,2.896,2.85,2.896c1.635,0,2.852-1.28,2.852-2.896
	s-1.217-2.896-2.852-2.896C140.844,15.495,139.627,16.775,139.627,18.392z M141.733,20.344h-0.48v-3.904h1.498
	c0.881,0,1.271,0.382,1.271,1.081c0,0.689-0.454,0.998-0.98,1.089l1.162,1.734h-0.563l-1.098-1.734h-0.809V20.344z M142.369,18.201
	c0.591,0,1.171-0.019,1.171-0.681c0-0.545-0.453-0.672-0.926-0.672h-0.881v1.353H142.369z"/>
<path fill="#FFFFFF" d="M149.084,46.29c0.998-0.036,1.615-0.055,1.788-1.226h0.463v6.355h-0.572v-4.721h-1.679V46.29z"/>
<path fill="#FFFFFF" d="M152.841,49.286l2.941-4.222h0.518v4.295h0.953v0.48H156.3v1.58h-0.526v-1.58h-2.933V49.286z
	 M155.774,49.359v-3.46h-0.019l-2.396,3.46H155.774z"/>
</svg>
