<?xml version="1.0" encoding="utf-8"?>
<!-- Generator: Adobe Illustrator 15.1.0, SVG Export Plug-In . SVG Version: 6.00 Build 0)  -->
<!DOCTYPE svg PUBLIC "-//W3C//DTD SVG 1.1//EN" "http://www.w3.org/Graphics/SVG/1.1/DTD/svg11.dtd">
<svg version="1.1" id="Ebene_1" xmlns="http://www.w3.org/2000/svg" xmlns:xlink="http://www.w3.org/1999/xlink" x="0px" y="0px"
	 width="14.18px" height="10.641px" viewBox="0 0 14.18 10.641" enable-background="new 0 0 14.18 10.641" xml:space="preserve">
<path fill="#4058AA" d="M13.756,10.461c-0.455,0.314-1.08,0.207-1.396-0.246l-6.04-8.63C6.005,1.131,6.115,0.508,6.567,0.19
	C7.02-0.125,7.646-0.017,7.961,0.434L14,9.065c0.121,0.175,0.18,0.375,0.18,0.571C14.18,9.951,14.031,10.264,13.756,10.461z"/>
<path fill="#4058AA" d="M7.865,1.585l-6.04,8.63c-0.315,0.453-0.939,0.561-1.394,0.246c-0.451-0.318-0.561-0.941-0.245-1.396
	l6.039-8.631C6.541-0.016,7.165-0.127,7.615,0.19c0.282,0.194,0.433,0.506,0.433,0.82C8.045,1.209,7.987,1.406,7.865,1.585z"/>
</svg>
