<?xml version="1.0" encoding="utf-8"?>
<!-- Generator: Adobe Illustrator 15.1.0, SVG Export Plug-In . SVG Version: 6.00 Build 0)  -->
<!DOCTYPE svg PUBLIC "-//W3C//DTD SVG 1.1//EN" "http://www.w3.org/Graphics/SVG/1.1/DTD/svg11.dtd">
<svg version="1.1" id="Ebene_1" xmlns="http://www.w3.org/2000/svg" xmlns:xlink="http://www.w3.org/1999/xlink" x="0px" y="0px"
	 width="10.641px" height="14.18px" viewBox="0 0 10.641 14.18" enable-background="new 0 0 10.641 14.18" xml:space="preserve">
<path fill="#4058AA" d="M9.629,14.173c-0.197,0-0.398-0.059-0.572-0.181l-8.63-6.039c-0.452-0.315-0.561-0.94-0.245-1.393
	c0.317-0.452,0.94-0.562,1.394-0.246l8.63,6.039c0.453,0.316,0.562,0.94,0.246,1.395C10.255,14.024,9.943,14.173,9.629,14.173z"/>
<path fill="#4058AA" d="M1.001,8.038c-0.315,0-0.626-0.148-0.82-0.429c-0.316-0.45-0.206-1.074,0.246-1.39l8.63-6.039
	c0.453-0.315,1.077-0.206,1.395,0.246c0.314,0.452,0.207,1.076-0.246,1.393l-8.63,6.04C1.398,7.979,1.2,8.038,1.001,8.038z"/>
</svg>
