<?xml version="1.0" encoding="utf-8"?>
<!-- Generator: Adobe Illustrator 15.1.0, SVG Export Plug-In . SVG Version: 6.00 Build 0)  -->
<!DOCTYPE svg PUBLIC "-//W3C//DTD SVG 1.1//EN" "http://www.w3.org/Graphics/SVG/1.1/DTD/svg11.dtd">
<svg version="1.1" id="Ebene_1" xmlns="http://www.w3.org/2000/svg" xmlns:xlink="http://www.w3.org/1999/xlink" x="0px" y="0px"
	 width="6.45px" height="8.29px" viewBox="0 0 6.45 8.29" enable-background="new 0 0 6.45 8.29" xml:space="preserve">
<path fill="#898989" d="M0.087,8.062C-0.065,7.834-0.001,7.523,0.228,7.37l5.441-3.625c0.229-0.154,0.54-0.091,0.692,0.139
	c0.153,0.23,0.092,0.54-0.139,0.693L0.78,8.204C0.696,8.26,0.599,8.288,0.505,8.288C0.341,8.288,0.183,8.208,0.087,8.062z"/>
<path fill="#898989" d="M5.669,4.545l-5.44-3.627c-0.23-0.153-0.291-0.463-0.14-0.693c0.153-0.23,0.464-0.293,0.692-0.139
	l5.441,3.627c0.23,0.153,0.292,0.464,0.139,0.693C6.265,4.551,6.108,4.629,5.946,4.629C5.85,4.629,5.754,4.602,5.669,4.545z"/>
</svg>
